  0
SECTION
  2
HEADER
  9
$ACADVER
  1
AC1009
  9
$FILLMODE
 70
1
  9
$EXTMIN
 10
-11.4300
 20
-5.5936
 30
0.0000
  9
$EXTMAX
 10
162.5400
 20
117.7800
 30
0.0000
  0
ENDSEC
  0
SECTION
  2
TABLES
  0
TABLE
  2
LTYPE
 70
1
  0
LTYPE
  2
CONTINUOUS
 70
64
  3
Solid line
 72
65
 73
0
 40
0
  0
ENDTAB
  0
TABLE
  2
LAYER
 70
255
  0
LAYER
  2
1
 70
64
 62
22
  6
CONTINUOUS
  0
LAYER
  2
16
 70
64
 62
175
  6
CONTINUOUS
  0
LAYER
  2
17
 70
64
 62
82
  6
CONTINUOUS
  0
LAYER
  2
18
 70
64
 62
82
  6
CONTINUOUS
  0
LAYER
  2
45
 70
64
 62
253
  6
CONTINUOUS
  0
ENDTAB
  0
ENDSEC
  0
SECTION
  2
BLOCKS
  0
BLOCK
  8
0
  2
RECT
 70
64
 10
0.0000
 20
0.0000
 30
0.0000
  3
RECT
  0
SOLID
  8
0
 10
-0.5000
 20
-0.5000
 30
0.0000
 11
0.5000
 21
-0.5000
 31
0.0000
 12
-0.5000
 22
0.5000
 32
0.0000
 13
0.5000
 23
0.5000
 33
0.0000
  0
ENDBLK
  8
0
  0
BLOCK
  8
0
  2
PIE
 70
64
 10
0.0000
 20
0.0000
 30
0.0000
  3
PIE
  0
POLYLINE
  8
0
 66
1
 10
0.0000
 20
0.0000
 30
0.0000
 40
0.5000
 41
0.5000
 70
0
  0
VERTEX
  8
0
 10
0.0000
 20
-0.2500
 30
0.0000
 42
1.0000
  0
VERTEX
  8
0
 10
0.0000
 20
0.2500
 30
0.0000
 42
1.0000
  0
VERTEX
  8
0
 10
0.0000
 20
-0.2500
 30
0.0000
  0
SEQEND
  8
0
  0
ENDBLK
  8
0
  0
BLOCK
  8
0
  2
OCTAGONP
 70
64
 10
0.0000
 20
0.0000
 30
0.0000
  3
OCTAGONP
  0
POLYLINE
  8
0
 66
1
 10
0.0000
 20
0.0000
 30
0.0000
 40
0.5000
 41
0.5000
 70
0
  0
VERTEX
  8
0
 10
-0.2500
 20
-0.1036
 30
0.0000
  0
VERTEX
  8
0
 10
-0.2500
 20
0.1036
 30
0.0000
  0
VERTEX
  8
0
 10
-0.1036
 20
0.2500
 30
0.0000
  0
VERTEX
  8
0
 10
0.1036
 20
0.2500
 30
0.0000
  0
VERTEX
  8
0
 10
0.2500
 20
0.1036
 30
0.0000
  0
VERTEX
  8
0
 10
0.2500
 20
-0.1036
 30
0.0000
  0
VERTEX
  8
0
 10
0.1036
 20
-0.2500
 30
0.0000
  0
VERTEX
  8
0
 10
-0.1036
 20
-0.2500
 30
0.0000
  0
VERTEX
  8
0
 10
-0.2500
 20
-0.1036
 30
0.0000
  0
VERTEX
  8
0
 10
-0.2500
 20
0.1036
 30
0.0000
  0
SEQEND
  8
0
  0
ENDBLK
  8
0
  0
BLOCK
  8
0
  2
SQUAREP
 70
64
 10
0.0000
 20
0.0000
 30
0.0000
  3
SQUAREP
  0
SOLID
  8
0
 10
-0.5000
 20
-0.5000
 30
0.0000
 11
0.5000
 21
-0.5000
 31
0.0000
 12
-0.5000
 22
0.5000
 32
0.0000
 13
0.5000
 23
0.5000
 33
0.0000
  0
ENDBLK
  8
0
  0
BLOCK
  8
0
  2
ROUNDP
 70
64
 10
0.0000
 20
0.0000
 30
0.0000
  3
ROUNDP
  0
POLYLINE
  8
0
 66
1
 10
0.0000
 20
0.0000
 30
0.0000
 40
0.5000
 41
0.5000
 70
0
  0
VERTEX
  8
0
 10
0.0000
 20
-0.2500
 30
0.0000
 42
1.0000
  0
VERTEX
  8
0
 10
0.0000
 20
0.2500
 30
0.0000
 42
1.0000
  0
VERTEX
  8
0
 10
0.0000
 20
-0.2500
 30
0.0000
  0
SEQEND
  8
0
  0
ENDBLK
  8
0
  0
BLOCK
  8
0
  2
ANNULUSP
 70
64
 10
0.0000
 20
0.0000
 30
0.0000
  3
ANNULUSP
  0
POLYLINE
  8
0
 66
1
 10
0.0000
 20
0.0000
 30
0.0000
 40
0.5000
 41
0.5000
 70
0
  0
VERTEX
  8
0
 10
0.0000
 20
-0.2500
 30
0.0000
 42
1.0000
  0
VERTEX
  8
0
 10
0.0000
 20
0.2500
 30
0.0000
 42
1.0000
  0
VERTEX
  8
0
 10
0.0000
 20
-0.2500
 30
0.0000
  0
SEQEND
  8
0
  0
ENDBLK
  8
0
  0
BLOCK
  8
0
  2
THERMALP
 70
64
 10
0.0000
 20
0.0000
 30
0.0000
  3
THERMALP
  0
POLYLINE
  8
0
 66
1
 10
0.0000
 20
0.0000
 30
0.0000
 40
0.1000
 41
0.1000
 70
0
  0
VERTEX
  8
0
 10
-0.2379
 20
0.4500
 30
0.0000
  0
VERTEX
  8
0
 10
0.2379
 20
0.4500
 30
0.0000
  0
SEQEND
  8
0
  0
POLYLINE
  8
0
 66
1
 10
0.0000
 20
0.0000
 30
0.0000
 40
0.0500
 41
0.0500
 70
0
  0
VERTEX
  8
0
 10
0.2379
 20
0.4250
 30
0.0000
 42
1.0000
  0
VERTEX
  8
0
 10
0.2379
 20
0.4750
 30
0.0000
  0
SEQEND
  8
0
  0
POLYLINE
  8
0
 66
1
 10
0.0000
 20
0.0000
 30
0.0000
 40
0.0500
 41
0.0500
 70
0
  0
VERTEX
  8
0
 10
-0.2379
 20
0.4750
 30
0.0000
 42
1.0000
  0
VERTEX
  8
0
 10
-0.2379
 20
0.4250
 30
0.0000
  0
SEQEND
  8
0
  0
POLYLINE
  8
0
 66
1
 10
0.0000
 20
0.0000
 30
0.0000
 40
0.1000
 41
0.1000
 70
0
  0
VERTEX
  8
0
 10
0.4500
 20
0.2379
 30
0.0000
  0
VERTEX
  8
0
 10
0.4500
 20
-0.2379
 30
0.0000
  0
SEQEND
  8
0
  0
POLYLINE
  8
0
 66
1
 10
0.0000
 20
0.0000
 30
0.0000
 40
0.0500
 41
0.0500
 70
0
  0
VERTEX
  8
0
 10
0.4250
 20
-0.2379
 30
0.0000
 42
1.0000
  0
VERTEX
  8
0
 10
0.4750
 20
-0.2379
 30
0.0000
  0
SEQEND
  8
0
  0
POLYLINE
  8
0
 66
1
 10
0.0000
 20
0.0000
 30
0.0000
 40
0.0500
 41
0.0500
 70
0
  0
VERTEX
  8
0
 10
0.4750
 20
0.2379
 30
0.0000
 42
1.0000
  0
VERTEX
  8
0
 10
0.4250
 20
0.2379
 30
0.0000
  0
SEQEND
  8
0
  0
POLYLINE
  8
0
 66
1
 10
0.0000
 20
0.0000
 30
0.0000
 40
0.1000
 41
0.1000
 70
0
  0
VERTEX
  8
0
 10
0.2379
 20
-0.4500
 30
0.0000
  0
VERTEX
  8
0
 10
-0.2379
 20
-0.4500
 30
0.0000
  0
SEQEND
  8
0
  0
POLYLINE
  8
0
 66
1
 10
0.0000
 20
0.0000
 30
0.0000
 40
0.0500
 41
0.0500
 70
0
  0
VERTEX
  8
0
 10
-0.2379
 20
-0.4250
 30
0.0000
 42
1.0000
  0
VERTEX
  8
0
 10
-0.2379
 20
-0.4750
 30
0.0000
  0
SEQEND
  8
0
  0
POLYLINE
  8
0
 66
1
 10
0.0000
 20
0.0000
 30
0.0000
 40
0.0500
 41
0.0500
 70
0
  0
VERTEX
  8
0
 10
0.2379
 20
-0.4750
 30
0.0000
 42
1.0000
  0
VERTEX
  8
0
 10
0.2379
 20
-0.4250
 30
0.0000
  0
SEQEND
  8
0
  0
POLYLINE
  8
0
 66
1
 10
0.0000
 20
0.0000
 30
0.0000
 40
0.1000
 41
0.1000
 70
0
  0
VERTEX
  8
0
 10
-0.4500
 20
-0.2379
 30
0.0000
  0
VERTEX
  8
0
 10
-0.4500
 20
0.2379
 30
0.0000
  0
SEQEND
  8
0
  0
POLYLINE
  8
0
 66
1
 10
0.0000
 20
0.0000
 30
0.0000
 40
0.0500
 41
0.0500
 70
0
  0
VERTEX
  8
0
 10
-0.4250
 20
0.2379
 30
0.0000
 42
1.0000
  0
VERTEX
  8
0
 10
-0.4750
 20
0.2379
 30
0.0000
  0
SEQEND
  8
0
  0
POLYLINE
  8
0
 66
1
 10
0.0000
 20
0.0000
 30
0.0000
 40
0.0500
 41
0.0500
 70
0
  0
VERTEX
  8
0
 10
-0.4750
 20
-0.2379
 30
0.0000
 42
1.0000
  0
VERTEX
  8
0
 10
-0.4250
 20
-0.2379
 30
0.0000
  0
SEQEND
  8
0
  0
ENDBLK
  8
0
  0
BLOCK
  8
0
  2
OCTAGONV
 70
64
 10
0.0000
 20
0.0000
 30
0.0000
  3
OCTAGONV
  0
POLYLINE
  8
0
 66
1
 10
0.0000
 20
0.0000
 30
0.0000
 40
0.5000
 41
0.5000
 70
0
  0
VERTEX
  8
0
 10
-0.2500
 20
-0.1036
 30
0.0000
  0
VERTEX
  8
0
 10
-0.2500
 20
0.1036
 30
0.0000
  0
VERTEX
  8
0
 10
-0.1036
 20
0.2500
 30
0.0000
  0
VERTEX
  8
0
 10
0.1036
 20
0.2500
 30
0.0000
  0
VERTEX
  8
0
 10
0.2500
 20
0.1036
 30
0.0000
  0
VERTEX
  8
0
 10
0.2500
 20
-0.1036
 30
0.0000
  0
VERTEX
  8
0
 10
0.1036
 20
-0.2500
 30
0.0000
  0
VERTEX
  8
0
 10
-0.1036
 20
-0.2500
 30
0.0000
  0
VERTEX
  8
0
 10
-0.2500
 20
-0.1036
 30
0.0000
  0
VERTEX
  8
0
 10
-0.2500
 20
0.1036
 30
0.0000
  0
SEQEND
  8
0
  0
ENDBLK
  8
0
  0
BLOCK
  8
0
  2
SQUAREV
 70
64
 10
0.0000
 20
0.0000
 30
0.0000
  3
SQUAREV
  0
SOLID
  8
0
 10
-0.5000
 20
-0.5000
 30
0.0000
 11
0.5000
 21
-0.5000
 31
0.0000
 12
-0.5000
 22
0.5000
 32
0.0000
 13
0.5000
 23
0.5000
 33
0.0000
  0
ENDBLK
  8
0
  0
BLOCK
  8
0
  2
ROUNDV
 70
64
 10
0.0000
 20
0.0000
 30
0.0000
  3
ROUNDV
  0
POLYLINE
  8
0
 66
1
 10
0.0000
 20
0.0000
 30
0.0000
 40
0.5000
 41
0.5000
 70
0
  0
VERTEX
  8
0
 10
0.0000
 20
-0.2500
 30
0.0000
 42
1.0000
  0
VERTEX
  8
0
 10
0.0000
 20
0.2500
 30
0.0000
 42
1.0000
  0
VERTEX
  8
0
 10
0.0000
 20
-0.2500
 30
0.0000
  0
SEQEND
  8
0
  0
ENDBLK
  8
0
  0
BLOCK
  8
0
  2
ANNULUSV
 70
64
 10
0.0000
 20
0.0000
 30
0.0000
  3
ANNULUSV
  0
POLYLINE
  8
0
 66
1
 10
0.0000
 20
0.0000
 30
0.0000
 40
0.5000
 41
0.5000
 70
0
  0
VERTEX
  8
0
 10
0.0000
 20
-0.2500
 30
0.0000
 42
1.0000
  0
VERTEX
  8
0
 10
0.0000
 20
0.2500
 30
0.0000
 42
1.0000
  0
VERTEX
  8
0
 10
0.0000
 20
-0.2500
 30
0.0000
  0
SEQEND
  8
0
  0
ENDBLK
  8
0
  0
BLOCK
  8
0
  2
THERMALV
 70
64
 10
0.0000
 20
0.0000
 30
0.0000
  3
THERMALV
  0
POLYLINE
  8
0
 66
1
 10
0.0000
 20
0.0000
 30
0.0000
 40
0.1000
 41
0.1000
 70
0
  0
VERTEX
  8
0
 10
-0.2379
 20
0.4500
 30
0.0000
  0
VERTEX
  8
0
 10
0.2379
 20
0.4500
 30
0.0000
  0
SEQEND
  8
0
  0
POLYLINE
  8
0
 66
1
 10
0.0000
 20
0.0000
 30
0.0000
 40
0.0500
 41
0.0500
 70
0
  0
VERTEX
  8
0
 10
0.2379
 20
0.4250
 30
0.0000
 42
1.0000
  0
VERTEX
  8
0
 10
0.2379
 20
0.4750
 30
0.0000
  0
SEQEND
  8
0
  0
POLYLINE
  8
0
 66
1
 10
0.0000
 20
0.0000
 30
0.0000
 40
0.0500
 41
0.0500
 70
0
  0
VERTEX
  8
0
 10
-0.2379
 20
0.4750
 30
0.0000
 42
1.0000
  0
VERTEX
  8
0
 10
-0.2379
 20
0.4250
 30
0.0000
  0
SEQEND
  8
0
  0
POLYLINE
  8
0
 66
1
 10
0.0000
 20
0.0000
 30
0.0000
 40
0.1000
 41
0.1000
 70
0
  0
VERTEX
  8
0
 10
0.4500
 20
0.2379
 30
0.0000
  0
VERTEX
  8
0
 10
0.4500
 20
-0.2379
 30
0.0000
  0
SEQEND
  8
0
  0
POLYLINE
  8
0
 66
1
 10
0.0000
 20
0.0000
 30
0.0000
 40
0.0500
 41
0.0500
 70
0
  0
VERTEX
  8
0
 10
0.4250
 20
-0.2379
 30
0.0000
 42
1.0000
  0
VERTEX
  8
0
 10
0.4750
 20
-0.2379
 30
0.0000
  0
SEQEND
  8
0
  0
POLYLINE
  8
0
 66
1
 10
0.0000
 20
0.0000
 30
0.0000
 40
0.0500
 41
0.0500
 70
0
  0
VERTEX
  8
0
 10
0.4750
 20
0.2379
 30
0.0000
 42
1.0000
  0
VERTEX
  8
0
 10
0.4250
 20
0.2379
 30
0.0000
  0
SEQEND
  8
0
  0
POLYLINE
  8
0
 66
1
 10
0.0000
 20
0.0000
 30
0.0000
 40
0.1000
 41
0.1000
 70
0
  0
VERTEX
  8
0
 10
0.2379
 20
-0.4500
 30
0.0000
  0
VERTEX
  8
0
 10
-0.2379
 20
-0.4500
 30
0.0000
  0
SEQEND
  8
0
  0
POLYLINE
  8
0
 66
1
 10
0.0000
 20
0.0000
 30
0.0000
 40
0.0500
 41
0.0500
 70
0
  0
VERTEX
  8
0
 10
-0.2379
 20
-0.4250
 30
0.0000
 42
1.0000
  0
VERTEX
  8
0
 10
-0.2379
 20
-0.4750
 30
0.0000
  0
SEQEND
  8
0
  0
POLYLINE
  8
0
 66
1
 10
0.0000
 20
0.0000
 30
0.0000
 40
0.0500
 41
0.0500
 70
0
  0
VERTEX
  8
0
 10
0.2379
 20
-0.4750
 30
0.0000
 42
1.0000
  0
VERTEX
  8
0
 10
0.2379
 20
-0.4250
 30
0.0000
  0
SEQEND
  8
0
  0
POLYLINE
  8
0
 66
1
 10
0.0000
 20
0.0000
 30
0.0000
 40
0.1000
 41
0.1000
 70
0
  0
VERTEX
  8
0
 10
-0.4500
 20
-0.2379
 30
0.0000
  0
VERTEX
  8
0
 10
-0.4500
 20
0.2379
 30
0.0000
  0
SEQEND
  8
0
  0
POLYLINE
  8
0
 66
1
 10
0.0000
 20
0.0000
 30
0.0000
 40
0.0500
 41
0.0500
 70
0
  0
VERTEX
  8
0
 10
-0.4250
 20
0.2379
 30
0.0000
 42
1.0000
  0
VERTEX
  8
0
 10
-0.4750
 20
0.2379
 30
0.0000
  0
SEQEND
  8
0
  0
POLYLINE
  8
0
 66
1
 10
0.0000
 20
0.0000
 30
0.0000
 40
0.0500
 41
0.0500
 70
0
  0
VERTEX
  8
0
 10
-0.4750
 20
-0.2379
 30
0.0000
 42
1.0000
  0
VERTEX
  8
0
 10
-0.4250
 20
-0.2379
 30
0.0000
  0
SEQEND
  8
0
  0
ENDBLK
  8
0
  0
BLOCK
  8
0
  2
LONGP100
 70
64
 10
0.0000
 20
0.0000
 30
0.0000
  3
LONGP100
  0
POLYLINE
  8
0
 66
1
 10
0.0000
 20
0.0000
 30
0.0000
 40
1.0000
 41
1.0000
 70
0
  0
VERTEX
  8
0
 10
-0.5000
 20
0.0000
 30
0.0000
  0
VERTEX
  8
0
 10
0.5000
 20
0.0000
 30
0.0000
  0
SEQEND
  8
0
  0
POLYLINE
  8
0
 66
1
 10
0.0000
 20
0.0000
 30
0.0000
 40
0.5000
 41
0.5000
 70
0
  0
VERTEX
  8
0
 10
0.5000
 20
-0.2500
 30
0.0000
 42
1.0000
  0
VERTEX
  8
0
 10
0.5000
 20
0.2500
 30
0.0000
  0
SEQEND
  8
0
  0
POLYLINE
  8
0
 66
1
 10
0.0000
 20
0.0000
 30
0.0000
 40
0.5000
 41
0.5000
 70
0
  0
VERTEX
  8
0
 10
-0.5000
 20
0.2500
 30
0.0000
 42
1.0000
  0
VERTEX
  8
0
 10
-0.5000
 20
-0.2500
 30
0.0000
  0
SEQEND
  8
0
  0
ENDBLK
  8
0
  0
ENDSEC
  0
SECTION
  2
ENTITIES
  0
LINE
  8
45
 10
39.8405
 20
10.0164
 30
0.0000
 11
39.8405
 21
9.5164
 31
0.0000
  0
LINE
  8
45
 10
3.8405
 20
12.0564
 30
0.0000
 11
3.8405
 21
43.7564
 31
0.0000
  0
LINE
  8
45
 10
46.7932
 20
103.6373
 30
0.0000
 11
46.6345
 21
104.2859
 31
0.0000
  0
LINE
  8
45
 10
-2.9535
 20
104.2859
 30
0.0000
 11
-3.1299
 21
103.5650
 31
0.0000
  0
LINE
  8
45
 10
42.9766
 20
88.4583
 30
0.0000
 11
46.0773
 21
94.6172
 31
0.0000
  0
ARC
  8
45
 10
60.8405
 20
79.4648
 30
0.0000
 40
20.0000
 50
153.2773
 51
180.0000
  0
LINE
  8
45
 10
40.8405
 20
52.6268
 30
0.0000
 11
40.8405
 21
79.4648
 31
0.0000
  0
ARC
  8
45
 10
33.3405
 20
56.5564
 30
0.0000
 40
7.2406
 50
325.9614
 51
155.4759
  0
ARC
  8
45
 10
22.4231
 20
61.5373
 30
0.0000
 40
4.7594
 50
283.0371
 51
335.4759
  0
ARC
  8
45
 10
-16.1595
 20
77.4785
 30
0.0000
 40
20.0000
 50
360.0000
 51
26.7227
  0
LINE
  8
45
 10
-2.3963
 20
94.6172
 30
0.0000
 11
1.7044
 21
86.4720
 31
0.0000
  0
ARC
  8
45
 10
7.7405
 20
100.0564
 30
0.0000
 40
11.5000
 50
90.0000
 51
208.2175
  0
LINE
  8
45
 10
7.7405
 20
111.5564
 30
0.0000
 11
15.3905
 21
111.5564
 31
0.0000
  0
LINE
  8
45
 10
15.3905
 20
111.5564
 30
0.0000
 11
15.3905
 21
114.8064
 31
0.0000
  0
LINE
  8
45
 10
18.3905
 20
105.5564
 30
0.0000
 11
18.3905
 21
114.8064
 31
0.0000
  0
LINE
  8
45
 10
18.3905
 20
105.5564
 30
0.0000
 11
25.2905
 21
105.5564
 31
0.0000
  0
LINE
  8
45
 10
25.2905
 20
105.5564
 30
0.0000
 11
25.2905
 21
114.8064
 31
0.0000
  0
LINE
  8
45
 10
28.2905
 20
111.5564
 30
0.0000
 11
28.2905
 21
114.8064
 31
0.0000
  0
LINE
  8
45
 10
28.2905
 20
111.5564
 30
0.0000
 11
35.9405
 21
111.5564
 31
0.0000
  0
ARC
  8
45
 10
35.9405
 20
100.0564
 30
0.0000
 40
11.5000
 50
331.7825
 51
90.0000
  0
LINE
  8
45
 10
28.2905
 20
116.8064
 30
0.0000
 11
28.2905
 21
114.8064
 31
0.0000
  0
LINE
  8
45
 10
25.2905
 20
114.8064
 30
0.0000
 11
25.2905
 21
116.8064
 31
0.0000
  0
LINE
  8
45
 10
15.3905
 20
114.8064
 30
0.0000
 11
15.3905
 21
116.8064
 31
0.0000
  0
LINE
  8
45
 10
18.3905
 20
116.8064
 30
0.0000
 11
18.3905
 21
114.8064
 31
0.0000
  0
LINE
  8
45
 10
3.8405
 20
12.0564
 30
0.0000
 11
3.8405
 21
1.4064
 31
0.0000
  0
LINE
  8
45
 10
39.8405
 20
1.4064
 30
0.0000
 11
39.8405
 21
9.5164
 31
0.0000
  0
LINE
  8
45
 10
3.8405
 20
1.4064
 30
0.0000
 11
3.8405
 21
-5.2936
 31
0.0000
  0
LINE
  8
45
 10
39.8405
 20
-5.2936
 30
0.0000
 11
39.8405
 21
1.4064
 31
0.0000
  0
LINE
  8
45
 10
3.8405
 20
-5.5936
 30
0.0000
 11
3.8405
 21
-5.2936
 31
0.0000
  0
LINE
  8
45
 10
39.8405
 20
-5.5936
 30
0.0000
 11
39.8405
 21
-5.2936
 31
0.0000
  0
LINE
  8
45
 10
39.8405
 20
-5.5936
 30
0.0000
 11
3.8405
 21
-5.5936
 31
0.0000
  0
LINE
  8
45
 10
3.8405
 20
77.4785
 30
0.0000
 11
3.8405
 21
43.7564
 31
0.0000
  0
ARC
  8
45
 10
4.6905
 20
87.6564
 30
0.0000
 40
1.5000
 50
255.0001
 51
195.0000
  0
ARC
  8
45
 10
37.8405
 20
66.9564
 30
0.0000
 40
1.5000
 50
255.0001
 51
195.0000
  0
ARC
  8
45
 10
38.9905
 20
87.6564
 30
0.0000
 40
1.5000
 50
255.0001
 51
195.0000
  0
POLYLINE
  8
45
 66
1
 10
0.0000
 20
0.0000
 30
0.0000
 40
1.2500
 41
1.2500
 70
0
  0
VERTEX
  8
45
 10
4.6905
 20
87.0314
 30
0.0000
 42
1.0000
  0
VERTEX
  8
45
 10
4.6905
 20
88.2814
 30
0.0000
 42
1.0000
  0
VERTEX
  8
45
 10
4.6905
 20
87.0314
 30
0.0000
  0
SEQEND
  8
0
  0
POLYLINE
  8
45
 66
1
 10
0.0000
 20
0.0000
 30
0.0000
 40
1.2500
 41
1.2500
 70
0
  0
VERTEX
  8
45
 10
37.8405
 20
66.3314
 30
0.0000
 42
1.0000
  0
VERTEX
  8
45
 10
37.8405
 20
67.5814
 30
0.0000
 42
1.0000
  0
VERTEX
  8
45
 10
37.8405
 20
66.3314
 30
0.0000
  0
SEQEND
  8
0
  0
POLYLINE
  8
45
 66
1
 10
0.0000
 20
0.0000
 30
0.0000
 40
1.2500
 41
1.2500
 70
0
  0
VERTEX
  8
45
 10
38.9905
 20
87.0314
 30
0.0000
 42
1.0000
  0
VERTEX
  8
45
 10
38.9905
 20
88.2814
 30
0.0000
 42
1.0000
  0
VERTEX
  8
45
 10
38.9905
 20
87.0314
 30
0.0000
  0
SEQEND
  8
0
  0
POLYLINE
  8
45
 66
1
 10
0.0000
 20
0.0000
 30
0.0000
 40
1.2500
 41
1.2500
 70
0
  0
VERTEX
  8
45
 10
13.3405
 20
5.6814
 30
0.0000
 42
1.0000
  0
VERTEX
  8
45
 10
13.3405
 20
6.9314
 30
0.0000
 42
1.0000
  0
VERTEX
  8
45
 10
13.3405
 20
5.6814
 30
0.0000
  0
SEQEND
  8
0
  0
POLYLINE
  8
45
 66
1
 10
0.0000
 20
0.0000
 30
0.0000
 40
1.2500
 41
1.2500
 70
0
  0
VERTEX
  8
45
 10
30.3405
 20
5.6814
 30
0.0000
 42
1.0000
  0
VERTEX
  8
45
 10
30.3405
 20
6.9314
 30
0.0000
 42
1.0000
  0
VERTEX
  8
45
 10
30.3405
 20
5.6814
 30
0.0000
  0
SEQEND
  8
0
  0
INSERT
  8
17
  2
LONGP100
 10
34.5405
 20
97.1550
 30
0.0000
 41
1.8796
 42
1.8796
 43
1.0000
 50
270.0000
  0
INSERT
  8
17
  2
LONGP100
 10
34.5405
 20
97.1550
 30
0.0000
 41
1.8796
 42
1.8796
 43
1.0000
 50
270.0000
  0
INSERT
  8
17
  2
LONGP100
 10
32.0005
 20
97.1550
 30
0.0000
 41
1.8796
 42
1.8796
 43
1.0000
 50
270.0000
  0
INSERT
  8
17
  2
LONGP100
 10
32.0005
 20
97.1550
 30
0.0000
 41
1.8796
 42
1.8796
 43
1.0000
 50
270.0000
  0
INSERT
  8
17
  2
LONGP100
 10
29.4605
 20
97.1550
 30
0.0000
 41
1.8796
 42
1.8796
 43
1.0000
 50
270.0000
  0
INSERT
  8
17
  2
LONGP100
 10
29.4605
 20
97.1550
 30
0.0000
 41
1.8796
 42
1.8796
 43
1.0000
 50
270.0000
  0
INSERT
  8
17
  2
LONGP100
 10
26.9205
 20
97.1550
 30
0.0000
 41
1.8796
 42
1.8796
 43
1.0000
 50
270.0000
  0
INSERT
  8
17
  2
LONGP100
 10
26.9205
 20
97.1550
 30
0.0000
 41
1.8796
 42
1.8796
 43
1.0000
 50
270.0000
  0
INSERT
  8
17
  2
LONGP100
 10
24.3805
 20
97.1550
 30
0.0000
 41
1.8796
 42
1.8796
 43
1.0000
 50
270.0000
  0
INSERT
  8
17
  2
LONGP100
 10
24.3805
 20
97.1550
 30
0.0000
 41
1.8796
 42
1.8796
 43
1.0000
 50
270.0000
  0
INSERT
  8
17
  2
LONGP100
 10
21.8405
 20
97.1550
 30
0.0000
 41
1.8796
 42
1.8796
 43
1.0000
 50
270.0000
  0
INSERT
  8
17
  2
LONGP100
 10
21.8405
 20
97.1550
 30
0.0000
 41
1.8796
 42
1.8796
 43
1.0000
 50
270.0000
  0
INSERT
  8
17
  2
LONGP100
 10
19.3005
 20
97.1550
 30
0.0000
 41
1.8796
 42
1.8796
 43
1.0000
 50
270.0000
  0
INSERT
  8
17
  2
LONGP100
 10
19.3005
 20
97.1550
 30
0.0000
 41
1.8796
 42
1.8796
 43
1.0000
 50
270.0000
  0
INSERT
  8
17
  2
LONGP100
 10
16.7605
 20
97.1550
 30
0.0000
 41
1.8796
 42
1.8796
 43
1.0000
 50
270.0000
  0
INSERT
  8
17
  2
LONGP100
 10
16.7605
 20
97.1550
 30
0.0000
 41
1.8796
 42
1.8796
 43
1.0000
 50
270.0000
  0
INSERT
  8
17
  2
LONGP100
 10
14.2205
 20
97.1550
 30
0.0000
 41
1.8796
 42
1.8796
 43
1.0000
 50
270.0000
  0
INSERT
  8
17
  2
LONGP100
 10
14.2205
 20
97.1550
 30
0.0000
 41
1.8796
 42
1.8796
 43
1.0000
 50
270.0000
  0
INSERT
  8
17
  2
LONGP100
 10
11.6805
 20
97.1550
 30
0.0000
 41
1.8796
 42
1.8796
 43
1.0000
 50
270.0000
  0
INSERT
  8
17
  2
LONGP100
 10
11.6805
 20
97.1550
 30
0.0000
 41
1.8796
 42
1.8796
 43
1.0000
 50
270.0000
  0
INSERT
  8
17
  2
LONGP100
 10
9.1405
 20
97.1550
 30
0.0000
 41
1.8796
 42
1.8796
 43
1.0000
 50
270.0000
  0
INSERT
  8
17
  2
LONGP100
 10
9.1405
 20
97.1550
 30
0.0000
 41
1.8796
 42
1.8796
 43
1.0000
 50
270.0000
  0
INSERT
  8
17
  2
LONGP100
 10
31.4325
 20
78.1050
 30
0.0000
 41
1.8796
 42
1.8796
 43
1.0000
 50
180.0000
  0
INSERT
  8
17
  2
LONGP100
 10
31.4325
 20
78.1050
 30
0.0000
 41
1.8796
 42
1.8796
 43
1.0000
 50
180.0000
  0
INSERT
  8
17
  2
LONGP100
 10
31.4325
 20
80.6450
 30
0.0000
 41
1.8796
 42
1.8796
 43
1.0000
 50
180.0000
  0
INSERT
  8
17
  2
LONGP100
 10
31.4325
 20
80.6450
 30
0.0000
 41
1.8796
 42
1.8796
 43
1.0000
 50
180.0000
  0
INSERT
  8
17
  2
LONGP100
 10
31.4325
 20
83.1850
 30
0.0000
 41
1.8796
 42
1.8796
 43
1.0000
 50
180.0000
  0
INSERT
  8
17
  2
LONGP100
 10
31.4325
 20
83.1850
 30
0.0000
 41
1.8796
 42
1.8796
 43
1.0000
 50
180.0000
  0
INSERT
  8
17
  2
LONGP100
 10
31.4325
 20
85.7250
 30
0.0000
 41
1.8796
 42
1.8796
 43
1.0000
 50
180.0000
  0
INSERT
  8
17
  2
LONGP100
 10
31.4325
 20
85.7250
 30
0.0000
 41
1.8796
 42
1.8796
 43
1.0000
 50
180.0000
  0
INSERT
  8
17
  2
LONGP100
 10
31.4325
 20
88.2650
 30
0.0000
 41
1.8796
 42
1.8796
 43
1.0000
 50
180.0000
  0
INSERT
  8
17
  2
LONGP100
 10
31.4325
 20
88.2650
 30
0.0000
 41
1.8796
 42
1.8796
 43
1.0000
 50
180.0000
  0
INSERT
  8
17
  2
LONGP100
 10
31.4325
 20
90.8050
 30
0.0000
 41
1.8796
 42
1.8796
 43
1.0000
 50
180.0000
  0
INSERT
  8
17
  2
LONGP100
 10
31.4325
 20
90.8050
 30
0.0000
 41
1.8796
 42
1.8796
 43
1.0000
 50
180.0000
  0
INSERT
  8
17
  2
LONGP100
 10
6.0325
 20
60.6425
 30
0.0000
 41
1.8796
 42
1.8796
 43
1.0000
 50
90.0000
  0
INSERT
  8
17
  2
LONGP100
 10
6.0325
 20
60.6425
 30
0.0000
 41
1.8796
 42
1.8796
 43
1.0000
 50
90.0000
  0
INSERT
  8
17
  2
LONGP100
 10
8.5725
 20
60.6425
 30
0.0000
 41
1.8796
 42
1.8796
 43
1.0000
 50
90.0000
  0
INSERT
  8
17
  2
LONGP100
 10
8.5725
 20
60.6425
 30
0.0000
 41
1.8796
 42
1.8796
 43
1.0000
 50
90.0000
  0
INSERT
  8
17
  2
LONGP100
 10
11.1125
 20
60.6425
 30
0.0000
 41
1.8796
 42
1.8796
 43
1.0000
 50
90.0000
  0
INSERT
  8
17
  2
LONGP100
 10
11.1125
 20
60.6425
 30
0.0000
 41
1.8796
 42
1.8796
 43
1.0000
 50
90.0000
  0
INSERT
  8
17
  2
LONGP100
 10
13.6525
 20
60.6425
 30
0.0000
 41
1.8796
 42
1.8796
 43
1.0000
 50
90.0000
  0
INSERT
  8
17
  2
LONGP100
 10
13.6525
 20
60.6425
 30
0.0000
 41
1.8796
 42
1.8796
 43
1.0000
 50
90.0000
  0
INSERT
  8
17
  2
LONGP100
 10
16.1925
 20
60.6425
 30
0.0000
 41
1.8796
 42
1.8796
 43
1.0000
 50
90.0000
  0
INSERT
  8
17
  2
LONGP100
 10
16.1925
 20
60.6425
 30
0.0000
 41
1.8796
 42
1.8796
 43
1.0000
 50
90.0000
  0
INSERT
  8
17
  2
LONGP100
 10
18.7325
 20
60.6425
 30
0.0000
 41
1.8796
 42
1.8796
 43
1.0000
 50
90.0000
  0
INSERT
  8
17
  2
LONGP100
 10
18.7325
 20
60.6425
 30
0.0000
 41
1.8796
 42
1.8796
 43
1.0000
 50
90.0000
  0
INSERT
  8
17
  2
LONGP100
 10
18.7325
 20
90.8050
 30
0.0000
 41
1.8796
 42
1.8796
 43
1.0000
 50
0.0000
  0
INSERT
  8
17
  2
LONGP100
 10
18.7325
 20
90.8050
 30
0.0000
 41
1.8796
 42
1.8796
 43
1.0000
 50
0.0000
  0
INSERT
  8
17
  2
LONGP100
 10
18.7325
 20
88.2650
 30
0.0000
 41
1.8796
 42
1.8796
 43
1.0000
 50
0.0000
  0
INSERT
  8
17
  2
LONGP100
 10
18.7325
 20
88.2650
 30
0.0000
 41
1.8796
 42
1.8796
 43
1.0000
 50
0.0000
  0
INSERT
  8
17
  2
LONGP100
 10
18.7325
 20
85.7250
 30
0.0000
 41
1.8796
 42
1.8796
 43
1.0000
 50
0.0000
  0
INSERT
  8
17
  2
LONGP100
 10
18.7325
 20
85.7250
 30
0.0000
 41
1.8796
 42
1.8796
 43
1.0000
 50
0.0000
  0
INSERT
  8
17
  2
LONGP100
 10
18.7325
 20
83.1850
 30
0.0000
 41
1.8796
 42
1.8796
 43
1.0000
 50
0.0000
  0
INSERT
  8
17
  2
LONGP100
 10
18.7325
 20
83.1850
 30
0.0000
 41
1.8796
 42
1.8796
 43
1.0000
 50
0.0000
  0
INSERT
  8
17
  2
LONGP100
 10
18.7325
 20
80.6450
 30
0.0000
 41
1.8796
 42
1.8796
 43
1.0000
 50
0.0000
  0
INSERT
  8
17
  2
LONGP100
 10
18.7325
 20
80.6450
 30
0.0000
 41
1.8796
 42
1.8796
 43
1.0000
 50
0.0000
  0
INSERT
  8
17
  2
LONGP100
 10
18.7325
 20
78.1050
 30
0.0000
 41
1.8796
 42
1.8796
 43
1.0000
 50
0.0000
  0
INSERT
  8
17
  2
LONGP100
 10
18.7325
 20
78.1050
 30
0.0000
 41
1.8796
 42
1.8796
 43
1.0000
 50
0.0000
  0
INSERT
  8
17
  2
LONGP100
 10
6.0325
 20
3.4925
 30
0.0000
 41
1.5240
 42
1.5240
 43
1.0000
 50
90.0000
  0
INSERT
  8
17
  2
LONGP100
 10
6.0325
 20
3.4925
 30
0.0000
 41
1.5240
 42
1.5240
 43
1.0000
 50
90.0000
  0
INSERT
  8
17
  2
LONGP100
 10
8.5725
 20
3.4925
 30
0.0000
 41
1.5240
 42
1.5240
 43
1.0000
 50
90.0000
  0
INSERT
  8
17
  2
LONGP100
 10
8.5725
 20
3.4925
 30
0.0000
 41
1.5240
 42
1.5240
 43
1.0000
 50
90.0000
  0
INSERT
  8
17
  2
LONGP100
 10
11.1125
 20
3.4925
 30
0.0000
 41
1.5240
 42
1.5240
 43
1.0000
 50
90.0000
  0
INSERT
  8
17
  2
LONGP100
 10
11.1125
 20
3.4925
 30
0.0000
 41
1.5240
 42
1.5240
 43
1.0000
 50
90.0000
  0
INSERT
  8
17
  2
LONGP100
 10
13.6525
 20
3.4925
 30
0.0000
 41
1.5240
 42
1.5240
 43
1.0000
 50
90.0000
  0
INSERT
  8
17
  2
LONGP100
 10
13.6525
 20
3.4925
 30
0.0000
 41
1.5240
 42
1.5240
 43
1.0000
 50
90.0000
  0
INSERT
  8
17
  2
LONGP100
 10
16.1925
 20
3.4925
 30
0.0000
 41
1.5240
 42
1.5240
 43
1.0000
 50
90.0000
  0
INSERT
  8
17
  2
LONGP100
 10
16.1925
 20
3.4925
 30
0.0000
 41
1.5240
 42
1.5240
 43
1.0000
 50
90.0000
  0
INSERT
  8
17
  2
LONGP100
 10
18.7325
 20
3.4925
 30
0.0000
 41
1.5240
 42
1.5240
 43
1.0000
 50
90.0000
  0
INSERT
  8
17
  2
LONGP100
 10
18.7325
 20
3.4925
 30
0.0000
 41
1.5240
 42
1.5240
 43
1.0000
 50
90.0000
  0
INSERT
  8
17
  2
LONGP100
 10
21.2725
 20
3.4925
 30
0.0000
 41
1.5240
 42
1.5240
 43
1.0000
 50
90.0000
  0
INSERT
  8
17
  2
LONGP100
 10
21.2725
 20
3.4925
 30
0.0000
 41
1.5240
 42
1.5240
 43
1.0000
 50
90.0000
  0
INSERT
  8
17
  2
LONGP100
 10
23.8125
 20
3.4925
 30
0.0000
 41
1.5240
 42
1.5240
 43
1.0000
 50
90.0000
  0
INSERT
  8
17
  2
LONGP100
 10
23.8125
 20
3.4925
 30
0.0000
 41
1.5240
 42
1.5240
 43
1.0000
 50
90.0000
  0
INSERT
  8
17
  2
LONGP100
 10
26.3525
 20
3.4925
 30
0.0000
 41
1.5240
 42
1.5240
 43
1.0000
 50
90.0000
  0
INSERT
  8
17
  2
LONGP100
 10
26.3525
 20
3.4925
 30
0.0000
 41
1.5240
 42
1.5240
 43
1.0000
 50
90.0000
  0
INSERT
  8
17
  2
LONGP100
 10
28.8925
 20
3.4925
 30
0.0000
 41
1.5240
 42
1.5240
 43
1.0000
 50
90.0000
  0
INSERT
  8
17
  2
LONGP100
 10
28.8925
 20
3.4925
 30
0.0000
 41
1.5240
 42
1.5240
 43
1.0000
 50
90.0000
  0
INSERT
  8
17
  2
LONGP100
 10
31.4325
 20
3.4925
 30
0.0000
 41
1.5240
 42
1.5240
 43
1.0000
 50
90.0000
  0
INSERT
  8
17
  2
LONGP100
 10
31.4325
 20
3.4925
 30
0.0000
 41
1.5240
 42
1.5240
 43
1.0000
 50
90.0000
  0
INSERT
  8
17
  2
LONGP100
 10
33.9725
 20
3.4925
 30
0.0000
 41
1.5240
 42
1.5240
 43
1.0000
 50
90.0000
  0
INSERT
  8
17
  2
LONGP100
 10
33.9725
 20
3.4925
 30
0.0000
 41
1.5240
 42
1.5240
 43
1.0000
 50
90.0000
  0
INSERT
  8
17
  2
LONGP100
 10
36.5125
 20
3.4925
 30
0.0000
 41
1.5240
 42
1.5240
 43
1.0000
 50
90.0000
  0
INSERT
  8
17
  2
LONGP100
 10
36.5125
 20
3.4925
 30
0.0000
 41
1.5240
 42
1.5240
 43
1.0000
 50
90.0000
  0
POLYLINE
  8
1
 66
1
 10
0.0000
 20
0.0000
 30
0.0000
 40
0.8128
 41
0.8128
 70
0
  0
VERTEX
  8
1
 10
23.8125
 20
3.4925
 30
0.0000
  0
VERTEX
  8
1
 10
23.8125
 20
9.8425
 30
0.0000
  0
SEQEND
  8
0
  0
POLYLINE
  8
1
 66
1
 10
0.0000
 20
0.0000
 30
0.0000
 40
0.4064
 41
0.4064
 70
0
  0
VERTEX
  8
1
 10
24.0157
 20
9.8425
 30
0.0000
 42
1.0000
  0
VERTEX
  8
1
 10
23.6093
 20
9.8425
 30
0.0000
  0
SEQEND
  8
0
  0
POLYLINE
  8
1
 66
1
 10
0.0000
 20
0.0000
 30
0.0000
 40
0.4064
 41
0.4064
 70
0
  0
VERTEX
  8
1
 10
23.6093
 20
3.4925
 30
0.0000
 42
1.0000
  0
VERTEX
  8
1
 10
24.0157
 20
3.4925
 30
0.0000
  0
SEQEND
  8
0
  0
POLYLINE
  8
1
 66
1
 10
0.0000
 20
0.0000
 30
0.0000
 40
0.8128
 41
0.8128
 70
0
  0
VERTEX
  8
1
 10
23.8125
 20
9.8425
 30
0.0000
  0
VERTEX
  8
1
 10
23.8125
 20
11.1125
 30
0.0000
  0
SEQEND
  8
0
  0
POLYLINE
  8
1
 66
1
 10
0.0000
 20
0.0000
 30
0.0000
 40
0.4064
 41
0.4064
 70
0
  0
VERTEX
  8
1
 10
24.0157
 20
11.1125
 30
0.0000
 42
1.0000
  0
VERTEX
  8
1
 10
23.6093
 20
11.1125
 30
0.0000
  0
SEQEND
  8
0
  0
POLYLINE
  8
1
 66
1
 10
0.0000
 20
0.0000
 30
0.0000
 40
0.4064
 41
0.4064
 70
0
  0
VERTEX
  8
1
 10
23.6093
 20
9.8425
 30
0.0000
 42
1.0000
  0
VERTEX
  8
1
 10
24.0157
 20
9.8425
 30
0.0000
  0
SEQEND
  8
0
  0
POLYLINE
  8
1
 66
1
 10
0.0000
 20
0.0000
 30
0.0000
 40
0.8128
 41
0.8128
 70
0
  0
VERTEX
  8
1
 10
23.8125
 20
11.1125
 30
0.0000
  0
VERTEX
  8
1
 10
18.7325
 20
14.9225
 30
0.0000
  0
SEQEND
  8
0
  0
POLYLINE
  8
1
 66
1
 10
0.0000
 20
0.0000
 30
0.0000
 40
0.4064
 41
0.4064
 70
0
  0
VERTEX
  8
1
 10
18.8544
 20
15.0851
 30
0.0000
 42
1.0000
  0
VERTEX
  8
1
 10
18.6106
 20
14.7599
 30
0.0000
  0
SEQEND
  8
0
  0
POLYLINE
  8
1
 66
1
 10
0.0000
 20
0.0000
 30
0.0000
 40
0.4064
 41
0.4064
 70
0
  0
VERTEX
  8
1
 10
23.6906
 20
10.9499
 30
0.0000
 42
1.0000
  0
VERTEX
  8
1
 10
23.9344
 20
11.2751
 30
0.0000
  0
SEQEND
  8
0
  0
POLYLINE
  8
1
 66
1
 10
0.0000
 20
0.0000
 30
0.0000
 40
0.8128
 41
0.8128
 70
0
  0
VERTEX
  8
1
 10
18.7325
 20
14.9225
 30
0.0000
  0
VERTEX
  8
1
 10
18.0975
 20
15.5575
 30
0.0000
  0
SEQEND
  8
0
  0
POLYLINE
  8
1
 66
1
 10
0.0000
 20
0.0000
 30
0.0000
 40
0.4064
 41
0.4064
 70
0
  0
VERTEX
  8
1
 10
18.2412
 20
15.7012
 30
0.0000
 42
1.0000
  0
VERTEX
  8
1
 10
17.9538
 20
15.4138
 30
0.0000
  0
SEQEND
  8
0
  0
POLYLINE
  8
1
 66
1
 10
0.0000
 20
0.0000
 30
0.0000
 40
0.4064
 41
0.4064
 70
0
  0
VERTEX
  8
1
 10
18.5888
 20
14.7788
 30
0.0000
 42
1.0000
  0
VERTEX
  8
1
 10
18.8762
 20
15.0662
 30
0.0000
  0
SEQEND
  8
0
  0
POLYLINE
  8
1
 66
1
 10
0.0000
 20
0.0000
 30
0.0000
 40
0.8128
 41
0.8128
 70
0
  0
VERTEX
  8
1
 10
18.7325
 20
65.0875
 30
0.0000
  0
VERTEX
  8
1
 10
11.1125
 20
73.3425
 30
0.0000
  0
SEQEND
  8
0
  0
POLYLINE
  8
1
 66
1
 10
0.0000
 20
0.0000
 30
0.0000
 40
0.4064
 41
0.4064
 70
0
  0
VERTEX
  8
1
 10
11.2618
 20
73.4803
 30
0.0000
 42
1.0000
  0
VERTEX
  8
1
 10
10.9632
 20
73.2047
 30
0.0000
  0
SEQEND
  8
0
  0
POLYLINE
  8
1
 66
1
 10
0.0000
 20
0.0000
 30
0.0000
 40
0.4064
 41
0.4064
 70
0
  0
VERTEX
  8
1
 10
18.5832
 20
64.9497
 30
0.0000
 42
1.0000
  0
VERTEX
  8
1
 10
18.8818
 20
65.2253
 30
0.0000
  0
SEQEND
  8
0
  0
POLYLINE
  8
1
 66
1
 10
0.0000
 20
0.0000
 30
0.0000
 40
0.8128
 41
0.8128
 70
0
  0
VERTEX
  8
1
 10
11.1125
 20
73.3425
 30
0.0000
  0
VERTEX
  8
1
 10
11.1125
 20
93.6625
 30
0.0000
  0
SEQEND
  8
0
  0
POLYLINE
  8
1
 66
1
 10
0.0000
 20
0.0000
 30
0.0000
 40
0.4064
 41
0.4064
 70
0
  0
VERTEX
  8
1
 10
11.3157
 20
93.6625
 30
0.0000
 42
1.0000
  0
VERTEX
  8
1
 10
10.9093
 20
93.6625
 30
0.0000
  0
SEQEND
  8
0
  0
POLYLINE
  8
1
 66
1
 10
0.0000
 20
0.0000
 30
0.0000
 40
0.4064
 41
0.4064
 70
0
  0
VERTEX
  8
1
 10
10.9093
 20
73.3425
 30
0.0000
 42
1.0000
  0
VERTEX
  8
1
 10
11.3157
 20
73.3425
 30
0.0000
  0
SEQEND
  8
0
  0
POLYLINE
  8
16
 66
1
 10
0.0000
 20
0.0000
 30
0.0000
 40
0.8128
 41
0.8128
 70
0
  0
VERTEX
  8
16
 10
18.7325
 20
65.0875
 30
0.0000
  0
VERTEX
  8
16
 10
18.7325
 20
61.2775
 30
0.0000
  0
SEQEND
  8
0
  0
POLYLINE
  8
16
 66
1
 10
0.0000
 20
0.0000
 30
0.0000
 40
0.4064
 41
0.4064
 70
0
  0
VERTEX
  8
16
 10
18.5293
 20
61.2775
 30
0.0000
 42
1.0000
  0
VERTEX
  8
16
 10
18.9357
 20
61.2775
 30
0.0000
  0
SEQEND
  8
0
  0
POLYLINE
  8
16
 66
1
 10
0.0000
 20
0.0000
 30
0.0000
 40
0.4064
 41
0.4064
 70
0
  0
VERTEX
  8
16
 10
18.9357
 20
65.0875
 30
0.0000
 42
1.0000
  0
VERTEX
  8
16
 10
18.5293
 20
65.0875
 30
0.0000
  0
SEQEND
  8
0
  0
POLYLINE
  8
16
 66
1
 10
0.0000
 20
0.0000
 30
0.0000
 40
0.8128
 41
0.8128
 70
0
  0
VERTEX
  8
16
 10
18.7325
 20
61.2775
 30
0.0000
  0
VERTEX
  8
16
 10
18.0975
 20
60.3250
 30
0.0000
  0
SEQEND
  8
0
  0
POLYLINE
  8
16
 66
1
 10
0.0000
 20
0.0000
 30
0.0000
 40
0.4064
 41
0.4064
 70
0
  0
VERTEX
  8
16
 10
17.9284
 20
60.4377
 30
0.0000
 42
1.0000
  0
VERTEX
  8
16
 10
18.2666
 20
60.2123
 30
0.0000
  0
SEQEND
  8
0
  0
POLYLINE
  8
16
 66
1
 10
0.0000
 20
0.0000
 30
0.0000
 40
0.4064
 41
0.4064
 70
0
  0
VERTEX
  8
16
 10
18.9016
 20
61.1648
 30
0.0000
 42
1.0000
  0
VERTEX
  8
16
 10
18.5634
 20
61.3902
 30
0.0000
  0
SEQEND
  8
0
  0
POLYLINE
  8
16
 66
1
 10
0.0000
 20
0.0000
 30
0.0000
 40
0.8128
 41
0.8128
 70
0
  0
VERTEX
  8
16
 10
18.0975
 20
60.3250
 30
0.0000
  0
VERTEX
  8
16
 10
18.0975
 20
15.5575
 30
0.0000
  0
SEQEND
  8
0
  0
POLYLINE
  8
16
 66
1
 10
0.0000
 20
0.0000
 30
0.0000
 40
0.4064
 41
0.4064
 70
0
  0
VERTEX
  8
16
 10
17.8943
 20
15.5575
 30
0.0000
 42
1.0000
  0
VERTEX
  8
16
 10
18.3007
 20
15.5575
 30
0.0000
  0
SEQEND
  8
0
  0
POLYLINE
  8
16
 66
1
 10
0.0000
 20
0.0000
 30
0.0000
 40
0.4064
 41
0.4064
 70
0
  0
VERTEX
  8
16
 10
18.3007
 20
60.3250
 30
0.0000
 42
1.0000
  0
VERTEX
  8
16
 10
17.8943
 20
60.3250
 30
0.0000
  0
SEQEND
  8
0
  0
POLYLINE
  8
16
 66
1
 10
0.0000
 20
0.0000
 30
0.0000
 40
0.8128
 41
0.8128
 70
0
  0
VERTEX
  8
16
 10
11.1125
 20
93.6625
 30
0.0000
  0
VERTEX
  8
16
 10
11.6129
 20
94.3178
 30
0.0000
  0
SEQEND
  8
0
  0
POLYLINE
  8
16
 66
1
 10
0.0000
 20
0.0000
 30
0.0000
 40
0.4064
 41
0.4064
 70
0
  0
VERTEX
  8
16
 10
11.7744
 20
94.1945
 30
0.0000
 42
1.0000
  0
VERTEX
  8
16
 10
11.4514
 20
94.4411
 30
0.0000
  0
SEQEND
  8
0
  0
POLYLINE
  8
16
 66
1
 10
0.0000
 20
0.0000
 30
0.0000
 40
0.4064
 41
0.4064
 70
0
  0
VERTEX
  8
16
 10
10.9510
 20
93.7858
 30
0.0000
 42
1.0000
  0
VERTEX
  8
16
 10
11.2740
 20
93.5392
 30
0.0000
  0
SEQEND
  8
0
  0
POLYLINE
  8
16
 66
1
 10
0.0000
 20
0.0000
 30
0.0000
 40
0.8128
 41
0.8128
 70
0
  0
VERTEX
  8
16
 10
11.6129
 20
94.3178
 30
0.0000
  0
VERTEX
  8
16
 10
11.6805
 20
97.1550
 30
0.0000
  0
SEQEND
  8
0
  0
POLYLINE
  8
16
 66
1
 10
0.0000
 20
0.0000
 30
0.0000
 40
0.4064
 41
0.4064
 70
0
  0
VERTEX
  8
16
 10
11.8837
 20
97.1502
 30
0.0000
 42
1.0000
  0
VERTEX
  8
16
 10
11.4774
 20
97.1598
 30
0.0000
  0
SEQEND
  8
0
  0
POLYLINE
  8
16
 66
1
 10
0.0000
 20
0.0000
 30
0.0000
 40
0.4064
 41
0.4064
 70
0
  0
VERTEX
  8
16
 10
11.4097
 20
94.3227
 30
0.0000
 42
1.0000
  0
VERTEX
  8
16
 10
11.8160
 20
94.3130
 30
0.0000
  0
SEQEND
  8
0
  0
INSERT
  8
18
  2
ROUNDV
 10
18.0975
 20
15.5575
 30
0.0000
 41
1.6764
 42
1.6764
 43
1.0000
 50
0.0000
  0
INSERT
  8
18
  2
ROUNDV
 10
18.0975
 20
15.5575
 30
0.0000
 41
1.6764
 42
1.6764
 43
1.0000
 50
0.0000
  0
INSERT
  8
18
  2
ROUNDV
 10
18.7325
 20
65.0875
 30
0.0000
 41
1.6764
 42
1.6764
 43
1.0000
 50
0.0000
  0
INSERT
  8
18
  2
ROUNDV
 10
18.7325
 20
65.0875
 30
0.0000
 41
1.6764
 42
1.6764
 43
1.0000
 50
0.0000
  0
INSERT
  8
18
  2
ROUNDV
 10
11.1125
 20
93.6625
 30
0.0000
 41
1.6764
 42
1.6764
 43
1.0000
 50
0.0000
  0
INSERT
  8
18
  2
ROUNDV
 10
11.1125
 20
93.6625
 30
0.0000
 41
1.6764
 42
1.6764
 43
1.0000
 50
0.0000
  0
POLYLINE
  8
1
 66
1
 10
0.0000
 20
0.0000
 30
0.0000
 40
1.0160
 41
1.0160
 70
0
  0
VERTEX
  8
1
 10
11.1125
 20
3.4925
 30
0.0000
  0
VERTEX
  8
1
 10
11.1125
 20
60.6425
 30
0.0000
  0
SEQEND
  8
0
  0
POLYLINE
  8
1
 66
1
 10
0.0000
 20
0.0000
 30
0.0000
 40
0.5080
 41
0.5080
 70
0
  0
VERTEX
  8
1
 10
11.3665
 20
60.6425
 30
0.0000
 42
1.0000
  0
VERTEX
  8
1
 10
10.8585
 20
60.6425
 30
0.0000
  0
SEQEND
  8
0
  0
POLYLINE
  8
1
 66
1
 10
0.0000
 20
0.0000
 30
0.0000
 40
0.5080
 41
0.5080
 70
0
  0
VERTEX
  8
1
 10
10.8585
 20
3.4925
 30
0.0000
 42
1.0000
  0
VERTEX
  8
1
 10
11.3665
 20
3.4925
 30
0.0000
  0
SEQEND
  8
0
  0
POLYLINE
  8
1
 66
1
 10
0.0000
 20
0.0000
 30
0.0000
 40
1.0160
 41
1.0160
 70
0
  0
VERTEX
  8
1
 10
11.1125
 20
60.6425
 30
0.0000
  0
VERTEX
  8
1
 10
11.1125
 20
62.5475
 30
0.0000
  0
SEQEND
  8
0
  0
POLYLINE
  8
1
 66
1
 10
0.0000
 20
0.0000
 30
0.0000
 40
0.5080
 41
0.5080
 70
0
  0
VERTEX
  8
1
 10
11.3665
 20
62.5475
 30
0.0000
 42
1.0000
  0
VERTEX
  8
1
 10
10.8585
 20
62.5475
 30
0.0000
  0
SEQEND
  8
0
  0
POLYLINE
  8
1
 66
1
 10
0.0000
 20
0.0000
 30
0.0000
 40
0.5080
 41
0.5080
 70
0
  0
VERTEX
  8
1
 10
10.8585
 20
60.6425
 30
0.0000
 42
1.0000
  0
VERTEX
  8
1
 10
11.3665
 20
60.6425
 30
0.0000
  0
SEQEND
  8
0
  0
POLYLINE
  8
1
 66
1
 10
0.0000
 20
0.0000
 30
0.0000
 40
1.0160
 41
1.0160
 70
0
  0
VERTEX
  8
1
 10
11.1125
 20
62.5475
 30
0.0000
  0
VERTEX
  8
1
 10
11.1125
 20
63.1825
 30
0.0000
  0
SEQEND
  8
0
  0
POLYLINE
  8
1
 66
1
 10
0.0000
 20
0.0000
 30
0.0000
 40
0.5080
 41
0.5080
 70
0
  0
VERTEX
  8
1
 10
11.3665
 20
63.1825
 30
0.0000
 42
1.0000
  0
VERTEX
  8
1
 10
10.8585
 20
63.1825
 30
0.0000
  0
SEQEND
  8
0
  0
POLYLINE
  8
1
 66
1
 10
0.0000
 20
0.0000
 30
0.0000
 40
0.5080
 41
0.5080
 70
0
  0
VERTEX
  8
1
 10
10.8585
 20
62.5475
 30
0.0000
 42
1.0000
  0
VERTEX
  8
1
 10
11.3665
 20
62.5475
 30
0.0000
  0
SEQEND
  8
0
  0
POLYLINE
  8
16
 66
1
 10
0.0000
 20
0.0000
 30
0.0000
 40
1.0160
 41
1.0160
 70
0
  0
VERTEX
  8
16
 10
11.1125
 20
63.1825
 30
0.0000
  0
VERTEX
  8
16
 10
11.1125
 20
66.9925
 30
0.0000
  0
SEQEND
  8
0
  0
POLYLINE
  8
16
 66
1
 10
0.0000
 20
0.0000
 30
0.0000
 40
0.5080
 41
0.5080
 70
0
  0
VERTEX
  8
16
 10
11.3665
 20
66.9925
 30
0.0000
 42
1.0000
  0
VERTEX
  8
16
 10
10.8585
 20
66.9925
 30
0.0000
  0
SEQEND
  8
0
  0
POLYLINE
  8
16
 66
1
 10
0.0000
 20
0.0000
 30
0.0000
 40
0.5080
 41
0.5080
 70
0
  0
VERTEX
  8
16
 10
10.8585
 20
63.1825
 30
0.0000
 42
1.0000
  0
VERTEX
  8
16
 10
11.3665
 20
63.1825
 30
0.0000
  0
SEQEND
  8
0
  0
POLYLINE
  8
16
 66
1
 10
0.0000
 20
0.0000
 30
0.0000
 40
1.0160
 41
1.0160
 70
0
  0
VERTEX
  8
16
 10
11.1125
 20
66.9925
 30
0.0000
  0
VERTEX
  8
16
 10
28.8925
 20
78.1050
 30
0.0000
  0
SEQEND
  8
0
  0
POLYLINE
  8
16
 66
1
 10
0.0000
 20
0.0000
 30
0.0000
 40
0.5080
 41
0.5080
 70
0
  0
VERTEX
  8
16
 10
29.0271
 20
77.8896
 30
0.0000
 42
1.0000
  0
VERTEX
  8
16
 10
28.7579
 20
78.3204
 30
0.0000
  0
SEQEND
  8
0
  0
POLYLINE
  8
16
 66
1
 10
0.0000
 20
0.0000
 30
0.0000
 40
0.5080
 41
0.5080
 70
0
  0
VERTEX
  8
16
 10
10.9779
 20
67.2079
 30
0.0000
 42
1.0000
  0
VERTEX
  8
16
 10
11.2471
 20
66.7771
 30
0.0000
  0
SEQEND
  8
0
  0
POLYLINE
  8
16
 66
1
 10
0.0000
 20
0.0000
 30
0.0000
 40
1.0160
 41
1.0160
 70
0
  0
VERTEX
  8
16
 10
28.8925
 20
78.1050
 30
0.0000
  0
VERTEX
  8
16
 10
31.4325
 20
78.1050
 30
0.0000
  0
SEQEND
  8
0
  0
POLYLINE
  8
16
 66
1
 10
0.0000
 20
0.0000
 30
0.0000
 40
0.5080
 41
0.5080
 70
0
  0
VERTEX
  8
16
 10
31.4325
 20
77.8510
 30
0.0000
 42
1.0000
  0
VERTEX
  8
16
 10
31.4325
 20
78.3590
 30
0.0000
  0
SEQEND
  8
0
  0
POLYLINE
  8
16
 66
1
 10
0.0000
 20
0.0000
 30
0.0000
 40
0.5080
 41
0.5080
 70
0
  0
VERTEX
  8
16
 10
28.8925
 20
78.3590
 30
0.0000
 42
1.0000
  0
VERTEX
  8
16
 10
28.8925
 20
77.8510
 30
0.0000
  0
SEQEND
  8
0
  0
INSERT
  8
18
  2
ROUNDV
 10
11.1125
 20
63.1825
 30
0.0000
 41
1.6764
 42
1.6764
 43
1.0000
 50
0.0000
  0
INSERT
  8
18
  2
ROUNDV
 10
11.1125
 20
63.1825
 30
0.0000
 41
1.6764
 42
1.6764
 43
1.0000
 50
0.0000
  0
POLYLINE
  8
1
 66
1
 10
0.0000
 20
0.0000
 30
0.0000
 40
1.2700
 41
1.2700
 70
0
  0
VERTEX
  8
1
 10
6.0325
 20
3.4925
 30
0.0000
  0
VERTEX
  8
1
 10
6.0325
 20
9.8425
 30
0.0000
  0
SEQEND
  8
0
  0
POLYLINE
  8
1
 66
1
 10
0.0000
 20
0.0000
 30
0.0000
 40
0.6350
 41
0.6350
 70
0
  0
VERTEX
  8
1
 10
6.3500
 20
9.8425
 30
0.0000
 42
1.0000
  0
VERTEX
  8
1
 10
5.7150
 20
9.8425
 30
0.0000
  0
SEQEND
  8
0
  0
POLYLINE
  8
1
 66
1
 10
0.0000
 20
0.0000
 30
0.0000
 40
0.6350
 41
0.6350
 70
0
  0
VERTEX
  8
1
 10
5.7150
 20
3.4925
 30
0.0000
 42
1.0000
  0
VERTEX
  8
1
 10
6.3500
 20
3.4925
 30
0.0000
  0
SEQEND
  8
0
  0
POLYLINE
  8
1
 66
1
 10
0.0000
 20
0.0000
 30
0.0000
 40
1.2700
 41
1.2700
 70
0
  0
VERTEX
  8
1
 10
6.0325
 20
9.8425
 30
0.0000
  0
VERTEX
  8
1
 10
7.3025
 20
11.1125
 30
0.0000
  0
SEQEND
  8
0
  0
POLYLINE
  8
1
 66
1
 10
0.0000
 20
0.0000
 30
0.0000
 40
0.6350
 41
0.6350
 70
0
  0
VERTEX
  8
1
 10
7.5270
 20
10.8880
 30
0.0000
 42
1.0000
  0
VERTEX
  8
1
 10
7.0780
 20
11.3370
 30
0.0000
  0
SEQEND
  8
0
  0
POLYLINE
  8
1
 66
1
 10
0.0000
 20
0.0000
 30
0.0000
 40
0.6350
 41
0.6350
 70
0
  0
VERTEX
  8
1
 10
5.8080
 20
10.0670
 30
0.0000
 42
1.0000
  0
VERTEX
  8
1
 10
6.2570
 20
9.6180
 30
0.0000
  0
SEQEND
  8
0
  0
POLYLINE
  8
16
 66
1
 10
0.0000
 20
0.0000
 30
0.0000
 40
1.2700
 41
1.2700
 70
0
  0
VERTEX
  8
16
 10
7.3025
 20
11.1125
 30
0.0000
  0
VERTEX
  8
16
 10
7.3025
 20
68.8975
 30
0.0000
  0
SEQEND
  8
0
  0
POLYLINE
  8
16
 66
1
 10
0.0000
 20
0.0000
 30
0.0000
 40
0.6350
 41
0.6350
 70
0
  0
VERTEX
  8
16
 10
7.6200
 20
68.8975
 30
0.0000
 42
1.0000
  0
VERTEX
  8
16
 10
6.9850
 20
68.8975
 30
0.0000
  0
SEQEND
  8
0
  0
POLYLINE
  8
16
 66
1
 10
0.0000
 20
0.0000
 30
0.0000
 40
0.6350
 41
0.6350
 70
0
  0
VERTEX
  8
16
 10
6.9850
 20
11.1125
 30
0.0000
 42
1.0000
  0
VERTEX
  8
16
 10
7.6200
 20
11.1125
 30
0.0000
  0
SEQEND
  8
0
  0
POLYLINE
  8
16
 66
1
 10
0.0000
 20
0.0000
 30
0.0000
 40
1.2700
 41
1.2700
 70
0
  0
VERTEX
  8
16
 10
16.1925
 20
83.1850
 30
0.0000
  0
VERTEX
  8
16
 10
18.7325
 20
83.1850
 30
0.0000
  0
SEQEND
  8
0
  0
POLYLINE
  8
16
 66
1
 10
0.0000
 20
0.0000
 30
0.0000
 40
0.6350
 41
0.6350
 70
0
  0
VERTEX
  8
16
 10
18.7325
 20
82.8675
 30
0.0000
 42
1.0000
  0
VERTEX
  8
16
 10
18.7325
 20
83.5025
 30
0.0000
  0
SEQEND
  8
0
  0
POLYLINE
  8
16
 66
1
 10
0.0000
 20
0.0000
 30
0.0000
 40
0.6350
 41
0.6350
 70
0
  0
VERTEX
  8
16
 10
16.1925
 20
83.5025
 30
0.0000
 42
1.0000
  0
VERTEX
  8
16
 10
16.1925
 20
82.8675
 30
0.0000
  0
SEQEND
  8
0
  0
POLYLINE
  8
16
 66
1
 10
0.0000
 20
0.0000
 30
0.0000
 40
1.2700
 41
1.2700
 70
0
  0
VERTEX
  8
16
 10
7.3025
 20
68.8975
 30
0.0000
  0
VERTEX
  8
16
 10
7.3025
 20
76.2000
 30
0.0000
  0
SEQEND
  8
0
  0
POLYLINE
  8
16
 66
1
 10
0.0000
 20
0.0000
 30
0.0000
 40
0.6350
 41
0.6350
 70
0
  0
VERTEX
  8
16
 10
7.6200
 20
76.2000
 30
0.0000
 42
1.0000
  0
VERTEX
  8
16
 10
6.9850
 20
76.2000
 30
0.0000
  0
SEQEND
  8
0
  0
POLYLINE
  8
16
 66
1
 10
0.0000
 20
0.0000
 30
0.0000
 40
0.6350
 41
0.6350
 70
0
  0
VERTEX
  8
16
 10
6.9850
 20
68.8975
 30
0.0000
 42
1.0000
  0
VERTEX
  8
16
 10
7.6200
 20
68.8975
 30
0.0000
  0
SEQEND
  8
0
  0
POLYLINE
  8
16
 66
1
 10
0.0000
 20
0.0000
 30
0.0000
 40
1.2700
 41
1.2700
 70
0
  0
VERTEX
  8
16
 10
7.3025
 20
76.2000
 30
0.0000
  0
VERTEX
  8
16
 10
16.1925
 20
83.1850
 30
0.0000
  0
SEQEND
  8
0
  0
POLYLINE
  8
16
 66
1
 10
0.0000
 20
0.0000
 30
0.0000
 40
0.6350
 41
0.6350
 70
0
  0
VERTEX
  8
16
 10
16.3887
 20
82.9353
 30
0.0000
 42
1.0000
  0
VERTEX
  8
16
 10
15.9963
 20
83.4347
 30
0.0000
  0
SEQEND
  8
0
  0
POLYLINE
  8
16
 66
1
 10
0.0000
 20
0.0000
 30
0.0000
 40
0.6350
 41
0.6350
 70
0
  0
VERTEX
  8
16
 10
7.1063
 20
76.4497
 30
0.0000
 42
1.0000
  0
VERTEX
  8
16
 10
7.4987
 20
75.9503
 30
0.0000
  0
SEQEND
  8
0
  0
INSERT
  8
18
  2
ROUNDV
 10
7.3025
 20
11.1125
 30
0.0000
 41
1.6764
 42
1.6764
 43
1.0000
 50
0.0000
  0
INSERT
  8
18
  2
ROUNDV
 10
7.3025
 20
11.1125
 30
0.0000
 41
1.6764
 42
1.6764
 43
1.0000
 50
0.0000
  0
POLYLINE
  8
1
 66
1
 10
0.0000
 20
0.0000
 30
0.0000
 40
0.8128
 41
0.8128
 70
0
  0
VERTEX
  8
1
 10
36.5125
 20
3.4925
 30
0.0000
  0
VERTEX
  8
1
 10
36.5125
 20
8.6614
 30
0.0000
  0
SEQEND
  8
0
  0
POLYLINE
  8
1
 66
1
 10
0.0000
 20
0.0000
 30
0.0000
 40
0.4064
 41
0.4064
 70
0
  0
VERTEX
  8
1
 10
36.7157
 20
8.6614
 30
0.0000
 42
1.0000
  0
VERTEX
  8
1
 10
36.3093
 20
8.6614
 30
0.0000
  0
SEQEND
  8
0
  0
POLYLINE
  8
1
 66
1
 10
0.0000
 20
0.0000
 30
0.0000
 40
0.4064
 41
0.4064
 70
0
  0
VERTEX
  8
1
 10
36.3093
 20
3.4925
 30
0.0000
 42
1.0000
  0
VERTEX
  8
1
 10
36.7157
 20
3.4925
 30
0.0000
  0
SEQEND
  8
0
  0
POLYLINE
  8
1
 66
1
 10
0.0000
 20
0.0000
 30
0.0000
 40
0.8128
 41
0.8128
 70
0
  0
VERTEX
  8
1
 10
36.5125
 20
8.6614
 30
0.0000
  0
VERTEX
  8
1
 10
20.3200
 20
19.4767
 30
0.0000
  0
SEQEND
  8
0
  0
POLYLINE
  8
1
 66
1
 10
0.0000
 20
0.0000
 30
0.0000
 40
0.4064
 41
0.4064
 70
0
  0
VERTEX
  8
1
 10
20.4329
 20
19.6457
 30
0.0000
 42
1.0000
  0
VERTEX
  8
1
 10
20.2071
 20
19.3077
 30
0.0000
  0
SEQEND
  8
0
  0
POLYLINE
  8
1
 66
1
 10
0.0000
 20
0.0000
 30
0.0000
 40
0.4064
 41
0.4064
 70
0
  0
VERTEX
  8
1
 10
36.3996
 20
8.4924
 30
0.0000
 42
1.0000
  0
VERTEX
  8
1
 10
36.6254
 20
8.8304
 30
0.0000
  0
SEQEND
  8
0
  0
POLYLINE
  8
16
 66
1
 10
0.0000
 20
0.0000
 30
0.0000
 40
0.8128
 41
0.8128
 70
0
  0
VERTEX
  8
16
 10
18.7325
 20
80.6450
 30
0.0000
  0
VERTEX
  8
16
 10
22.5425
 20
80.6450
 30
0.0000
  0
SEQEND
  8
0
  0
POLYLINE
  8
16
 66
1
 10
0.0000
 20
0.0000
 30
0.0000
 40
0.4064
 41
0.4064
 70
0
  0
VERTEX
  8
16
 10
22.5425
 20
80.4418
 30
0.0000
 42
1.0000
  0
VERTEX
  8
16
 10
22.5425
 20
80.8482
 30
0.0000
  0
SEQEND
  8
0
  0
POLYLINE
  8
16
 66
1
 10
0.0000
 20
0.0000
 30
0.0000
 40
0.4064
 41
0.4064
 70
0
  0
VERTEX
  8
16
 10
18.7325
 20
80.8482
 30
0.0000
 42
1.0000
  0
VERTEX
  8
16
 10
18.7325
 20
80.4418
 30
0.0000
  0
SEQEND
  8
0
  0
POLYLINE
  8
1
 66
1
 10
0.0000
 20
0.0000
 30
0.0000
 40
0.8128
 41
0.8128
 70
0
  0
VERTEX
  8
1
 10
22.5425
 20
80.6450
 30
0.0000
  0
VERTEX
  8
1
 10
22.5425
 20
71.1200
 30
0.0000
  0
SEQEND
  8
0
  0
POLYLINE
  8
1
 66
1
 10
0.0000
 20
0.0000
 30
0.0000
 40
0.4064
 41
0.4064
 70
0
  0
VERTEX
  8
1
 10
22.3393
 20
71.1200
 30
0.0000
 42
1.0000
  0
VERTEX
  8
1
 10
22.7457
 20
71.1200
 30
0.0000
  0
SEQEND
  8
0
  0
POLYLINE
  8
1
 66
1
 10
0.0000
 20
0.0000
 30
0.0000
 40
0.4064
 41
0.4064
 70
0
  0
VERTEX
  8
1
 10
22.7457
 20
80.6450
 30
0.0000
 42
1.0000
  0
VERTEX
  8
1
 10
22.3393
 20
80.6450
 30
0.0000
  0
SEQEND
  8
0
  0
POLYLINE
  8
1
 66
1
 10
0.0000
 20
0.0000
 30
0.0000
 40
0.8128
 41
0.8128
 70
0
  0
VERTEX
  8
1
 10
22.5425
 20
71.1200
 30
0.0000
  0
VERTEX
  8
1
 10
25.7175
 20
67.9450
 30
0.0000
  0
SEQEND
  8
0
  0
POLYLINE
  8
1
 66
1
 10
0.0000
 20
0.0000
 30
0.0000
 40
0.4064
 41
0.4064
 70
0
  0
VERTEX
  8
1
 10
25.5738
 20
67.8013
 30
0.0000
 42
1.0000
  0
VERTEX
  8
1
 10
25.8612
 20
68.0887
 30
0.0000
  0
SEQEND
  8
0
  0
POLYLINE
  8
1
 66
1
 10
0.0000
 20
0.0000
 30
0.0000
 40
0.4064
 41
0.4064
 70
0
  0
VERTEX
  8
1
 10
22.6862
 20
71.2637
 30
0.0000
 42
1.0000
  0
VERTEX
  8
1
 10
22.3988
 20
70.9763
 30
0.0000
  0
SEQEND
  8
0
  0
POLYLINE
  8
1
 66
1
 10
0.0000
 20
0.0000
 30
0.0000
 40
0.8128
 41
0.8128
 70
0
  0
VERTEX
  8
1
 10
22.5425
 20
62.5475
 30
0.0000
  0
VERTEX
  8
1
 10
25.7175
 20
64.1350
 30
0.0000
  0
SEQEND
  8
0
  0
POLYLINE
  8
1
 66
1
 10
0.0000
 20
0.0000
 30
0.0000
 40
0.4064
 41
0.4064
 70
0
  0
VERTEX
  8
1
 10
25.8084
 20
63.9533
 30
0.0000
 42
1.0000
  0
VERTEX
  8
1
 10
25.6266
 20
64.3167
 30
0.0000
  0
SEQEND
  8
0
  0
POLYLINE
  8
1
 66
1
 10
0.0000
 20
0.0000
 30
0.0000
 40
0.4064
 41
0.4064
 70
0
  0
VERTEX
  8
1
 10
22.4516
 20
62.7292
 30
0.0000
 42
1.0000
  0
VERTEX
  8
1
 10
22.6334
 20
62.3658
 30
0.0000
  0
SEQEND
  8
0
  0
POLYLINE
  8
16
 66
1
 10
0.0000
 20
0.0000
 30
0.0000
 40
0.8128
 41
0.8128
 70
0
  0
VERTEX
  8
16
 10
25.7175
 20
67.9450
 30
0.0000
  0
VERTEX
  8
16
 10
25.7175
 20
64.1350
 30
0.0000
  0
SEQEND
  8
0
  0
POLYLINE
  8
16
 66
1
 10
0.0000
 20
0.0000
 30
0.0000
 40
0.4064
 41
0.4064
 70
0
  0
VERTEX
  8
16
 10
25.5143
 20
64.1350
 30
0.0000
 42
1.0000
  0
VERTEX
  8
16
 10
25.9207
 20
64.1350
 30
0.0000
  0
SEQEND
  8
0
  0
POLYLINE
  8
16
 66
1
 10
0.0000
 20
0.0000
 30
0.0000
 40
0.4064
 41
0.4064
 70
0
  0
VERTEX
  8
16
 10
25.9207
 20
67.9450
 30
0.0000
 42
1.0000
  0
VERTEX
  8
16
 10
25.5143
 20
67.9450
 30
0.0000
  0
SEQEND
  8
0
  0
POLYLINE
  8
1
 66
1
 10
0.0000
 20
0.0000
 30
0.0000
 40
0.8128
 41
0.8128
 70
0
  0
VERTEX
  8
1
 10
22.5425
 20
62.5475
 30
0.0000
  0
VERTEX
  8
1
 10
22.5425
 20
57.1500
 30
0.0000
  0
SEQEND
  8
0
  0
POLYLINE
  8
1
 66
1
 10
0.0000
 20
0.0000
 30
0.0000
 40
0.4064
 41
0.4064
 70
0
  0
VERTEX
  8
1
 10
22.3393
 20
57.1500
 30
0.0000
 42
1.0000
  0
VERTEX
  8
1
 10
22.7457
 20
57.1500
 30
0.0000
  0
SEQEND
  8
0
  0
POLYLINE
  8
1
 66
1
 10
0.0000
 20
0.0000
 30
0.0000
 40
0.4064
 41
0.4064
 70
0
  0
VERTEX
  8
1
 10
22.7457
 20
62.5475
 30
0.0000
 42
1.0000
  0
VERTEX
  8
1
 10
22.3393
 20
62.5475
 30
0.0000
  0
SEQEND
  8
0
  0
POLYLINE
  8
1
 66
1
 10
0.0000
 20
0.0000
 30
0.0000
 40
0.8128
 41
0.8128
 70
0
  0
VERTEX
  8
1
 10
22.5425
 20
57.1500
 30
0.0000
  0
VERTEX
  8
1
 10
20.3200
 20
55.2450
 30
0.0000
  0
SEQEND
  8
0
  0
POLYLINE
  8
1
 66
1
 10
0.0000
 20
0.0000
 30
0.0000
 40
0.4064
 41
0.4064
 70
0
  0
VERTEX
  8
1
 10
20.1878
 20
55.3993
 30
0.0000
 42
1.0000
  0
VERTEX
  8
1
 10
20.4522
 20
55.0907
 30
0.0000
  0
SEQEND
  8
0
  0
POLYLINE
  8
1
 66
1
 10
0.0000
 20
0.0000
 30
0.0000
 40
0.4064
 41
0.4064
 70
0
  0
VERTEX
  8
1
 10
22.6747
 20
56.9957
 30
0.0000
 42
1.0000
  0
VERTEX
  8
1
 10
22.4103
 20
57.3043
 30
0.0000
  0
SEQEND
  8
0
  0
POLYLINE
  8
1
 66
1
 10
0.0000
 20
0.0000
 30
0.0000
 40
0.8128
 41
0.8128
 70
0
  0
VERTEX
  8
1
 10
20.3200
 20
55.2450
 30
0.0000
  0
VERTEX
  8
1
 10
20.3200
 20
19.4767
 30
0.0000
  0
SEQEND
  8
0
  0
POLYLINE
  8
1
 66
1
 10
0.0000
 20
0.0000
 30
0.0000
 40
0.4064
 41
0.4064
 70
0
  0
VERTEX
  8
1
 10
20.1168
 20
19.4767
 30
0.0000
 42
1.0000
  0
VERTEX
  8
1
 10
20.5232
 20
19.4767
 30
0.0000
  0
SEQEND
  8
0
  0
POLYLINE
  8
1
 66
1
 10
0.0000
 20
0.0000
 30
0.0000
 40
0.4064
 41
0.4064
 70
0
  0
VERTEX
  8
1
 10
20.5232
 20
55.2450
 30
0.0000
 42
1.0000
  0
VERTEX
  8
1
 10
20.1168
 20
55.2450
 30
0.0000
  0
SEQEND
  8
0
  0
INSERT
  8
18
  2
ROUNDV
 10
22.5425
 20
80.6450
 30
0.0000
 41
1.6764
 42
1.6764
 43
1.0000
 50
0.0000
  0
INSERT
  8
18
  2
ROUNDV
 10
22.5425
 20
80.6450
 30
0.0000
 41
1.6764
 42
1.6764
 43
1.0000
 50
0.0000
  0
INSERT
  8
18
  2
ROUNDV
 10
25.7175
 20
67.9450
 30
0.0000
 41
1.6764
 42
1.6764
 43
1.0000
 50
0.0000
  0
INSERT
  8
18
  2
ROUNDV
 10
25.7175
 20
67.9450
 30
0.0000
 41
1.6764
 42
1.6764
 43
1.0000
 50
0.0000
  0
POLYLINE
  8
1
 66
1
 10
0.0000
 20
0.0000
 30
0.0000
 40
0.8128
 41
0.8128
 70
0
  0
VERTEX
  8
1
 10
16.1925
 20
3.4925
 30
0.0000
  0
VERTEX
  8
1
 10
16.1925
 20
7.3025
 30
0.0000
  0
SEQEND
  8
0
  0
POLYLINE
  8
1
 66
1
 10
0.0000
 20
0.0000
 30
0.0000
 40
0.4064
 41
0.4064
 70
0
  0
VERTEX
  8
1
 10
16.3957
 20
7.3025
 30
0.0000
 42
1.0000
  0
VERTEX
  8
1
 10
15.9893
 20
7.3025
 30
0.0000
  0
SEQEND
  8
0
  0
POLYLINE
  8
1
 66
1
 10
0.0000
 20
0.0000
 30
0.0000
 40
0.4064
 41
0.4064
 70
0
  0
VERTEX
  8
1
 10
15.9893
 20
3.4925
 30
0.0000
 42
1.0000
  0
VERTEX
  8
1
 10
16.3957
 20
3.4925
 30
0.0000
  0
SEQEND
  8
0
  0
POLYLINE
  8
16
 66
1
 10
0.0000
 20
0.0000
 30
0.0000
 40
0.8128
 41
0.8128
 70
0
  0
VERTEX
  8
16
 10
16.1925
 20
7.3025
 30
0.0000
  0
VERTEX
  8
16
 10
16.1925
 20
62.5475
 30
0.0000
  0
SEQEND
  8
0
  0
POLYLINE
  8
16
 66
1
 10
0.0000
 20
0.0000
 30
0.0000
 40
0.4064
 41
0.4064
 70
0
  0
VERTEX
  8
16
 10
16.3957
 20
62.5475
 30
0.0000
 42
1.0000
  0
VERTEX
  8
16
 10
15.9893
 20
62.5475
 30
0.0000
  0
SEQEND
  8
0
  0
POLYLINE
  8
16
 66
1
 10
0.0000
 20
0.0000
 30
0.0000
 40
0.4064
 41
0.4064
 70
0
  0
VERTEX
  8
16
 10
15.9893
 20
7.3025
 30
0.0000
 42
1.0000
  0
VERTEX
  8
16
 10
16.3957
 20
7.3025
 30
0.0000
  0
SEQEND
  8
0
  0
POLYLINE
  8
16
 66
1
 10
0.0000
 20
0.0000
 30
0.0000
 40
0.8128
 41
0.8128
 70
0
  0
VERTEX
  8
16
 10
16.1925
 20
62.5475
 30
0.0000
  0
VERTEX
  8
16
 10
16.1925
 20
66.3575
 30
0.0000
  0
SEQEND
  8
0
  0
POLYLINE
  8
16
 66
1
 10
0.0000
 20
0.0000
 30
0.0000
 40
0.4064
 41
0.4064
 70
0
  0
VERTEX
  8
16
 10
16.3957
 20
66.3575
 30
0.0000
 42
1.0000
  0
VERTEX
  8
16
 10
15.9893
 20
66.3575
 30
0.0000
  0
SEQEND
  8
0
  0
POLYLINE
  8
16
 66
1
 10
0.0000
 20
0.0000
 30
0.0000
 40
0.4064
 41
0.4064
 70
0
  0
VERTEX
  8
16
 10
15.9893
 20
62.5475
 30
0.0000
 42
1.0000
  0
VERTEX
  8
16
 10
16.3957
 20
62.5475
 30
0.0000
  0
SEQEND
  8
0
  0
POLYLINE
  8
16
 66
1
 10
0.0000
 20
0.0000
 30
0.0000
 40
0.8128
 41
0.8128
 70
0
  0
VERTEX
  8
16
 10
16.1925
 20
66.3575
 30
0.0000
  0
VERTEX
  8
16
 10
28.8925
 20
74.2950
 30
0.0000
  0
SEQEND
  8
0
  0
POLYLINE
  8
16
 66
1
 10
0.0000
 20
0.0000
 30
0.0000
 40
0.4064
 41
0.4064
 70
0
  0
VERTEX
  8
16
 10
29.0002
 20
74.1227
 30
0.0000
 42
1.0000
  0
VERTEX
  8
16
 10
28.7848
 20
74.4673
 30
0.0000
  0
SEQEND
  8
0
  0
POLYLINE
  8
16
 66
1
 10
0.0000
 20
0.0000
 30
0.0000
 40
0.4064
 41
0.4064
 70
0
  0
VERTEX
  8
16
 10
16.0848
 20
66.5298
 30
0.0000
 42
1.0000
  0
VERTEX
  8
16
 10
16.3002
 20
66.1852
 30
0.0000
  0
SEQEND
  8
0
  0
POLYLINE
  8
16
 66
1
 10
0.0000
 20
0.0000
 30
0.0000
 40
0.8128
 41
0.8128
 70
0
  0
VERTEX
  8
16
 10
28.8925
 20
74.2950
 30
0.0000
  0
VERTEX
  8
16
 10
34.2900
 20
74.2950
 30
0.0000
  0
SEQEND
  8
0
  0
POLYLINE
  8
16
 66
1
 10
0.0000
 20
0.0000
 30
0.0000
 40
0.4064
 41
0.4064
 70
0
  0
VERTEX
  8
16
 10
34.2900
 20
74.0918
 30
0.0000
 42
1.0000
  0
VERTEX
  8
16
 10
34.2900
 20
74.4982
 30
0.0000
  0
SEQEND
  8
0
  0
POLYLINE
  8
16
 66
1
 10
0.0000
 20
0.0000
 30
0.0000
 40
0.4064
 41
0.4064
 70
0
  0
VERTEX
  8
16
 10
28.8925
 20
74.4982
 30
0.0000
 42
1.0000
  0
VERTEX
  8
16
 10
28.8925
 20
74.0918
 30
0.0000
  0
SEQEND
  8
0
  0
POLYLINE
  8
16
 66
1
 10
0.0000
 20
0.0000
 30
0.0000
 40
0.8128
 41
0.8128
 70
0
  0
VERTEX
  8
16
 10
34.2900
 20
74.2950
 30
0.0000
  0
VERTEX
  8
16
 10
35.8775
 20
75.5650
 30
0.0000
  0
SEQEND
  8
0
  0
POLYLINE
  8
16
 66
1
 10
0.0000
 20
0.0000
 30
0.0000
 40
0.4064
 41
0.4064
 70
0
  0
VERTEX
  8
16
 10
36.0044
 20
75.4063
 30
0.0000
 42
1.0000
  0
VERTEX
  8
16
 10
35.7506
 20
75.7237
 30
0.0000
  0
SEQEND
  8
0
  0
POLYLINE
  8
16
 66
1
 10
0.0000
 20
0.0000
 30
0.0000
 40
0.4064
 41
0.4064
 70
0
  0
VERTEX
  8
16
 10
34.1631
 20
74.4537
 30
0.0000
 42
1.0000
  0
VERTEX
  8
16
 10
34.4169
 20
74.1363
 30
0.0000
  0
SEQEND
  8
0
  0
POLYLINE
  8
16
 66
1
 10
0.0000
 20
0.0000
 30
0.0000
 40
0.8128
 41
0.8128
 70
0
  0
VERTEX
  8
16
 10
35.8775
 20
75.5650
 30
0.0000
  0
VERTEX
  8
16
 10
35.8775
 20
87.9475
 30
0.0000
  0
SEQEND
  8
0
  0
POLYLINE
  8
16
 66
1
 10
0.0000
 20
0.0000
 30
0.0000
 40
0.4064
 41
0.4064
 70
0
  0
VERTEX
  8
16
 10
36.0807
 20
87.9475
 30
0.0000
 42
1.0000
  0
VERTEX
  8
16
 10
35.6743
 20
87.9475
 30
0.0000
  0
SEQEND
  8
0
  0
POLYLINE
  8
16
 66
1
 10
0.0000
 20
0.0000
 30
0.0000
 40
0.4064
 41
0.4064
 70
0
  0
VERTEX
  8
16
 10
35.6743
 20
75.5650
 30
0.0000
 42
1.0000
  0
VERTEX
  8
16
 10
36.0807
 20
75.5650
 30
0.0000
  0
SEQEND
  8
0
  0
POLYLINE
  8
16
 66
1
 10
0.0000
 20
0.0000
 30
0.0000
 40
0.8128
 41
0.8128
 70
0
  0
VERTEX
  8
16
 10
35.8775
 20
87.9475
 30
0.0000
  0
VERTEX
  8
16
 10
35.8775
 20
88.5825
 30
0.0000
  0
SEQEND
  8
0
  0
POLYLINE
  8
16
 66
1
 10
0.0000
 20
0.0000
 30
0.0000
 40
0.4064
 41
0.4064
 70
0
  0
VERTEX
  8
16
 10
36.0807
 20
88.5825
 30
0.0000
 42
1.0000
  0
VERTEX
  8
16
 10
35.6743
 20
88.5825
 30
0.0000
  0
SEQEND
  8
0
  0
POLYLINE
  8
16
 66
1
 10
0.0000
 20
0.0000
 30
0.0000
 40
0.4064
 41
0.4064
 70
0
  0
VERTEX
  8
16
 10
35.6743
 20
87.9475
 30
0.0000
 42
1.0000
  0
VERTEX
  8
16
 10
36.0807
 20
87.9475
 30
0.0000
  0
SEQEND
  8
0
  0
POLYLINE
  8
16
 66
1
 10
0.0000
 20
0.0000
 30
0.0000
 40
0.8128
 41
0.8128
 70
0
  0
VERTEX
  8
16
 10
35.8775
 20
88.5825
 30
0.0000
  0
VERTEX
  8
16
 10
34.6075
 20
89.5350
 30
0.0000
  0
SEQEND
  8
0
  0
POLYLINE
  8
16
 66
1
 10
0.0000
 20
0.0000
 30
0.0000
 40
0.4064
 41
0.4064
 70
0
  0
VERTEX
  8
16
 10
34.7294
 20
89.6976
 30
0.0000
 42
1.0000
  0
VERTEX
  8
16
 10
34.4856
 20
89.3724
 30
0.0000
  0
SEQEND
  8
0
  0
POLYLINE
  8
16
 66
1
 10
0.0000
 20
0.0000
 30
0.0000
 40
0.4064
 41
0.4064
 70
0
  0
VERTEX
  8
16
 10
35.7556
 20
88.4199
 30
0.0000
 42
1.0000
  0
VERTEX
  8
16
 10
35.9994
 20
88.7451
 30
0.0000
  0
SEQEND
  8
0
  0
POLYLINE
  8
16
 66
1
 10
0.0000
 20
0.0000
 30
0.0000
 40
0.8128
 41
0.8128
 70
0
  0
VERTEX
  8
16
 10
34.6075
 20
89.5350
 30
0.0000
  0
VERTEX
  8
16
 10
34.6075
 20
91.4400
 30
0.0000
  0
SEQEND
  8
0
  0
POLYLINE
  8
16
 66
1
 10
0.0000
 20
0.0000
 30
0.0000
 40
0.4064
 41
0.4064
 70
0
  0
VERTEX
  8
16
 10
34.8107
 20
91.4400
 30
0.0000
 42
1.0000
  0
VERTEX
  8
16
 10
34.4043
 20
91.4400
 30
0.0000
  0
SEQEND
  8
0
  0
POLYLINE
  8
16
 66
1
 10
0.0000
 20
0.0000
 30
0.0000
 40
0.4064
 41
0.4064
 70
0
  0
VERTEX
  8
16
 10
34.4043
 20
89.5350
 30
0.0000
 42
1.0000
  0
VERTEX
  8
16
 10
34.8107
 20
89.5350
 30
0.0000
  0
SEQEND
  8
0
  0
POLYLINE
  8
16
 66
1
 10
0.0000
 20
0.0000
 30
0.0000
 40
0.8128
 41
0.8128
 70
0
  0
VERTEX
  8
16
 10
34.6075
 20
91.4400
 30
0.0000
  0
VERTEX
  8
16
 10
33.3375
 20
92.7100
 30
0.0000
  0
SEQEND
  8
0
  0
POLYLINE
  8
16
 66
1
 10
0.0000
 20
0.0000
 30
0.0000
 40
0.4064
 41
0.4064
 70
0
  0
VERTEX
  8
16
 10
33.4812
 20
92.8537
 30
0.0000
 42
1.0000
  0
VERTEX
  8
16
 10
33.1938
 20
92.5663
 30
0.0000
  0
SEQEND
  8
0
  0
POLYLINE
  8
16
 66
1
 10
0.0000
 20
0.0000
 30
0.0000
 40
0.4064
 41
0.4064
 70
0
  0
VERTEX
  8
16
 10
34.4638
 20
91.2963
 30
0.0000
 42
1.0000
  0
VERTEX
  8
16
 10
34.7512
 20
91.5837
 30
0.0000
  0
SEQEND
  8
0
  0
POLYLINE
  8
16
 66
1
 10
0.0000
 20
0.0000
 30
0.0000
 40
0.8128
 41
0.8128
 70
0
  0
VERTEX
  8
16
 10
33.3375
 20
92.7100
 30
0.0000
  0
VERTEX
  8
16
 10
27.6225
 20
92.7100
 30
0.0000
  0
SEQEND
  8
0
  0
POLYLINE
  8
16
 66
1
 10
0.0000
 20
0.0000
 30
0.0000
 40
0.4064
 41
0.4064
 70
0
  0
VERTEX
  8
16
 10
27.6225
 20
92.9132
 30
0.0000
 42
1.0000
  0
VERTEX
  8
16
 10
27.6225
 20
92.5068
 30
0.0000
  0
SEQEND
  8
0
  0
POLYLINE
  8
16
 66
1
 10
0.0000
 20
0.0000
 30
0.0000
 40
0.4064
 41
0.4064
 70
0
  0
VERTEX
  8
16
 10
33.3375
 20
92.5068
 30
0.0000
 42
1.0000
  0
VERTEX
  8
16
 10
33.3375
 20
92.9132
 30
0.0000
  0
SEQEND
  8
0
  0
POLYLINE
  8
1
 66
1
 10
0.0000
 20
0.0000
 30
0.0000
 40
0.8128
 41
0.8128
 70
0
  0
VERTEX
  8
1
 10
27.6225
 20
92.7100
 30
0.0000
  0
VERTEX
  8
1
 10
27.6225
 20
85.7250
 30
0.0000
  0
SEQEND
  8
0
  0
POLYLINE
  8
1
 66
1
 10
0.0000
 20
0.0000
 30
0.0000
 40
0.4064
 41
0.4064
 70
0
  0
VERTEX
  8
1
 10
27.4193
 20
85.7250
 30
0.0000
 42
1.0000
  0
VERTEX
  8
1
 10
27.8257
 20
85.7250
 30
0.0000
  0
SEQEND
  8
0
  0
POLYLINE
  8
1
 66
1
 10
0.0000
 20
0.0000
 30
0.0000
 40
0.4064
 41
0.4064
 70
0
  0
VERTEX
  8
1
 10
27.8257
 20
92.7100
 30
0.0000
 42
1.0000
  0
VERTEX
  8
1
 10
27.4193
 20
92.7100
 30
0.0000
  0
SEQEND
  8
0
  0
POLYLINE
  8
16
 66
1
 10
0.0000
 20
0.0000
 30
0.0000
 40
0.8128
 41
0.8128
 70
0
  0
VERTEX
  8
16
 10
27.6225
 20
85.7250
 30
0.0000
  0
VERTEX
  8
16
 10
31.4325
 20
85.7250
 30
0.0000
  0
SEQEND
  8
0
  0
POLYLINE
  8
16
 66
1
 10
0.0000
 20
0.0000
 30
0.0000
 40
0.4064
 41
0.4064
 70
0
  0
VERTEX
  8
16
 10
31.4325
 20
85.5218
 30
0.0000
 42
1.0000
  0
VERTEX
  8
16
 10
31.4325
 20
85.9282
 30
0.0000
  0
SEQEND
  8
0
  0
POLYLINE
  8
16
 66
1
 10
0.0000
 20
0.0000
 30
0.0000
 40
0.4064
 41
0.4064
 70
0
  0
VERTEX
  8
16
 10
27.6225
 20
85.9282
 30
0.0000
 42
1.0000
  0
VERTEX
  8
16
 10
27.6225
 20
85.5218
 30
0.0000
  0
SEQEND
  8
0
  0
INSERT
  8
18
  2
ROUNDV
 10
16.1925
 20
7.3025
 30
0.0000
 41
1.6764
 42
1.6764
 43
1.0000
 50
0.0000
  0
INSERT
  8
18
  2
ROUNDV
 10
16.1925
 20
7.3025
 30
0.0000
 41
1.6764
 42
1.6764
 43
1.0000
 50
0.0000
  0
INSERT
  8
18
  2
ROUNDV
 10
27.6225
 20
92.7100
 30
0.0000
 41
1.6764
 42
1.6764
 43
1.0000
 50
0.0000
  0
INSERT
  8
18
  2
ROUNDV
 10
27.6225
 20
92.7100
 30
0.0000
 41
1.6764
 42
1.6764
 43
1.0000
 50
0.0000
  0
INSERT
  8
18
  2
ROUNDV
 10
27.6225
 20
85.7250
 30
0.0000
 41
1.6764
 42
1.6764
 43
1.0000
 50
0.0000
  0
INSERT
  8
18
  2
ROUNDV
 10
27.6225
 20
85.7250
 30
0.0000
 41
1.6764
 42
1.6764
 43
1.0000
 50
0.0000
  0
POLYLINE
  8
1
 66
1
 10
0.0000
 20
0.0000
 30
0.0000
 40
1.0160
 41
1.0160
 70
0
  0
VERTEX
  8
1
 10
18.7325
 20
3.4925
 30
0.0000
  0
VERTEX
  8
1
 10
18.7325
 20
8.5725
 30
0.0000
  0
SEQEND
  8
0
  0
POLYLINE
  8
1
 66
1
 10
0.0000
 20
0.0000
 30
0.0000
 40
0.5080
 41
0.5080
 70
0
  0
VERTEX
  8
1
 10
18.9865
 20
8.5725
 30
0.0000
 42
1.0000
  0
VERTEX
  8
1
 10
18.4785
 20
8.5725
 30
0.0000
  0
SEQEND
  8
0
  0
POLYLINE
  8
1
 66
1
 10
0.0000
 20
0.0000
 30
0.0000
 40
0.5080
 41
0.5080
 70
0
  0
VERTEX
  8
1
 10
18.4785
 20
3.4925
 30
0.0000
 42
1.0000
  0
VERTEX
  8
1
 10
18.9865
 20
3.4925
 30
0.0000
  0
SEQEND
  8
0
  0
POLYLINE
  8
1
 66
1
 10
0.0000
 20
0.0000
 30
0.0000
 40
1.0160
 41
1.0160
 70
0
  0
VERTEX
  8
1
 10
13.6525
 20
12.3825
 30
0.0000
  0
VERTEX
  8
1
 10
13.6525
 20
60.6425
 30
0.0000
  0
SEQEND
  8
0
  0
POLYLINE
  8
1
 66
1
 10
0.0000
 20
0.0000
 30
0.0000
 40
0.5080
 41
0.5080
 70
0
  0
VERTEX
  8
1
 10
13.9065
 20
60.6425
 30
0.0000
 42
1.0000
  0
VERTEX
  8
1
 10
13.3985
 20
60.6425
 30
0.0000
  0
SEQEND
  8
0
  0
POLYLINE
  8
1
 66
1
 10
0.0000
 20
0.0000
 30
0.0000
 40
0.5080
 41
0.5080
 70
0
  0
VERTEX
  8
1
 10
13.3985
 20
12.3825
 30
0.0000
 42
1.0000
  0
VERTEX
  8
1
 10
13.9065
 20
12.3825
 30
0.0000
  0
SEQEND
  8
0
  0
POLYLINE
  8
1
 66
1
 10
0.0000
 20
0.0000
 30
0.0000
 40
1.0160
 41
1.0160
 70
0
  0
VERTEX
  8
1
 10
18.7325
 20
8.5725
 30
0.0000
  0
VERTEX
  8
1
 10
13.6525
 20
12.3825
 30
0.0000
  0
SEQEND
  8
0
  0
POLYLINE
  8
1
 66
1
 10
0.0000
 20
0.0000
 30
0.0000
 40
0.5080
 41
0.5080
 70
0
  0
VERTEX
  8
1
 10
13.8049
 20
12.5857
 30
0.0000
 42
1.0000
  0
VERTEX
  8
1
 10
13.5001
 20
12.1793
 30
0.0000
  0
SEQEND
  8
0
  0
POLYLINE
  8
1
 66
1
 10
0.0000
 20
0.0000
 30
0.0000
 40
0.5080
 41
0.5080
 70
0
  0
VERTEX
  8
1
 10
18.5801
 20
8.3693
 30
0.0000
 42
1.0000
  0
VERTEX
  8
1
 10
18.8849
 20
8.7757
 30
0.0000
  0
SEQEND
  8
0
  0
POLYLINE
  8
1
 66
1
 10
0.0000
 20
0.0000
 30
0.0000
 40
1.0160
 41
1.0160
 70
0
  0
VERTEX
  8
1
 10
21.2725
 20
3.4925
 30
0.0000
  0
VERTEX
  8
1
 10
21.2725
 20
9.8425
 30
0.0000
  0
SEQEND
  8
0
  0
POLYLINE
  8
1
 66
1
 10
0.0000
 20
0.0000
 30
0.0000
 40
0.5080
 41
0.5080
 70
0
  0
VERTEX
  8
1
 10
21.5265
 20
9.8425
 30
0.0000
 42
1.0000
  0
VERTEX
  8
1
 10
21.0185
 20
9.8425
 30
0.0000
  0
SEQEND
  8
0
  0
POLYLINE
  8
1
 66
1
 10
0.0000
 20
0.0000
 30
0.0000
 40
0.5080
 41
0.5080
 70
0
  0
VERTEX
  8
1
 10
21.0185
 20
3.4925
 30
0.0000
 42
1.0000
  0
VERTEX
  8
1
 10
21.5265
 20
3.4925
 30
0.0000
  0
SEQEND
  8
0
  0
POLYLINE
  8
1
 66
1
 10
0.0000
 20
0.0000
 30
0.0000
 40
1.0160
 41
1.0160
 70
0
  0
VERTEX
  8
1
 10
16.1925
 20
13.6525
 30
0.0000
  0
VERTEX
  8
1
 10
16.1925
 20
60.6425
 30
0.0000
  0
SEQEND
  8
0
  0
POLYLINE
  8
1
 66
1
 10
0.0000
 20
0.0000
 30
0.0000
 40
0.5080
 41
0.5080
 70
0
  0
VERTEX
  8
1
 10
16.4465
 20
60.6425
 30
0.0000
 42
1.0000
  0
VERTEX
  8
1
 10
15.9385
 20
60.6425
 30
0.0000
  0
SEQEND
  8
0
  0
POLYLINE
  8
1
 66
1
 10
0.0000
 20
0.0000
 30
0.0000
 40
0.5080
 41
0.5080
 70
0
  0
VERTEX
  8
1
 10
15.9385
 20
13.6525
 30
0.0000
 42
1.0000
  0
VERTEX
  8
1
 10
16.4465
 20
13.6525
 30
0.0000
  0
SEQEND
  8
0
  0
POLYLINE
  8
1
 66
1
 10
0.0000
 20
0.0000
 30
0.0000
 40
1.0160
 41
1.0160
 70
0
  0
VERTEX
  8
1
 10
16.1925
 20
13.6525
 30
0.0000
  0
VERTEX
  8
1
 10
21.2725
 20
9.8425
 30
0.0000
  0
SEQEND
  8
0
  0
POLYLINE
  8
1
 66
1
 10
0.0000
 20
0.0000
 30
0.0000
 40
0.5080
 41
0.5080
 70
0
  0
VERTEX
  8
1
 10
21.1201
 20
9.6393
 30
0.0000
 42
1.0000
  0
VERTEX
  8
1
 10
21.4249
 20
10.0457
 30
0.0000
  0
SEQEND
  8
0
  0
POLYLINE
  8
1
 66
1
 10
0.0000
 20
0.0000
 30
0.0000
 40
0.5080
 41
0.5080
 70
0
  0
VERTEX
  8
1
 10
16.3449
 20
13.8557
 30
0.0000
 42
1.0000
  0
VERTEX
  8
1
 10
16.0401
 20
13.4493
 30
0.0000
  0
SEQEND
  8
0
  0
POLYLINE
  8
1
 66
1
 10
0.0000
 20
0.0000
 30
0.0000
 40
1.2700
 41
1.2700
 70
0
  0
VERTEX
  8
1
 10
33.9725
 20
3.4925
 30
0.0000
  0
VERTEX
  8
1
 10
33.9725
 20
2.2225
 30
0.0000
  0
SEQEND
  8
0
  0
POLYLINE
  8
1
 66
1
 10
0.0000
 20
0.0000
 30
0.0000
 40
0.6350
 41
0.6350
 70
0
  0
VERTEX
  8
1
 10
33.6550
 20
2.2225
 30
0.0000
 42
1.0000
  0
VERTEX
  8
1
 10
34.2900
 20
2.2225
 30
0.0000
  0
SEQEND
  8
0
  0
POLYLINE
  8
1
 66
1
 10
0.0000
 20
0.0000
 30
0.0000
 40
0.6350
 41
0.6350
 70
0
  0
VERTEX
  8
1
 10
34.2900
 20
3.4925
 30
0.0000
 42
1.0000
  0
VERTEX
  8
1
 10
33.6550
 20
3.4925
 30
0.0000
  0
SEQEND
  8
0
  0
POLYLINE
  8
1
 66
1
 10
0.0000
 20
0.0000
 30
0.0000
 40
1.2700
 41
1.2700
 70
0
  0
VERTEX
  8
1
 10
33.9725
 20
2.2225
 30
0.0000
  0
VERTEX
  8
1
 10
33.9725
 20
0.9525
 30
0.0000
  0
SEQEND
  8
0
  0
POLYLINE
  8
1
 66
1
 10
0.0000
 20
0.0000
 30
0.0000
 40
0.6350
 41
0.6350
 70
0
  0
VERTEX
  8
1
 10
33.6550
 20
0.9525
 30
0.0000
 42
1.0000
  0
VERTEX
  8
1
 10
34.2900
 20
0.9525
 30
0.0000
  0
SEQEND
  8
0
  0
POLYLINE
  8
1
 66
1
 10
0.0000
 20
0.0000
 30
0.0000
 40
0.6350
 41
0.6350
 70
0
  0
VERTEX
  8
1
 10
34.2900
 20
2.2225
 30
0.0000
 42
1.0000
  0
VERTEX
  8
1
 10
33.6550
 20
2.2225
 30
0.0000
  0
SEQEND
  8
0
  0
POLYLINE
  8
1
 66
1
 10
0.0000
 20
0.0000
 30
0.0000
 40
1.2700
 41
1.2700
 70
0
  0
VERTEX
  8
1
 10
33.9725
 20
0.9525
 30
0.0000
  0
VERTEX
  8
1
 10
32.7025
 20
-0.3175
 30
0.0000
  0
SEQEND
  8
0
  0
POLYLINE
  8
1
 66
1
 10
0.0000
 20
0.0000
 30
0.0000
 40
0.6350
 41
0.6350
 70
0
  0
VERTEX
  8
1
 10
32.4780
 20
-0.0930
 30
0.0000
 42
1.0000
  0
VERTEX
  8
1
 10
32.9270
 20
-0.5420
 30
0.0000
  0
SEQEND
  8
0
  0
POLYLINE
  8
1
 66
1
 10
0.0000
 20
0.0000
 30
0.0000
 40
0.6350
 41
0.6350
 70
0
  0
VERTEX
  8
1
 10
34.1970
 20
0.7280
 30
0.0000
 42
1.0000
  0
VERTEX
  8
1
 10
33.7480
 20
1.1770
 30
0.0000
  0
SEQEND
  8
0
  0
POLYLINE
  8
1
 66
1
 10
0.0000
 20
0.0000
 30
0.0000
 40
1.2700
 41
1.2700
 70
0
  0
VERTEX
  8
1
 10
32.7025
 20
-0.3175
 30
0.0000
  0
VERTEX
  8
1
 10
9.8425
 20
-0.3175
 30
0.0000
  0
SEQEND
  8
0
  0
POLYLINE
  8
1
 66
1
 10
0.0000
 20
0.0000
 30
0.0000
 40
0.6350
 41
0.6350
 70
0
  0
VERTEX
  8
1
 10
9.8425
 20
0.0000
 30
0.0000
 42
1.0000
  0
VERTEX
  8
1
 10
9.8425
 20
-0.6350
 30
0.0000
  0
SEQEND
  8
0
  0
POLYLINE
  8
1
 66
1
 10
0.0000
 20
0.0000
 30
0.0000
 40
0.6350
 41
0.6350
 70
0
  0
VERTEX
  8
1
 10
32.7025
 20
-0.6350
 30
0.0000
 42
1.0000
  0
VERTEX
  8
1
 10
32.7025
 20
0.0000
 30
0.0000
  0
SEQEND
  8
0
  0
POLYLINE
  8
1
 66
1
 10
0.0000
 20
0.0000
 30
0.0000
 40
1.2700
 41
1.2700
 70
0
  0
VERTEX
  8
1
 10
9.8425
 20
-0.3175
 30
0.0000
  0
VERTEX
  8
1
 10
8.5725
 20
0.9525
 30
0.0000
  0
SEQEND
  8
0
  0
POLYLINE
  8
1
 66
1
 10
0.0000
 20
0.0000
 30
0.0000
 40
0.6350
 41
0.6350
 70
0
  0
VERTEX
  8
1
 10
8.7970
 20
1.1770
 30
0.0000
 42
1.0000
  0
VERTEX
  8
1
 10
8.3480
 20
0.7280
 30
0.0000
  0
SEQEND
  8
0
  0
POLYLINE
  8
1
 66
1
 10
0.0000
 20
0.0000
 30
0.0000
 40
0.6350
 41
0.6350
 70
0
  0
VERTEX
  8
1
 10
9.6180
 20
-0.5420
 30
0.0000
 42
1.0000
  0
VERTEX
  8
1
 10
10.0670
 20
-0.0930
 30
0.0000
  0
SEQEND
  8
0
  0
POLYLINE
  8
1
 66
1
 10
0.0000
 20
0.0000
 30
0.0000
 40
1.2700
 41
1.2700
 70
0
  0
VERTEX
  8
1
 10
8.5725
 20
0.9525
 30
0.0000
  0
VERTEX
  8
1
 10
8.5725
 20
3.4925
 30
0.0000
  0
SEQEND
  8
0
  0
POLYLINE
  8
1
 66
1
 10
0.0000
 20
0.0000
 30
0.0000
 40
0.6350
 41
0.6350
 70
0
  0
VERTEX
  8
1
 10
8.8900
 20
3.4925
 30
0.0000
 42
1.0000
  0
VERTEX
  8
1
 10
8.2550
 20
3.4925
 30
0.0000
  0
SEQEND
  8
0
  0
POLYLINE
  8
1
 66
1
 10
0.0000
 20
0.0000
 30
0.0000
 40
0.6350
 41
0.6350
 70
0
  0
VERTEX
  8
1
 10
8.2550
 20
0.9525
 30
0.0000
 42
1.0000
  0
VERTEX
  8
1
 10
8.8900
 20
0.9525
 30
0.0000
  0
SEQEND
  8
0
  0
POLYLINE
  8
1
 66
1
 10
0.0000
 20
0.0000
 30
0.0000
 40
1.2700
 41
1.2700
 70
0
  0
VERTEX
  8
1
 10
8.5725
 20
3.4925
 30
0.0000
  0
VERTEX
  8
1
 10
8.5725
 20
7.3025
 30
0.0000
  0
SEQEND
  8
0
  0
POLYLINE
  8
1
 66
1
 10
0.0000
 20
0.0000
 30
0.0000
 40
0.6350
 41
0.6350
 70
0
  0
VERTEX
  8
1
 10
8.8900
 20
7.3025
 30
0.0000
 42
1.0000
  0
VERTEX
  8
1
 10
8.2550
 20
7.3025
 30
0.0000
  0
SEQEND
  8
0
  0
POLYLINE
  8
1
 66
1
 10
0.0000
 20
0.0000
 30
0.0000
 40
0.6350
 41
0.6350
 70
0
  0
VERTEX
  8
1
 10
8.2550
 20
3.4925
 30
0.0000
 42
1.0000
  0
VERTEX
  8
1
 10
8.8900
 20
3.4925
 30
0.0000
  0
SEQEND
  8
0
  0
POLYLINE
  8
16
 66
1
 10
0.0000
 20
0.0000
 30
0.0000
 40
1.2700
 41
1.2700
 70
0
  0
VERTEX
  8
16
 10
25.0825
 20
78.1050
 30
0.0000
  0
VERTEX
  8
16
 10
25.0825
 20
90.8050
 30
0.0000
  0
SEQEND
  8
0
  0
POLYLINE
  8
16
 66
1
 10
0.0000
 20
0.0000
 30
0.0000
 40
0.6350
 41
0.6350
 70
0
  0
VERTEX
  8
16
 10
25.4000
 20
90.8050
 30
0.0000
 42
1.0000
  0
VERTEX
  8
16
 10
24.7650
 20
90.8050
 30
0.0000
  0
SEQEND
  8
0
  0
POLYLINE
  8
16
 66
1
 10
0.0000
 20
0.0000
 30
0.0000
 40
0.6350
 41
0.6350
 70
0
  0
VERTEX
  8
16
 10
24.7650
 20
78.1050
 30
0.0000
 42
1.0000
  0
VERTEX
  8
16
 10
25.4000
 20
78.1050
 30
0.0000
  0
SEQEND
  8
0
  0
POLYLINE
  8
16
 66
1
 10
0.0000
 20
0.0000
 30
0.0000
 40
1.2700
 41
1.2700
 70
0
  0
VERTEX
  8
16
 10
25.0825
 20
90.8050
 30
0.0000
  0
VERTEX
  8
16
 10
31.4325
 20
90.8050
 30
0.0000
  0
SEQEND
  8
0
  0
POLYLINE
  8
16
 66
1
 10
0.0000
 20
0.0000
 30
0.0000
 40
0.6350
 41
0.6350
 70
0
  0
VERTEX
  8
16
 10
31.4325
 20
90.4875
 30
0.0000
 42
1.0000
  0
VERTEX
  8
16
 10
31.4325
 20
91.1225
 30
0.0000
  0
SEQEND
  8
0
  0
POLYLINE
  8
16
 66
1
 10
0.0000
 20
0.0000
 30
0.0000
 40
0.6350
 41
0.6350
 70
0
  0
VERTEX
  8
16
 10
25.0825
 20
91.1225
 30
0.0000
 42
1.0000
  0
VERTEX
  8
16
 10
25.0825
 20
90.4875
 30
0.0000
  0
SEQEND
  8
0
  0
POLYLINE
  8
16
 66
1
 10
0.0000
 20
0.0000
 30
0.0000
 40
1.2700
 41
1.2700
 70
0
  0
VERTEX
  8
16
 10
25.0825
 20
90.8050
 30
0.0000
  0
VERTEX
  8
16
 10
18.7325
 20
90.8050
 30
0.0000
  0
SEQEND
  8
0
  0
POLYLINE
  8
16
 66
1
 10
0.0000
 20
0.0000
 30
0.0000
 40
0.6350
 41
0.6350
 70
0
  0
VERTEX
  8
16
 10
18.7325
 20
91.1225
 30
0.0000
 42
1.0000
  0
VERTEX
  8
16
 10
18.7325
 20
90.4875
 30
0.0000
  0
SEQEND
  8
0
  0
POLYLINE
  8
16
 66
1
 10
0.0000
 20
0.0000
 30
0.0000
 40
0.6350
 41
0.6350
 70
0
  0
VERTEX
  8
16
 10
25.0825
 20
90.4875
 30
0.0000
 42
1.0000
  0
VERTEX
  8
16
 10
25.0825
 20
91.1225
 30
0.0000
  0
SEQEND
  8
0
  0
POLYLINE
  8
16
 66
1
 10
0.0000
 20
0.0000
 30
0.0000
 40
1.0160
 41
1.0160
 70
0
  0
VERTEX
  8
16
 10
18.7325
 20
90.8050
 30
0.0000
  0
VERTEX
  8
16
 10
10.1778
 20
90.7593
 30
0.0000
  0
SEQEND
  8
0
  0
POLYLINE
  8
16
 66
1
 10
0.0000
 20
0.0000
 30
0.0000
 40
0.5080
 41
0.5080
 70
0
  0
VERTEX
  8
16
 10
10.1764
 20
91.0133
 30
0.0000
 42
1.0000
  0
VERTEX
  8
16
 10
10.1791
 20
90.5053
 30
0.0000
  0
SEQEND
  8
0
  0
POLYLINE
  8
16
 66
1
 10
0.0000
 20
0.0000
 30
0.0000
 40
0.5080
 41
0.5080
 70
0
  0
VERTEX
  8
16
 10
18.7339
 20
90.5510
 30
0.0000
 42
1.0000
  0
VERTEX
  8
16
 10
18.7311
 20
91.0590
 30
0.0000
  0
SEQEND
  8
0
  0
POLYLINE
  8
16
 66
1
 10
0.0000
 20
0.0000
 30
0.0000
 40
1.0160
 41
1.0160
 70
0
  0
VERTEX
  8
16
 10
10.1778
 20
90.7593
 30
0.0000
  0
VERTEX
  8
16
 10
9.1542
 20
91.8693
 30
0.0000
  0
SEQEND
  8
0
  0
POLYLINE
  8
16
 66
1
 10
0.0000
 20
0.0000
 30
0.0000
 40
0.5080
 41
0.5080
 70
0
  0
VERTEX
  8
16
 10
9.3409
 20
92.0415
 30
0.0000
 42
1.0000
  0
VERTEX
  8
16
 10
8.9674
 20
91.6971
 30
0.0000
  0
SEQEND
  8
0
  0
POLYLINE
  8
16
 66
1
 10
0.0000
 20
0.0000
 30
0.0000
 40
0.5080
 41
0.5080
 70
0
  0
VERTEX
  8
16
 10
9.9911
 20
90.5871
 30
0.0000
 42
1.0000
  0
VERTEX
  8
16
 10
10.3645
 20
90.9315
 30
0.0000
  0
SEQEND
  8
0
  0
POLYLINE
  8
1
 66
1
 10
0.0000
 20
0.0000
 30
0.0000
 40
1.0160
 41
1.0160
 70
0
  0
VERTEX
  8
1
 10
18.7325
 20
60.6425
 30
0.0000
  0
VERTEX
  8
1
 10
18.7325
 20
60.0075
 30
0.0000
  0
SEQEND
  8
0
  0
POLYLINE
  8
1
 66
1
 10
0.0000
 20
0.0000
 30
0.0000
 40
0.5080
 41
0.5080
 70
0
  0
VERTEX
  8
1
 10
18.4785
 20
60.0075
 30
0.0000
 42
1.0000
  0
VERTEX
  8
1
 10
18.9865
 20
60.0075
 30
0.0000
  0
SEQEND
  8
0
  0
POLYLINE
  8
1
 66
1
 10
0.0000
 20
0.0000
 30
0.0000
 40
0.5080
 41
0.5080
 70
0
  0
VERTEX
  8
1
 10
18.9865
 20
60.6425
 30
0.0000
 42
1.0000
  0
VERTEX
  8
1
 10
18.4785
 20
60.6425
 30
0.0000
  0
SEQEND
  8
0
  0
POLYLINE
  8
1
 66
1
 10
0.0000
 20
0.0000
 30
0.0000
 40
1.0160
 41
1.0160
 70
0
  0
VERTEX
  8
1
 10
18.7325
 20
60.0075
 30
0.0000
  0
VERTEX
  8
1
 10
18.7325
 20
61.9125
 30
0.0000
  0
SEQEND
  8
0
  0
POLYLINE
  8
1
 66
1
 10
0.0000
 20
0.0000
 30
0.0000
 40
0.5080
 41
0.5080
 70
0
  0
VERTEX
  8
1
 10
18.9865
 20
61.9125
 30
0.0000
 42
1.0000
  0
VERTEX
  8
1
 10
18.4785
 20
61.9125
 30
0.0000
  0
SEQEND
  8
0
  0
POLYLINE
  8
1
 66
1
 10
0.0000
 20
0.0000
 30
0.0000
 40
0.5080
 41
0.5080
 70
0
  0
VERTEX
  8
1
 10
18.4785
 20
60.0075
 30
0.0000
 42
1.0000
  0
VERTEX
  8
1
 10
18.9865
 20
60.0075
 30
0.0000
  0
SEQEND
  8
0
  0
POLYLINE
  8
1
 66
1
 10
0.0000
 20
0.0000
 30
0.0000
 40
1.0160
 41
1.0160
 70
0
  0
VERTEX
  8
1
 10
18.7325
 20
61.9125
 30
0.0000
  0
VERTEX
  8
1
 10
11.3061
 20
69.3699
 30
0.0000
  0
SEQEND
  8
0
  0
POLYLINE
  8
1
 66
1
 10
0.0000
 20
0.0000
 30
0.0000
 40
0.5080
 41
0.5080
 70
0
  0
VERTEX
  8
1
 10
11.4861
 20
69.5491
 30
0.0000
 42
1.0000
  0
VERTEX
  8
1
 10
11.1261
 20
69.1906
 30
0.0000
  0
SEQEND
  8
0
  0
POLYLINE
  8
1
 66
1
 10
0.0000
 20
0.0000
 30
0.0000
 40
0.5080
 41
0.5080
 70
0
  0
VERTEX
  8
1
 10
18.5525
 20
61.7333
 30
0.0000
 42
1.0000
  0
VERTEX
  8
1
 10
18.9125
 20
62.0917
 30
0.0000
  0
SEQEND
  8
0
  0
POLYLINE
  8
16
 66
1
 10
0.0000
 20
0.0000
 30
0.0000
 40
1.2700
 41
1.2700
 70
0
  0
VERTEX
  8
16
 10
9.2075
 20
13.6525
 30
0.0000
  0
VERTEX
  8
16
 10
9.2075
 20
68.2625
 30
0.0000
  0
SEQEND
  8
0
  0
POLYLINE
  8
16
 66
1
 10
0.0000
 20
0.0000
 30
0.0000
 40
0.6350
 41
0.6350
 70
0
  0
VERTEX
  8
16
 10
9.5250
 20
68.2625
 30
0.0000
 42
1.0000
  0
VERTEX
  8
16
 10
8.8900
 20
68.2625
 30
0.0000
  0
SEQEND
  8
0
  0
POLYLINE
  8
16
 66
1
 10
0.0000
 20
0.0000
 30
0.0000
 40
0.6350
 41
0.6350
 70
0
  0
VERTEX
  8
16
 10
8.8900
 20
13.6525
 30
0.0000
 42
1.0000
  0
VERTEX
  8
16
 10
9.5250
 20
13.6525
 30
0.0000
  0
SEQEND
  8
0
  0
POLYLINE
  8
16
 66
1
 10
0.0000
 20
0.0000
 30
0.0000
 40
1.2700
 41
1.2700
 70
0
  0
VERTEX
  8
16
 10
9.2075
 20
68.2625
 30
0.0000
  0
VERTEX
  8
16
 10
11.1125
 20
69.5325
 30
0.0000
  0
SEQEND
  8
0
  0
POLYLINE
  8
16
 66
1
 10
0.0000
 20
0.0000
 30
0.0000
 40
0.6350
 41
0.6350
 70
0
  0
VERTEX
  8
16
 10
11.2886
 20
69.2683
 30
0.0000
 42
1.0000
  0
VERTEX
  8
16
 10
10.9364
 20
69.7967
 30
0.0000
  0
SEQEND
  8
0
  0
POLYLINE
  8
16
 66
1
 10
0.0000
 20
0.0000
 30
0.0000
 40
0.6350
 41
0.6350
 70
0
  0
VERTEX
  8
16
 10
9.0314
 20
68.5267
 30
0.0000
 42
1.0000
  0
VERTEX
  8
16
 10
9.3836
 20
67.9983
 30
0.0000
  0
SEQEND
  8
0
  0
POLYLINE
  8
16
 66
1
 10
0.0000
 20
0.0000
 30
0.0000
 40
1.2700
 41
1.2700
 70
0
  0
VERTEX
  8
16
 10
11.1125
 20
69.5325
 30
0.0000
  0
VERTEX
  8
16
 10
25.0825
 20
78.1050
 30
0.0000
  0
SEQEND
  8
0
  0
POLYLINE
  8
16
 66
1
 10
0.0000
 20
0.0000
 30
0.0000
 40
0.6350
 41
0.6350
 70
0
  0
VERTEX
  8
16
 10
25.2486
 20
77.8344
 30
0.0000
 42
1.0000
  0
VERTEX
  8
16
 10
24.9164
 20
78.3756
 30
0.0000
  0
SEQEND
  8
0
  0
POLYLINE
  8
16
 66
1
 10
0.0000
 20
0.0000
 30
0.0000
 40
0.6350
 41
0.6350
 70
0
  0
VERTEX
  8
16
 10
10.9464
 20
69.8031
 30
0.0000
 42
1.0000
  0
VERTEX
  8
16
 10
11.2786
 20
69.2619
 30
0.0000
  0
SEQEND
  8
0
  0
POLYLINE
  8
16
 66
1
 10
0.0000
 20
0.0000
 30
0.0000
 40
1.0160
 41
1.0160
 70
0
  0
VERTEX
  8
16
 10
9.2075
 20
68.2625
 30
0.0000
  0
VERTEX
  8
16
 10
11.1125
 20
69.5325
 30
0.0000
  0
SEQEND
  8
0
  0
POLYLINE
  8
16
 66
1
 10
0.0000
 20
0.0000
 30
0.0000
 40
0.5080
 41
0.5080
 70
0
  0
VERTEX
  8
16
 10
11.2534
 20
69.3212
 30
0.0000
 42
1.0000
  0
VERTEX
  8
16
 10
10.9716
 20
69.7438
 30
0.0000
  0
SEQEND
  8
0
  0
POLYLINE
  8
16
 66
1
 10
0.0000
 20
0.0000
 30
0.0000
 40
0.5080
 41
0.5080
 70
0
  0
VERTEX
  8
16
 10
9.0666
 20
68.4738
 30
0.0000
 42
1.0000
  0
VERTEX
  8
16
 10
9.3484
 20
68.0512
 30
0.0000
  0
SEQEND
  8
0
  0
POLYLINE
  8
16
 66
1
 10
0.0000
 20
0.0000
 30
0.0000
 40
1.2700
 41
1.2700
 70
0
  0
VERTEX
  8
16
 10
8.5725
 20
7.3025
 30
0.0000
  0
VERTEX
  8
16
 10
10.4775
 20
9.8425
 30
0.0000
  0
SEQEND
  8
0
  0
POLYLINE
  8
16
 66
1
 10
0.0000
 20
0.0000
 30
0.0000
 40
0.6350
 41
0.6350
 70
0
  0
VERTEX
  8
16
 10
10.7315
 20
9.6520
 30
0.0000
 42
1.0000
  0
VERTEX
  8
16
 10
10.2235
 20
10.0330
 30
0.0000
  0
SEQEND
  8
0
  0
POLYLINE
  8
16
 66
1
 10
0.0000
 20
0.0000
 30
0.0000
 40
0.6350
 41
0.6350
 70
0
  0
VERTEX
  8
16
 10
8.3185
 20
7.4930
 30
0.0000
 42
1.0000
  0
VERTEX
  8
16
 10
8.8265
 20
7.1120
 30
0.0000
  0
SEQEND
  8
0
  0
POLYLINE
  8
16
 66
1
 10
0.0000
 20
0.0000
 30
0.0000
 40
1.2700
 41
1.2700
 70
0
  0
VERTEX
  8
16
 10
10.4775
 20
9.8425
 30
0.0000
  0
VERTEX
  8
16
 10
10.4775
 20
12.3825
 30
0.0000
  0
SEQEND
  8
0
  0
POLYLINE
  8
16
 66
1
 10
0.0000
 20
0.0000
 30
0.0000
 40
0.6350
 41
0.6350
 70
0
  0
VERTEX
  8
16
 10
10.7950
 20
12.3825
 30
0.0000
 42
1.0000
  0
VERTEX
  8
16
 10
10.1600
 20
12.3825
 30
0.0000
  0
SEQEND
  8
0
  0
POLYLINE
  8
16
 66
1
 10
0.0000
 20
0.0000
 30
0.0000
 40
0.6350
 41
0.6350
 70
0
  0
VERTEX
  8
16
 10
10.1600
 20
9.8425
 30
0.0000
 42
1.0000
  0
VERTEX
  8
16
 10
10.7950
 20
9.8425
 30
0.0000
  0
SEQEND
  8
0
  0
POLYLINE
  8
16
 66
1
 10
0.0000
 20
0.0000
 30
0.0000
 40
1.2700
 41
1.2700
 70
0
  0
VERTEX
  8
16
 10
10.4775
 20
12.3825
 30
0.0000
  0
VERTEX
  8
16
 10
9.2075
 20
13.6525
 30
0.0000
  0
SEQEND
  8
0
  0
POLYLINE
  8
16
 66
1
 10
0.0000
 20
0.0000
 30
0.0000
 40
0.6350
 41
0.6350
 70
0
  0
VERTEX
  8
16
 10
9.4320
 20
13.8770
 30
0.0000
 42
1.0000
  0
VERTEX
  8
16
 10
8.9830
 20
13.4280
 30
0.0000
  0
SEQEND
  8
0
  0
POLYLINE
  8
16
 66
1
 10
0.0000
 20
0.0000
 30
0.0000
 40
0.6350
 41
0.6350
 70
0
  0
VERTEX
  8
16
 10
10.2530
 20
12.1580
 30
0.0000
 42
1.0000
  0
VERTEX
  8
16
 10
10.7020
 20
12.6070
 30
0.0000
  0
SEQEND
  8
0
  0
POLYLINE
  8
16
 66
1
 10
0.0000
 20
0.0000
 30
0.0000
 40
1.0160
 41
1.0160
 70
0
  0
VERTEX
  8
16
 10
9.1542
 20
91.8693
 30
0.0000
  0
VERTEX
  8
16
 10
9.1694
 20
97.0813
 30
0.0000
  0
SEQEND
  8
0
  0
POLYLINE
  8
16
 66
1
 10
0.0000
 20
0.0000
 30
0.0000
 40
0.5080
 41
0.5080
 70
0
  0
VERTEX
  8
16
 10
9.4234
 20
97.0806
 30
0.0000
 42
1.0000
  0
VERTEX
  8
16
 10
8.9154
 20
97.0821
 30
0.0000
  0
SEQEND
  8
0
  0
POLYLINE
  8
16
 66
1
 10
0.0000
 20
0.0000
 30
0.0000
 40
0.5080
 41
0.5080
 70
0
  0
VERTEX
  8
16
 10
8.9002
 20
91.8700
 30
0.0000
 42
1.0000
  0
VERTEX
  8
16
 10
9.4082
 20
91.8685
 30
0.0000
  0
SEQEND
  8
0
  0
POLYLINE
  8
16
 66
1
 10
0.0000
 20
0.0000
 30
0.0000
 40
1.0160
 41
1.0160
 70
0
  0
VERTEX
  8
16
 10
9.1694
 20
97.0813
 30
0.0000
  0
VERTEX
  8
16
 10
9.1405
 20
97.1550
 30
0.0000
  0
SEQEND
  8
0
  0
POLYLINE
  8
16
 66
1
 10
0.0000
 20
0.0000
 30
0.0000
 40
0.5080
 41
0.5080
 70
0
  0
VERTEX
  8
16
 10
9.3770
 20
97.2477
 30
0.0000
 42
1.0000
  0
VERTEX
  8
16
 10
8.9040
 20
97.0623
 30
0.0000
  0
SEQEND
  8
0
  0
POLYLINE
  8
16
 66
1
 10
0.0000
 20
0.0000
 30
0.0000
 40
0.5080
 41
0.5080
 70
0
  0
VERTEX
  8
16
 10
8.9329
 20
96.9886
 30
0.0000
 42
1.0000
  0
VERTEX
  8
16
 10
9.4059
 20
97.1741
 30
0.0000
  0
SEQEND
  8
0
  0
INSERT
  8
18
  2
ROUNDV
 10
8.5725
 20
7.3025
 30
0.0000
 41
1.6764
 42
1.6764
 43
1.0000
 50
0.0000
  0
INSERT
  8
18
  2
ROUNDV
 10
8.5725
 20
7.3025
 30
0.0000
 41
1.6764
 42
1.6764
 43
1.0000
 50
0.0000
  0
POLYLINE
  8
1
 66
1
 10
0.0000
 20
0.0000
 30
0.0000
 40
0.8128
 41
0.8128
 70
0
  0
VERTEX
  8
1
 10
31.4325
 20
3.4925
 30
0.0000
  0
VERTEX
  8
1
 10
31.4325
 20
9.4158
 30
0.0000
  0
SEQEND
  8
0
  0
POLYLINE
  8
1
 66
1
 10
0.0000
 20
0.0000
 30
0.0000
 40
0.4064
 41
0.4064
 70
0
  0
VERTEX
  8
1
 10
31.6357
 20
9.4158
 30
0.0000
 42
1.0000
  0
VERTEX
  8
1
 10
31.2293
 20
9.4158
 30
0.0000
  0
SEQEND
  8
0
  0
POLYLINE
  8
1
 66
1
 10
0.0000
 20
0.0000
 30
0.0000
 40
0.4064
 41
0.4064
 70
0
  0
VERTEX
  8
1
 10
31.2293
 20
3.4925
 30
0.0000
 42
1.0000
  0
VERTEX
  8
1
 10
31.6357
 20
3.4925
 30
0.0000
  0
SEQEND
  8
0
  0
POLYLINE
  8
1
 66
1
 10
0.0000
 20
0.0000
 30
0.0000
 40
0.8128
 41
0.8128
 70
0
  0
VERTEX
  8
1
 10
31.4325
 20
9.4158
 30
0.0000
  0
VERTEX
  8
1
 10
18.0975
 20
18.4150
 30
0.0000
  0
SEQEND
  8
0
  0
POLYLINE
  8
1
 66
1
 10
0.0000
 20
0.0000
 30
0.0000
 40
0.4064
 41
0.4064
 70
0
  0
VERTEX
  8
1
 10
18.2112
 20
18.5834
 30
0.0000
 42
1.0000
  0
VERTEX
  8
1
 10
17.9838
 20
18.2466
 30
0.0000
  0
SEQEND
  8
0
  0
POLYLINE
  8
1
 66
1
 10
0.0000
 20
0.0000
 30
0.0000
 40
0.4064
 41
0.4064
 70
0
  0
VERTEX
  8
1
 10
31.3188
 20
9.2473
 30
0.0000
 42
1.0000
  0
VERTEX
  8
1
 10
31.5462
 20
9.5842
 30
0.0000
  0
SEQEND
  8
0
  0
POLYLINE
  8
1
 66
1
 10
0.0000
 20
0.0000
 30
0.0000
 40
0.8128
 41
0.8128
 70
0
  0
VERTEX
  8
1
 10
20.6375
 20
63.8175
 30
0.0000
  0
VERTEX
  8
1
 10
29.8450
 20
67.9450
 30
0.0000
  0
SEQEND
  8
0
  0
POLYLINE
  8
1
 66
1
 10
0.0000
 20
0.0000
 30
0.0000
 40
0.4064
 41
0.4064
 70
0
  0
VERTEX
  8
1
 10
29.9281
 20
67.7596
 30
0.0000
 42
1.0000
  0
VERTEX
  8
1
 10
29.7619
 20
68.1304
 30
0.0000
  0
SEQEND
  8
0
  0
POLYLINE
  8
1
 66
1
 10
0.0000
 20
0.0000
 30
0.0000
 40
0.4064
 41
0.4064
 70
0
  0
VERTEX
  8
1
 10
20.5544
 20
64.0029
 30
0.0000
 42
1.0000
  0
VERTEX
  8
1
 10
20.7206
 20
63.6321
 30
0.0000
  0
SEQEND
  8
0
  0
POLYLINE
  8
16
 66
1
 10
0.0000
 20
0.0000
 30
0.0000
 40
0.8128
 41
0.8128
 70
0
  0
VERTEX
  8
16
 10
35.2425
 20
93.9800
 30
0.0000
  0
VERTEX
  8
16
 10
34.6075
 20
94.6150
 30
0.0000
  0
SEQEND
  8
0
  0
POLYLINE
  8
16
 66
1
 10
0.0000
 20
0.0000
 30
0.0000
 40
0.4064
 41
0.4064
 70
0
  0
VERTEX
  8
16
 10
34.7512
 20
94.7587
 30
0.0000
 42
1.0000
  0
VERTEX
  8
16
 10
34.4638
 20
94.4713
 30
0.0000
  0
SEQEND
  8
0
  0
POLYLINE
  8
16
 66
1
 10
0.0000
 20
0.0000
 30
0.0000
 40
0.4064
 41
0.4064
 70
0
  0
VERTEX
  8
16
 10
35.0988
 20
93.8363
 30
0.0000
 42
1.0000
  0
VERTEX
  8
16
 10
35.3862
 20
94.1237
 30
0.0000
  0
SEQEND
  8
0
  0
POLYLINE
  8
16
 66
1
 10
0.0000
 20
0.0000
 30
0.0000
 40
0.8128
 41
0.8128
 70
0
  0
VERTEX
  8
16
 10
34.6075
 20
94.6150
 30
0.0000
  0
VERTEX
  8
16
 10
34.5405
 20
97.1550
 30
0.0000
  0
SEQEND
  8
0
  0
POLYLINE
  8
16
 66
1
 10
0.0000
 20
0.0000
 30
0.0000
 40
0.4064
 41
0.4064
 70
0
  0
VERTEX
  8
16
 10
34.7436
 20
97.1604
 30
0.0000
 42
1.0000
  0
VERTEX
  8
16
 10
34.3374
 20
97.1496
 30
0.0000
  0
SEQEND
  8
0
  0
POLYLINE
  8
16
 66
1
 10
0.0000
 20
0.0000
 30
0.0000
 40
0.4064
 41
0.4064
 70
0
  0
VERTEX
  8
16
 10
34.4044
 20
94.6096
 30
0.0000
 42
1.0000
  0
VERTEX
  8
16
 10
34.8106
 20
94.6204
 30
0.0000
  0
SEQEND
  8
0
  0
POLYLINE
  8
1
 66
1
 10
0.0000
 20
0.0000
 30
0.0000
 40
0.8128
 41
0.8128
 70
0
  0
VERTEX
  8
1
 10
18.0975
 20
18.4150
 30
0.0000
  0
VERTEX
  8
1
 10
18.0975
 20
55.8800
 30
0.0000
  0
SEQEND
  8
0
  0
POLYLINE
  8
1
 66
1
 10
0.0000
 20
0.0000
 30
0.0000
 40
0.4064
 41
0.4064
 70
0
  0
VERTEX
  8
1
 10
18.3007
 20
55.8800
 30
0.0000
 42
1.0000
  0
VERTEX
  8
1
 10
17.8943
 20
55.8800
 30
0.0000
  0
SEQEND
  8
0
  0
POLYLINE
  8
1
 66
1
 10
0.0000
 20
0.0000
 30
0.0000
 40
0.4064
 41
0.4064
 70
0
  0
VERTEX
  8
1
 10
17.8943
 20
18.4150
 30
0.0000
 42
1.0000
  0
VERTEX
  8
1
 10
18.3007
 20
18.4150
 30
0.0000
  0
SEQEND
  8
0
  0
POLYLINE
  8
1
 66
1
 10
0.0000
 20
0.0000
 30
0.0000
 40
0.8128
 41
0.8128
 70
0
  0
VERTEX
  8
1
 10
18.0975
 20
55.8800
 30
0.0000
  0
VERTEX
  8
1
 10
20.6375
 20
58.1025
 30
0.0000
  0
SEQEND
  8
0
  0
POLYLINE
  8
1
 66
1
 10
0.0000
 20
0.0000
 30
0.0000
 40
0.4064
 41
0.4064
 70
0
  0
VERTEX
  8
1
 10
20.7713
 20
57.9496
 30
0.0000
 42
1.0000
  0
VERTEX
  8
1
 10
20.5037
 20
58.2554
 30
0.0000
  0
SEQEND
  8
0
  0
POLYLINE
  8
1
 66
1
 10
0.0000
 20
0.0000
 30
0.0000
 40
0.4064
 41
0.4064
 70
0
  0
VERTEX
  8
1
 10
17.9637
 20
56.0329
 30
0.0000
 42
1.0000
  0
VERTEX
  8
1
 10
18.2313
 20
55.7271
 30
0.0000
  0
SEQEND
  8
0
  0
POLYLINE
  8
1
 66
1
 10
0.0000
 20
0.0000
 30
0.0000
 40
0.8128
 41
0.8128
 70
0
  0
VERTEX
  8
1
 10
20.6375
 20
58.1025
 30
0.0000
  0
VERTEX
  8
1
 10
20.6375
 20
63.8175
 30
0.0000
  0
SEQEND
  8
0
  0
POLYLINE
  8
1
 66
1
 10
0.0000
 20
0.0000
 30
0.0000
 40
0.4064
 41
0.4064
 70
0
  0
VERTEX
  8
1
 10
20.8407
 20
63.8175
 30
0.0000
 42
1.0000
  0
VERTEX
  8
1
 10
20.4343
 20
63.8175
 30
0.0000
  0
SEQEND
  8
0
  0
POLYLINE
  8
1
 66
1
 10
0.0000
 20
0.0000
 30
0.0000
 40
0.4064
 41
0.4064
 70
0
  0
VERTEX
  8
1
 10
20.4343
 20
58.1025
 30
0.0000
 42
1.0000
  0
VERTEX
  8
1
 10
20.8407
 20
58.1025
 30
0.0000
  0
SEQEND
  8
0
  0
POLYLINE
  8
1
 66
1
 10
0.0000
 20
0.0000
 30
0.0000
 40
0.8128
 41
0.8128
 70
0
  0
VERTEX
  8
1
 10
29.8450
 20
67.9450
 30
0.0000
  0
VERTEX
  8
1
 10
29.8450
 20
72.0725
 30
0.0000
  0
SEQEND
  8
0
  0
POLYLINE
  8
1
 66
1
 10
0.0000
 20
0.0000
 30
0.0000
 40
0.4064
 41
0.4064
 70
0
  0
VERTEX
  8
1
 10
30.0482
 20
72.0725
 30
0.0000
 42
1.0000
  0
VERTEX
  8
1
 10
29.6418
 20
72.0725
 30
0.0000
  0
SEQEND
  8
0
  0
POLYLINE
  8
1
 66
1
 10
0.0000
 20
0.0000
 30
0.0000
 40
0.4064
 41
0.4064
 70
0
  0
VERTEX
  8
1
 10
29.6418
 20
67.9450
 30
0.0000
 42
1.0000
  0
VERTEX
  8
1
 10
30.0482
 20
67.9450
 30
0.0000
  0
SEQEND
  8
0
  0
POLYLINE
  8
1
 66
1
 10
0.0000
 20
0.0000
 30
0.0000
 40
0.8128
 41
0.8128
 70
0
  0
VERTEX
  8
1
 10
29.8450
 20
72.0725
 30
0.0000
  0
VERTEX
  8
1
 10
35.2425
 20
76.5175
 30
0.0000
  0
SEQEND
  8
0
  0
POLYLINE
  8
1
 66
1
 10
0.0000
 20
0.0000
 30
0.0000
 40
0.4064
 41
0.4064
 70
0
  0
VERTEX
  8
1
 10
35.3717
 20
76.3606
 30
0.0000
 42
1.0000
  0
VERTEX
  8
1
 10
35.1133
 20
76.6744
 30
0.0000
  0
SEQEND
  8
0
  0
POLYLINE
  8
1
 66
1
 10
0.0000
 20
0.0000
 30
0.0000
 40
0.4064
 41
0.4064
 70
0
  0
VERTEX
  8
1
 10
29.7158
 20
72.2294
 30
0.0000
 42
1.0000
  0
VERTEX
  8
1
 10
29.9742
 20
71.9156
 30
0.0000
  0
SEQEND
  8
0
  0
POLYLINE
  8
1
 66
1
 10
0.0000
 20
0.0000
 30
0.0000
 40
0.8128
 41
0.8128
 70
0
  0
VERTEX
  8
1
 10
35.2425
 20
76.5175
 30
0.0000
  0
VERTEX
  8
1
 10
35.2425
 20
92.0750
 30
0.0000
  0
SEQEND
  8
0
  0
POLYLINE
  8
1
 66
1
 10
0.0000
 20
0.0000
 30
0.0000
 40
0.4064
 41
0.4064
 70
0
  0
VERTEX
  8
1
 10
35.4457
 20
92.0750
 30
0.0000
 42
1.0000
  0
VERTEX
  8
1
 10
35.0393
 20
92.0750
 30
0.0000
  0
SEQEND
  8
0
  0
POLYLINE
  8
1
 66
1
 10
0.0000
 20
0.0000
 30
0.0000
 40
0.4064
 41
0.4064
 70
0
  0
VERTEX
  8
1
 10
35.0393
 20
76.5175
 30
0.0000
 42
1.0000
  0
VERTEX
  8
1
 10
35.4457
 20
76.5175
 30
0.0000
  0
SEQEND
  8
0
  0
POLYLINE
  8
1
 66
1
 10
0.0000
 20
0.0000
 30
0.0000
 40
0.8128
 41
0.8128
 70
0
  0
VERTEX
  8
1
 10
35.2425
 20
92.0750
 30
0.0000
  0
VERTEX
  8
1
 10
35.2425
 20
93.9800
 30
0.0000
  0
SEQEND
  8
0
  0
POLYLINE
  8
1
 66
1
 10
0.0000
 20
0.0000
 30
0.0000
 40
0.4064
 41
0.4064
 70
0
  0
VERTEX
  8
1
 10
35.4457
 20
93.9800
 30
0.0000
 42
1.0000
  0
VERTEX
  8
1
 10
35.0393
 20
93.9800
 30
0.0000
  0
SEQEND
  8
0
  0
POLYLINE
  8
1
 66
1
 10
0.0000
 20
0.0000
 30
0.0000
 40
0.4064
 41
0.4064
 70
0
  0
VERTEX
  8
1
 10
35.0393
 20
92.0750
 30
0.0000
 42
1.0000
  0
VERTEX
  8
1
 10
35.4457
 20
92.0750
 30
0.0000
  0
SEQEND
  8
0
  0
INSERT
  8
18
  2
ROUNDV
 10
35.2425
 20
93.9800
 30
0.0000
 41
1.6764
 42
1.6764
 43
1.0000
 50
0.0000
  0
INSERT
  8
18
  2
ROUNDV
 10
35.2425
 20
93.9800
 30
0.0000
 41
1.6764
 42
1.6764
 43
1.0000
 50
0.0000
  0
POLYLINE
  8
1
 66
1
 10
0.0000
 20
0.0000
 30
0.0000
 40
1.2700
 41
1.2700
 70
0
  0
VERTEX
  8
1
 10
6.0325
 20
60.6425
 30
0.0000
  0
VERTEX
  8
1
 10
6.0325
 20
77.4700
 30
0.0000
  0
SEQEND
  8
0
  0
POLYLINE
  8
1
 66
1
 10
0.0000
 20
0.0000
 30
0.0000
 40
0.6350
 41
0.6350
 70
0
  0
VERTEX
  8
1
 10
6.3500
 20
77.4700
 30
0.0000
 42
1.0000
  0
VERTEX
  8
1
 10
5.7150
 20
77.4700
 30
0.0000
  0
SEQEND
  8
0
  0
POLYLINE
  8
1
 66
1
 10
0.0000
 20
0.0000
 30
0.0000
 40
0.6350
 41
0.6350
 70
0
  0
VERTEX
  8
1
 10
5.7150
 20
60.6425
 30
0.0000
 42
1.0000
  0
VERTEX
  8
1
 10
6.3500
 20
60.6425
 30
0.0000
  0
SEQEND
  8
0
  0
POLYLINE
  8
1
 66
1
 10
0.0000
 20
0.0000
 30
0.0000
 40
1.2700
 41
1.2700
 70
0
  0
VERTEX
  8
1
 10
6.0325
 20
77.4700
 30
0.0000
  0
VERTEX
  8
1
 10
6.0325
 20
78.7400
 30
0.0000
  0
SEQEND
  8
0
  0
POLYLINE
  8
1
 66
1
 10
0.0000
 20
0.0000
 30
0.0000
 40
0.6350
 41
0.6350
 70
0
  0
VERTEX
  8
1
 10
6.3500
 20
78.7400
 30
0.0000
 42
1.0000
  0
VERTEX
  8
1
 10
5.7150
 20
78.7400
 30
0.0000
  0
SEQEND
  8
0
  0
POLYLINE
  8
1
 66
1
 10
0.0000
 20
0.0000
 30
0.0000
 40
0.6350
 41
0.6350
 70
0
  0
VERTEX
  8
1
 10
5.7150
 20
77.4700
 30
0.0000
 42
1.0000
  0
VERTEX
  8
1
 10
6.3500
 20
77.4700
 30
0.0000
  0
SEQEND
  8
0
  0
POLYLINE
  8
1
 66
1
 10
0.0000
 20
0.0000
 30
0.0000
 40
1.2700
 41
1.2700
 70
0
  0
VERTEX
  8
1
 10
6.0325
 20
78.7400
 30
0.0000
  0
VERTEX
  8
1
 10
6.0325
 20
80.0100
 30
0.0000
  0
SEQEND
  8
0
  0
POLYLINE
  8
1
 66
1
 10
0.0000
 20
0.0000
 30
0.0000
 40
0.6350
 41
0.6350
 70
0
  0
VERTEX
  8
1
 10
6.3500
 20
80.0100
 30
0.0000
 42
1.0000
  0
VERTEX
  8
1
 10
5.7150
 20
80.0100
 30
0.0000
  0
SEQEND
  8
0
  0
POLYLINE
  8
1
 66
1
 10
0.0000
 20
0.0000
 30
0.0000
 40
0.6350
 41
0.6350
 70
0
  0
VERTEX
  8
1
 10
5.7150
 20
78.7400
 30
0.0000
 42
1.0000
  0
VERTEX
  8
1
 10
6.3500
 20
78.7400
 30
0.0000
  0
SEQEND
  8
0
  0
POLYLINE
  8
1
 66
1
 10
0.0000
 20
0.0000
 30
0.0000
 40
1.2700
 41
1.2700
 70
0
  0
VERTEX
  8
1
 10
6.0325
 20
80.0100
 30
0.0000
  0
VERTEX
  8
1
 10
6.0325
 20
81.9150
 30
0.0000
  0
SEQEND
  8
0
  0
POLYLINE
  8
1
 66
1
 10
0.0000
 20
0.0000
 30
0.0000
 40
0.6350
 41
0.6350
 70
0
  0
VERTEX
  8
1
 10
6.3500
 20
81.9150
 30
0.0000
 42
1.0000
  0
VERTEX
  8
1
 10
5.7150
 20
81.9150
 30
0.0000
  0
SEQEND
  8
0
  0
POLYLINE
  8
1
 66
1
 10
0.0000
 20
0.0000
 30
0.0000
 40
0.6350
 41
0.6350
 70
0
  0
VERTEX
  8
1
 10
5.7150
 20
80.0100
 30
0.0000
 42
1.0000
  0
VERTEX
  8
1
 10
6.3500
 20
80.0100
 30
0.0000
  0
SEQEND
  8
0
  0
POLYLINE
  8
16
 66
1
 10
0.0000
 20
0.0000
 30
0.0000
 40
1.2700
 41
1.2700
 70
0
  0
VERTEX
  8
16
 10
18.7325
 20
88.2650
 30
0.0000
  0
VERTEX
  8
16
 10
20.0025
 20
88.2650
 30
0.0000
  0
SEQEND
  8
0
  0
POLYLINE
  8
16
 66
1
 10
0.0000
 20
0.0000
 30
0.0000
 40
0.6350
 41
0.6350
 70
0
  0
VERTEX
  8
16
 10
20.0025
 20
87.9475
 30
0.0000
 42
1.0000
  0
VERTEX
  8
16
 10
20.0025
 20
88.5825
 30
0.0000
  0
SEQEND
  8
0
  0
POLYLINE
  8
16
 66
1
 10
0.0000
 20
0.0000
 30
0.0000
 40
0.6350
 41
0.6350
 70
0
  0
VERTEX
  8
16
 10
18.7325
 20
88.5825
 30
0.0000
 42
1.0000
  0
VERTEX
  8
16
 10
18.7325
 20
87.9475
 30
0.0000
  0
SEQEND
  8
0
  0
POLYLINE
  8
16
 66
1
 10
0.0000
 20
0.0000
 30
0.0000
 40
1.2700
 41
1.2700
 70
0
  0
VERTEX
  8
16
 10
20.0025
 20
88.2650
 30
0.0000
  0
VERTEX
  8
16
 10
18.7325
 20
88.2650
 30
0.0000
  0
SEQEND
  8
0
  0
POLYLINE
  8
16
 66
1
 10
0.0000
 20
0.0000
 30
0.0000
 40
0.6350
 41
0.6350
 70
0
  0
VERTEX
  8
16
 10
18.7325
 20
88.5825
 30
0.0000
 42
1.0000
  0
VERTEX
  8
16
 10
18.7325
 20
87.9475
 30
0.0000
  0
SEQEND
  8
0
  0
POLYLINE
  8
16
 66
1
 10
0.0000
 20
0.0000
 30
0.0000
 40
0.6350
 41
0.6350
 70
0
  0
VERTEX
  8
16
 10
20.0025
 20
87.9475
 30
0.0000
 42
1.0000
  0
VERTEX
  8
16
 10
20.0025
 20
88.5825
 30
0.0000
  0
SEQEND
  8
0
  0
POLYLINE
  8
1
 66
1
 10
0.0000
 20
0.0000
 30
0.0000
 40
1.2700
 41
1.2700
 70
0
  0
VERTEX
  8
1
 10
6.0325
 20
81.9150
 30
0.0000
  0
VERTEX
  8
1
 10
8.5725
 20
84.4550
 30
0.0000
  0
SEQEND
  8
0
  0
POLYLINE
  8
1
 66
1
 10
0.0000
 20
0.0000
 30
0.0000
 40
0.6350
 41
0.6350
 70
0
  0
VERTEX
  8
1
 10
8.7970
 20
84.2305
 30
0.0000
 42
1.0000
  0
VERTEX
  8
1
 10
8.3480
 20
84.6795
 30
0.0000
  0
SEQEND
  8
0
  0
POLYLINE
  8
1
 66
1
 10
0.0000
 20
0.0000
 30
0.0000
 40
0.6350
 41
0.6350
 70
0
  0
VERTEX
  8
1
 10
5.8080
 20
82.1395
 30
0.0000
 42
1.0000
  0
VERTEX
  8
1
 10
6.2570
 20
81.6905
 30
0.0000
  0
SEQEND
  8
0
  0
POLYLINE
  8
16
 66
1
 10
0.0000
 20
0.0000
 30
0.0000
 40
1.2700
 41
1.2700
 70
0
  0
VERTEX
  8
16
 10
8.5725
 20
84.4550
 30
0.0000
  0
VERTEX
  8
16
 10
13.6525
 20
88.2650
 30
0.0000
  0
SEQEND
  8
0
  0
POLYLINE
  8
16
 66
1
 10
0.0000
 20
0.0000
 30
0.0000
 40
0.6350
 41
0.6350
 70
0
  0
VERTEX
  8
16
 10
13.8430
 20
88.0110
 30
0.0000
 42
1.0000
  0
VERTEX
  8
16
 10
13.4620
 20
88.5190
 30
0.0000
  0
SEQEND
  8
0
  0
POLYLINE
  8
16
 66
1
 10
0.0000
 20
0.0000
 30
0.0000
 40
0.6350
 41
0.6350
 70
0
  0
VERTEX
  8
16
 10
8.3820
 20
84.7090
 30
0.0000
 42
1.0000
  0
VERTEX
  8
16
 10
8.7630
 20
84.2010
 30
0.0000
  0
SEQEND
  8
0
  0
POLYLINE
  8
16
 66
1
 10
0.0000
 20
0.0000
 30
0.0000
 40
1.2700
 41
1.2700
 70
0
  0
VERTEX
  8
16
 10
13.6525
 20
88.2650
 30
0.0000
  0
VERTEX
  8
16
 10
18.7325
 20
88.2650
 30
0.0000
  0
SEQEND
  8
0
  0
POLYLINE
  8
16
 66
1
 10
0.0000
 20
0.0000
 30
0.0000
 40
0.6350
 41
0.6350
 70
0
  0
VERTEX
  8
16
 10
18.7325
 20
87.9475
 30
0.0000
 42
1.0000
  0
VERTEX
  8
16
 10
18.7325
 20
88.5825
 30
0.0000
  0
SEQEND
  8
0
  0
POLYLINE
  8
16
 66
1
 10
0.0000
 20
0.0000
 30
0.0000
 40
0.6350
 41
0.6350
 70
0
  0
VERTEX
  8
16
 10
13.6525
 20
88.5825
 30
0.0000
 42
1.0000
  0
VERTEX
  8
16
 10
13.6525
 20
87.9475
 30
0.0000
  0
SEQEND
  8
0
  0
INSERT
  8
18
  2
ROUNDV
 10
8.5725
 20
84.4550
 30
0.0000
 41
1.6764
 42
1.6764
 43
1.0000
 50
0.0000
  0
INSERT
  8
18
  2
ROUNDV
 10
8.5725
 20
84.4550
 30
0.0000
 41
1.6764
 42
1.6764
 43
1.0000
 50
0.0000
  0
POLYLINE
  8
1
 66
1
 10
0.0000
 20
0.0000
 30
0.0000
 40
1.2700
 41
1.2700
 70
0
  0
VERTEX
  8
1
 10
8.5725
 20
60.6425
 30
0.0000
  0
VERTEX
  8
1
 10
8.5725
 20
77.4700
 30
0.0000
  0
SEQEND
  8
0
  0
POLYLINE
  8
1
 66
1
 10
0.0000
 20
0.0000
 30
0.0000
 40
0.6350
 41
0.6350
 70
0
  0
VERTEX
  8
1
 10
8.8900
 20
77.4700
 30
0.0000
 42
1.0000
  0
VERTEX
  8
1
 10
8.2550
 20
77.4700
 30
0.0000
  0
SEQEND
  8
0
  0
POLYLINE
  8
1
 66
1
 10
0.0000
 20
0.0000
 30
0.0000
 40
0.6350
 41
0.6350
 70
0
  0
VERTEX
  8
1
 10
8.2550
 20
60.6425
 30
0.0000
 42
1.0000
  0
VERTEX
  8
1
 10
8.8900
 20
60.6425
 30
0.0000
  0
SEQEND
  8
0
  0
POLYLINE
  8
1
 66
1
 10
0.0000
 20
0.0000
 30
0.0000
 40
1.2700
 41
1.2700
 70
0
  0
VERTEX
  8
1
 10
8.5725
 20
77.4700
 30
0.0000
  0
VERTEX
  8
1
 10
8.5725
 20
80.6450
 30
0.0000
  0
SEQEND
  8
0
  0
POLYLINE
  8
1
 66
1
 10
0.0000
 20
0.0000
 30
0.0000
 40
0.6350
 41
0.6350
 70
0
  0
VERTEX
  8
1
 10
8.8900
 20
80.6450
 30
0.0000
 42
1.0000
  0
VERTEX
  8
1
 10
8.2550
 20
80.6450
 30
0.0000
  0
SEQEND
  8
0
  0
POLYLINE
  8
1
 66
1
 10
0.0000
 20
0.0000
 30
0.0000
 40
0.6350
 41
0.6350
 70
0
  0
VERTEX
  8
1
 10
8.2550
 20
77.4700
 30
0.0000
 42
1.0000
  0
VERTEX
  8
1
 10
8.8900
 20
77.4700
 30
0.0000
  0
SEQEND
  8
0
  0
POLYLINE
  8
16
 66
1
 10
0.0000
 20
0.0000
 30
0.0000
 40
1.2700
 41
1.2700
 70
0
  0
VERTEX
  8
16
 10
8.5725
 20
80.6450
 30
0.0000
  0
VERTEX
  8
16
 10
14.9225
 20
85.7250
 30
0.0000
  0
SEQEND
  8
0
  0
POLYLINE
  8
16
 66
1
 10
0.0000
 20
0.0000
 30
0.0000
 40
0.6350
 41
0.6350
 70
0
  0
VERTEX
  8
16
 10
15.1208
 20
85.4771
 30
0.0000
 42
1.0000
  0
VERTEX
  8
16
 10
14.7242
 20
85.9729
 30
0.0000
  0
SEQEND
  8
0
  0
POLYLINE
  8
16
 66
1
 10
0.0000
 20
0.0000
 30
0.0000
 40
0.6350
 41
0.6350
 70
0
  0
VERTEX
  8
16
 10
8.3742
 20
80.8929
 30
0.0000
 42
1.0000
  0
VERTEX
  8
16
 10
8.7708
 20
80.3971
 30
0.0000
  0
SEQEND
  8
0
  0
POLYLINE
  8
16
 66
1
 10
0.0000
 20
0.0000
 30
0.0000
 40
1.2700
 41
1.2700
 70
0
  0
VERTEX
  8
16
 10
14.9225
 20
85.7250
 30
0.0000
  0
VERTEX
  8
16
 10
18.7325
 20
85.7250
 30
0.0000
  0
SEQEND
  8
0
  0
POLYLINE
  8
16
 66
1
 10
0.0000
 20
0.0000
 30
0.0000
 40
0.6350
 41
0.6350
 70
0
  0
VERTEX
  8
16
 10
18.7325
 20
85.4075
 30
0.0000
 42
1.0000
  0
VERTEX
  8
16
 10
18.7325
 20
86.0425
 30
0.0000
  0
SEQEND
  8
0
  0
POLYLINE
  8
16
 66
1
 10
0.0000
 20
0.0000
 30
0.0000
 40
0.6350
 41
0.6350
 70
0
  0
VERTEX
  8
16
 10
14.9225
 20
86.0425
 30
0.0000
 42
1.0000
  0
VERTEX
  8
16
 10
14.9225
 20
85.4075
 30
0.0000
  0
SEQEND
  8
0
  0
INSERT
  8
18
  2
ROUNDV
 10
8.5725
 20
80.6450
 30
0.0000
 41
1.6764
 42
1.6764
 43
1.0000
 50
0.0000
  0
INSERT
  8
18
  2
ROUNDV
 10
8.5725
 20
80.6450
 30
0.0000
 41
1.6764
 42
1.6764
 43
1.0000
 50
0.0000
  0
INSERT
  8
18
  2
ROUNDV
 10
25.7175
 20
64.1350
 30
0.0000
 41
1.6764
 42
1.6764
 43
1.0000
 50
0.0000
  0
INSERT
  8
18
  2
ROUNDV
 10
25.7175
 20
64.1350
 30
0.0000
 41
1.6764
 42
1.6764
 43
1.0000
 50
0.0000
  0
INSERT
  8
18
  2
ROUNDV
 10
11.1125
 20
69.5325
 30
0.0000
 41
1.6764
 42
1.6764
 43
1.0000
 50
0.0000
  0
INSERT
  8
18
  2
ROUNDV
 10
11.1125
 20
69.5325
 30
0.0000
 41
1.6764
 42
1.6764
 43
1.0000
 50
0.0000
  0
POLYLINE
  8
1
 66
1
 10
0.0000
 20
0.0000
 30
0.0000
 40
0.8128
 41
0.8128
 70
0
  0
VERTEX
  8
1
 10
13.6525
 20
3.4925
 30
0.0000
  0
VERTEX
  8
1
 10
13.6525
 20
8.5725
 30
0.0000
  0
SEQEND
  8
0
  0
POLYLINE
  8
1
 66
1
 10
0.0000
 20
0.0000
 30
0.0000
 40
0.4064
 41
0.4064
 70
0
  0
VERTEX
  8
1
 10
13.8557
 20
8.5725
 30
0.0000
 42
1.0000
  0
VERTEX
  8
1
 10
13.4493
 20
8.5725
 30
0.0000
  0
SEQEND
  8
0
  0
POLYLINE
  8
1
 66
1
 10
0.0000
 20
0.0000
 30
0.0000
 40
0.4064
 41
0.4064
 70
0
  0
VERTEX
  8
1
 10
13.4493
 20
3.4925
 30
0.0000
 42
1.0000
  0
VERTEX
  8
1
 10
13.8557
 20
3.4925
 30
0.0000
  0
SEQEND
  8
0
  0
POLYLINE
  8
16
 66
1
 10
0.0000
 20
0.0000
 30
0.0000
 40
0.8128
 41
0.8128
 70
0
  0
VERTEX
  8
16
 10
13.6525
 20
8.5725
 30
0.0000
  0
VERTEX
  8
16
 10
13.6525
 20
61.2775
 30
0.0000
  0
SEQEND
  8
0
  0
POLYLINE
  8
16
 66
1
 10
0.0000
 20
0.0000
 30
0.0000
 40
0.4064
 41
0.4064
 70
0
  0
VERTEX
  8
16
 10
13.8557
 20
61.2775
 30
0.0000
 42
1.0000
  0
VERTEX
  8
16
 10
13.4493
 20
61.2775
 30
0.0000
  0
SEQEND
  8
0
  0
POLYLINE
  8
16
 66
1
 10
0.0000
 20
0.0000
 30
0.0000
 40
0.4064
 41
0.4064
 70
0
  0
VERTEX
  8
16
 10
13.4493
 20
8.5725
 30
0.0000
 42
1.0000
  0
VERTEX
  8
16
 10
13.8557
 20
8.5725
 30
0.0000
  0
SEQEND
  8
0
  0
POLYLINE
  8
16
 66
1
 10
0.0000
 20
0.0000
 30
0.0000
 40
0.8128
 41
0.8128
 70
0
  0
VERTEX
  8
16
 10
13.6525
 20
61.2775
 30
0.0000
  0
VERTEX
  8
16
 10
13.6525
 20
66.6750
 30
0.0000
  0
SEQEND
  8
0
  0
POLYLINE
  8
16
 66
1
 10
0.0000
 20
0.0000
 30
0.0000
 40
0.4064
 41
0.4064
 70
0
  0
VERTEX
  8
16
 10
13.8557
 20
66.6750
 30
0.0000
 42
1.0000
  0
VERTEX
  8
16
 10
13.4493
 20
66.6750
 30
0.0000
  0
SEQEND
  8
0
  0
POLYLINE
  8
16
 66
1
 10
0.0000
 20
0.0000
 30
0.0000
 40
0.4064
 41
0.4064
 70
0
  0
VERTEX
  8
16
 10
13.4493
 20
61.2775
 30
0.0000
 42
1.0000
  0
VERTEX
  8
16
 10
13.8557
 20
61.2775
 30
0.0000
  0
SEQEND
  8
0
  0
POLYLINE
  8
16
 66
1
 10
0.0000
 20
0.0000
 30
0.0000
 40
0.8128
 41
0.8128
 70
0
  0
VERTEX
  8
16
 10
13.6525
 20
66.6750
 30
0.0000
  0
VERTEX
  8
16
 10
28.5750
 20
75.8825
 30
0.0000
  0
SEQEND
  8
0
  0
POLYLINE
  8
16
 66
1
 10
0.0000
 20
0.0000
 30
0.0000
 40
0.4064
 41
0.4064
 70
0
  0
VERTEX
  8
16
 10
28.6817
 20
75.7096
 30
0.0000
 42
1.0000
  0
VERTEX
  8
16
 10
28.4683
 20
76.0554
 30
0.0000
  0
SEQEND
  8
0
  0
POLYLINE
  8
16
 66
1
 10
0.0000
 20
0.0000
 30
0.0000
 40
0.4064
 41
0.4064
 70
0
  0
VERTEX
  8
16
 10
13.5458
 20
66.8479
 30
0.0000
 42
1.0000
  0
VERTEX
  8
16
 10
13.7592
 20
66.5021
 30
0.0000
  0
SEQEND
  8
0
  0
POLYLINE
  8
16
 66
1
 10
0.0000
 20
0.0000
 30
0.0000
 40
0.8128
 41
0.8128
 70
0
  0
VERTEX
  8
16
 10
28.5750
 20
75.8825
 30
0.0000
  0
VERTEX
  8
16
 10
33.3375
 20
75.8825
 30
0.0000
  0
SEQEND
  8
0
  0
POLYLINE
  8
16
 66
1
 10
0.0000
 20
0.0000
 30
0.0000
 40
0.4064
 41
0.4064
 70
0
  0
VERTEX
  8
16
 10
33.3375
 20
75.6793
 30
0.0000
 42
1.0000
  0
VERTEX
  8
16
 10
33.3375
 20
76.0857
 30
0.0000
  0
SEQEND
  8
0
  0
POLYLINE
  8
16
 66
1
 10
0.0000
 20
0.0000
 30
0.0000
 40
0.4064
 41
0.4064
 70
0
  0
VERTEX
  8
16
 10
28.5750
 20
76.0857
 30
0.0000
 42
1.0000
  0
VERTEX
  8
16
 10
28.5750
 20
75.6793
 30
0.0000
  0
SEQEND
  8
0
  0
POLYLINE
  8
16
 66
1
 10
0.0000
 20
0.0000
 30
0.0000
 40
0.8128
 41
0.8128
 70
0
  0
VERTEX
  8
16
 10
33.3375
 20
75.8825
 30
0.0000
  0
VERTEX
  8
16
 10
34.2900
 20
76.5175
 30
0.0000
  0
SEQEND
  8
0
  0
POLYLINE
  8
16
 66
1
 10
0.0000
 20
0.0000
 30
0.0000
 40
0.4064
 41
0.4064
 70
0
  0
VERTEX
  8
16
 10
34.4027
 20
76.3484
 30
0.0000
 42
1.0000
  0
VERTEX
  8
16
 10
34.1773
 20
76.6866
 30
0.0000
  0
SEQEND
  8
0
  0
POLYLINE
  8
16
 66
1
 10
0.0000
 20
0.0000
 30
0.0000
 40
0.4064
 41
0.4064
 70
0
  0
VERTEX
  8
16
 10
33.2248
 20
76.0516
 30
0.0000
 42
1.0000
  0
VERTEX
  8
16
 10
33.4502
 20
75.7134
 30
0.0000
  0
SEQEND
  8
0
  0
POLYLINE
  8
16
 66
1
 10
0.0000
 20
0.0000
 30
0.0000
 40
0.8128
 41
0.8128
 70
0
  0
VERTEX
  8
16
 10
34.2900
 20
76.5175
 30
0.0000
  0
VERTEX
  8
16
 10
34.2900
 20
87.3125
 30
0.0000
  0
SEQEND
  8
0
  0
POLYLINE
  8
16
 66
1
 10
0.0000
 20
0.0000
 30
0.0000
 40
0.4064
 41
0.4064
 70
0
  0
VERTEX
  8
16
 10
34.4932
 20
87.3125
 30
0.0000
 42
1.0000
  0
VERTEX
  8
16
 10
34.0868
 20
87.3125
 30
0.0000
  0
SEQEND
  8
0
  0
POLYLINE
  8
16
 66
1
 10
0.0000
 20
0.0000
 30
0.0000
 40
0.4064
 41
0.4064
 70
0
  0
VERTEX
  8
16
 10
34.0868
 20
76.5175
 30
0.0000
 42
1.0000
  0
VERTEX
  8
16
 10
34.4932
 20
76.5175
 30
0.0000
  0
SEQEND
  8
0
  0
POLYLINE
  8
16
 66
1
 10
0.0000
 20
0.0000
 30
0.0000
 40
0.8128
 41
0.8128
 70
0
  0
VERTEX
  8
16
 10
34.2900
 20
87.3125
 30
0.0000
  0
VERTEX
  8
16
 10
32.7025
 20
88.2650
 30
0.0000
  0
SEQEND
  8
0
  0
POLYLINE
  8
16
 66
1
 10
0.0000
 20
0.0000
 30
0.0000
 40
0.4064
 41
0.4064
 70
0
  0
VERTEX
  8
16
 10
32.8070
 20
88.4392
 30
0.0000
 42
1.0000
  0
VERTEX
  8
16
 10
32.5980
 20
88.0908
 30
0.0000
  0
SEQEND
  8
0
  0
POLYLINE
  8
16
 66
1
 10
0.0000
 20
0.0000
 30
0.0000
 40
0.4064
 41
0.4064
 70
0
  0
VERTEX
  8
16
 10
34.1855
 20
87.1383
 30
0.0000
 42
1.0000
  0
VERTEX
  8
16
 10
34.3945
 20
87.4867
 30
0.0000
  0
SEQEND
  8
0
  0
POLYLINE
  8
16
 66
1
 10
0.0000
 20
0.0000
 30
0.0000
 40
0.8128
 41
0.8128
 70
0
  0
VERTEX
  8
16
 10
32.7025
 20
88.2650
 30
0.0000
  0
VERTEX
  8
16
 10
31.4325
 20
88.2650
 30
0.0000
  0
SEQEND
  8
0
  0
POLYLINE
  8
16
 66
1
 10
0.0000
 20
0.0000
 30
0.0000
 40
0.4064
 41
0.4064
 70
0
  0
VERTEX
  8
16
 10
31.4325
 20
88.4682
 30
0.0000
 42
1.0000
  0
VERTEX
  8
16
 10
31.4325
 20
88.0618
 30
0.0000
  0
SEQEND
  8
0
  0
POLYLINE
  8
16
 66
1
 10
0.0000
 20
0.0000
 30
0.0000
 40
0.4064
 41
0.4064
 70
0
  0
VERTEX
  8
16
 10
32.7025
 20
88.0618
 30
0.0000
 42
1.0000
  0
VERTEX
  8
16
 10
32.7025
 20
88.4682
 30
0.0000
  0
SEQEND
  8
0
  0
INSERT
  8
18
  2
ROUNDV
 10
13.6525
 20
8.5725
 30
0.0000
 41
1.6764
 42
1.6764
 43
1.0000
 50
0.0000
  0
INSERT
  8
18
  2
ROUNDV
 10
13.6525
 20
8.5725
 30
0.0000
 41
1.6764
 42
1.6764
 43
1.0000
 50
0.0000
  0
POLYLINE
  8
1
 66
1
 10
0.0000
 20
0.0000
 30
0.0000
 40
0.8128
 41
0.8128
 70
0
  0
VERTEX
  8
1
 10
26.3525
 20
3.4925
 30
0.0000
  0
VERTEX
  8
1
 10
26.3525
 20
7.3025
 30
0.0000
  0
SEQEND
  8
0
  0
POLYLINE
  8
1
 66
1
 10
0.0000
 20
0.0000
 30
0.0000
 40
0.4064
 41
0.4064
 70
0
  0
VERTEX
  8
1
 10
26.5557
 20
7.3025
 30
0.0000
 42
1.0000
  0
VERTEX
  8
1
 10
26.1493
 20
7.3025
 30
0.0000
  0
SEQEND
  8
0
  0
POLYLINE
  8
1
 66
1
 10
0.0000
 20
0.0000
 30
0.0000
 40
0.4064
 41
0.4064
 70
0
  0
VERTEX
  8
1
 10
26.1493
 20
3.4925
 30
0.0000
 42
1.0000
  0
VERTEX
  8
1
 10
26.5557
 20
3.4925
 30
0.0000
  0
SEQEND
  8
0
  0
POLYLINE
  8
1
 66
1
 10
0.0000
 20
0.0000
 30
0.0000
 40
0.8128
 41
0.8128
 70
0
  0
VERTEX
  8
1
 10
20.6375
 20
66.3575
 30
0.0000
  0
VERTEX
  8
1
 10
13.0175
 20
74.6125
 30
0.0000
  0
SEQEND
  8
0
  0
POLYLINE
  8
1
 66
1
 10
0.0000
 20
0.0000
 30
0.0000
 40
0.4064
 41
0.4064
 70
0
  0
VERTEX
  8
1
 10
13.1668
 20
74.7503
 30
0.0000
 42
1.0000
  0
VERTEX
  8
1
 10
12.8682
 20
74.4747
 30
0.0000
  0
SEQEND
  8
0
  0
POLYLINE
  8
1
 66
1
 10
0.0000
 20
0.0000
 30
0.0000
 40
0.4064
 41
0.4064
 70
0
  0
VERTEX
  8
1
 10
20.4882
 20
66.2197
 30
0.0000
 42
1.0000
  0
VERTEX
  8
1
 10
20.7868
 20
66.4953
 30
0.0000
  0
SEQEND
  8
0
  0
POLYLINE
  8
1
 66
1
 10
0.0000
 20
0.0000
 30
0.0000
 40
0.8128
 41
0.8128
 70
0
  0
VERTEX
  8
1
 10
13.0175
 20
74.6125
 30
0.0000
  0
VERTEX
  8
1
 10
13.0175
 20
92.7100
 30
0.0000
  0
SEQEND
  8
0
  0
POLYLINE
  8
1
 66
1
 10
0.0000
 20
0.0000
 30
0.0000
 40
0.4064
 41
0.4064
 70
0
  0
VERTEX
  8
1
 10
13.2207
 20
92.7100
 30
0.0000
 42
1.0000
  0
VERTEX
  8
1
 10
12.8143
 20
92.7100
 30
0.0000
  0
SEQEND
  8
0
  0
POLYLINE
  8
1
 66
1
 10
0.0000
 20
0.0000
 30
0.0000
 40
0.4064
 41
0.4064
 70
0
  0
VERTEX
  8
1
 10
12.8143
 20
74.6125
 30
0.0000
 42
1.0000
  0
VERTEX
  8
1
 10
13.2207
 20
74.6125
 30
0.0000
  0
SEQEND
  8
0
  0
POLYLINE
  8
16
 66
1
 10
0.0000
 20
0.0000
 30
0.0000
 40
0.8128
 41
0.8128
 70
0
  0
VERTEX
  8
16
 10
20.0025
 20
12.0650
 30
0.0000
  0
VERTEX
  8
16
 10
26.3525
 20
7.3025
 30
0.0000
  0
SEQEND
  8
0
  0
POLYLINE
  8
16
 66
1
 10
0.0000
 20
0.0000
 30
0.0000
 40
0.4064
 41
0.4064
 70
0
  0
VERTEX
  8
16
 10
26.2306
 20
7.1399
 30
0.0000
 42
1.0000
  0
VERTEX
  8
16
 10
26.4744
 20
7.4651
 30
0.0000
  0
SEQEND
  8
0
  0
POLYLINE
  8
16
 66
1
 10
0.0000
 20
0.0000
 30
0.0000
 40
0.4064
 41
0.4064
 70
0
  0
VERTEX
  8
16
 10
20.1244
 20
12.2276
 30
0.0000
 42
1.0000
  0
VERTEX
  8
16
 10
19.8806
 20
11.9024
 30
0.0000
  0
SEQEND
  8
0
  0
POLYLINE
  8
16
 66
1
 10
0.0000
 20
0.0000
 30
0.0000
 40
0.8128
 41
0.8128
 70
0
  0
VERTEX
  8
16
 10
13.0175
 20
92.7100
 30
0.0000
  0
VERTEX
  8
16
 10
16.0477
 20
92.7100
 30
0.0000
  0
SEQEND
  8
0
  0
POLYLINE
  8
16
 66
1
 10
0.0000
 20
0.0000
 30
0.0000
 40
0.4064
 41
0.4064
 70
0
  0
VERTEX
  8
16
 10
16.0477
 20
92.5068
 30
0.0000
 42
1.0000
  0
VERTEX
  8
16
 10
16.0477
 20
92.9132
 30
0.0000
  0
SEQEND
  8
0
  0
POLYLINE
  8
16
 66
1
 10
0.0000
 20
0.0000
 30
0.0000
 40
0.4064
 41
0.4064
 70
0
  0
VERTEX
  8
16
 10
13.0175
 20
92.9132
 30
0.0000
 42
1.0000
  0
VERTEX
  8
16
 10
13.0175
 20
92.5068
 30
0.0000
  0
SEQEND
  8
0
  0
POLYLINE
  8
16
 66
1
 10
0.0000
 20
0.0000
 30
0.0000
 40
0.8128
 41
0.8128
 70
0
  0
VERTEX
  8
16
 10
20.6375
 20
66.3575
 30
0.0000
  0
VERTEX
  8
16
 10
20.6375
 20
58.1025
 30
0.0000
  0
SEQEND
  8
0
  0
POLYLINE
  8
16
 66
1
 10
0.0000
 20
0.0000
 30
0.0000
 40
0.4064
 41
0.4064
 70
0
  0
VERTEX
  8
16
 10
20.4343
 20
58.1025
 30
0.0000
 42
1.0000
  0
VERTEX
  8
16
 10
20.8407
 20
58.1025
 30
0.0000
  0
SEQEND
  8
0
  0
POLYLINE
  8
16
 66
1
 10
0.0000
 20
0.0000
 30
0.0000
 40
0.4064
 41
0.4064
 70
0
  0
VERTEX
  8
16
 10
20.8407
 20
66.3575
 30
0.0000
 42
1.0000
  0
VERTEX
  8
16
 10
20.4343
 20
66.3575
 30
0.0000
  0
SEQEND
  8
0
  0
POLYLINE
  8
16
 66
1
 10
0.0000
 20
0.0000
 30
0.0000
 40
0.8128
 41
0.8128
 70
0
  0
VERTEX
  8
16
 10
20.6375
 20
58.1025
 30
0.0000
  0
VERTEX
  8
16
 10
19.6850
 20
57.1500
 30
0.0000
  0
SEQEND
  8
0
  0
POLYLINE
  8
16
 66
1
 10
0.0000
 20
0.0000
 30
0.0000
 40
0.4064
 41
0.4064
 70
0
  0
VERTEX
  8
16
 10
19.5413
 20
57.2937
 30
0.0000
 42
1.0000
  0
VERTEX
  8
16
 10
19.8287
 20
57.0063
 30
0.0000
  0
SEQEND
  8
0
  0
POLYLINE
  8
16
 66
1
 10
0.0000
 20
0.0000
 30
0.0000
 40
0.4064
 41
0.4064
 70
0
  0
VERTEX
  8
16
 10
20.7812
 20
57.9588
 30
0.0000
 42
1.0000
  0
VERTEX
  8
16
 10
20.4938
 20
58.2462
 30
0.0000
  0
SEQEND
  8
0
  0
POLYLINE
  8
16
 66
1
 10
0.0000
 20
0.0000
 30
0.0000
 40
0.8128
 41
0.8128
 70
0
  0
VERTEX
  8
16
 10
19.6850
 20
57.1500
 30
0.0000
  0
VERTEX
  8
16
 10
19.6850
 20
12.3825
 30
0.0000
  0
SEQEND
  8
0
  0
POLYLINE
  8
16
 66
1
 10
0.0000
 20
0.0000
 30
0.0000
 40
0.4064
 41
0.4064
 70
0
  0
VERTEX
  8
16
 10
19.4818
 20
12.3825
 30
0.0000
 42
1.0000
  0
VERTEX
  8
16
 10
19.8882
 20
12.3825
 30
0.0000
  0
SEQEND
  8
0
  0
POLYLINE
  8
16
 66
1
 10
0.0000
 20
0.0000
 30
0.0000
 40
0.4064
 41
0.4064
 70
0
  0
VERTEX
  8
16
 10
19.8882
 20
57.1500
 30
0.0000
 42
1.0000
  0
VERTEX
  8
16
 10
19.4818
 20
57.1500
 30
0.0000
  0
SEQEND
  8
0
  0
POLYLINE
  8
16
 66
1
 10
0.0000
 20
0.0000
 30
0.0000
 40
0.8128
 41
0.8128
 70
0
  0
VERTEX
  8
16
 10
19.6850
 20
12.3825
 30
0.0000
  0
VERTEX
  8
16
 10
20.0025
 20
12.0650
 30
0.0000
  0
SEQEND
  8
0
  0
POLYLINE
  8
16
 66
1
 10
0.0000
 20
0.0000
 30
0.0000
 40
0.4064
 41
0.4064
 70
0
  0
VERTEX
  8
16
 10
19.8588
 20
11.9213
 30
0.0000
 42
1.0000
  0
VERTEX
  8
16
 10
20.1462
 20
12.2087
 30
0.0000
  0
SEQEND
  8
0
  0
POLYLINE
  8
16
 66
1
 10
0.0000
 20
0.0000
 30
0.0000
 40
0.4064
 41
0.4064
 70
0
  0
VERTEX
  8
16
 10
19.8287
 20
12.5262
 30
0.0000
 42
1.0000
  0
VERTEX
  8
16
 10
19.5413
 20
12.2388
 30
0.0000
  0
SEQEND
  8
0
  0
POLYLINE
  8
16
 66
1
 10
0.0000
 20
0.0000
 30
0.0000
 40
0.8128
 41
0.8128
 70
0
  0
VERTEX
  8
16
 10
16.0477
 20
92.7100
 30
0.0000
  0
VERTEX
  8
16
 10
16.7716
 20
93.4034
 30
0.0000
  0
SEQEND
  8
0
  0
POLYLINE
  8
16
 66
1
 10
0.0000
 20
0.0000
 30
0.0000
 40
0.4064
 41
0.4064
 70
0
  0
VERTEX
  8
16
 10
16.9122
 20
93.2567
 30
0.0000
 42
1.0000
  0
VERTEX
  8
16
 10
16.6311
 20
93.5502
 30
0.0000
  0
SEQEND
  8
0
  0
POLYLINE
  8
16
 66
1
 10
0.0000
 20
0.0000
 30
0.0000
 40
0.4064
 41
0.4064
 70
0
  0
VERTEX
  8
16
 10
15.9072
 20
92.8567
 30
0.0000
 42
1.0000
  0
VERTEX
  8
16
 10
16.1883
 20
92.5633
 30
0.0000
  0
SEQEND
  8
0
  0
POLYLINE
  8
16
 66
1
 10
0.0000
 20
0.0000
 30
0.0000
 40
0.8128
 41
0.8128
 70
0
  0
VERTEX
  8
16
 10
16.7716
 20
93.4034
 30
0.0000
  0
VERTEX
  8
16
 10
16.7605
 20
97.1550
 30
0.0000
  0
SEQEND
  8
0
  0
POLYLINE
  8
16
 66
1
 10
0.0000
 20
0.0000
 30
0.0000
 40
0.4064
 41
0.4064
 70
0
  0
VERTEX
  8
16
 10
16.9637
 20
97.1556
 30
0.0000
 42
1.0000
  0
VERTEX
  8
16
 10
16.5573
 20
97.1544
 30
0.0000
  0
SEQEND
  8
0
  0
POLYLINE
  8
16
 66
1
 10
0.0000
 20
0.0000
 30
0.0000
 40
0.4064
 41
0.4064
 70
0
  0
VERTEX
  8
16
 10
16.5684
 20
93.4028
 30
0.0000
 42
1.0000
  0
VERTEX
  8
16
 10
16.9748
 20
93.4040
 30
0.0000
  0
SEQEND
  8
0
  0
INSERT
  8
18
  2
ROUNDV
 10
26.3525
 20
7.3025
 30
0.0000
 41
1.6764
 42
1.6764
 43
1.0000
 50
0.0000
  0
INSERT
  8
18
  2
ROUNDV
 10
26.3525
 20
7.3025
 30
0.0000
 41
1.6764
 42
1.6764
 43
1.0000
 50
0.0000
  0
INSERT
  8
18
  2
ROUNDV
 10
20.6375
 20
66.3575
 30
0.0000
 41
1.6764
 42
1.6764
 43
1.0000
 50
0.0000
  0
INSERT
  8
18
  2
ROUNDV
 10
20.6375
 20
66.3575
 30
0.0000
 41
1.6764
 42
1.6764
 43
1.0000
 50
0.0000
  0
INSERT
  8
18
  2
ROUNDV
 10
13.0175
 20
92.7100
 30
0.0000
 41
1.6764
 42
1.6764
 43
1.0000
 50
0.0000
  0
INSERT
  8
18
  2
ROUNDV
 10
13.0175
 20
92.7100
 30
0.0000
 41
1.6764
 42
1.6764
 43
1.0000
 50
0.0000
  0
POLYLINE
  8
1
 66
1
 10
0.0000
 20
0.0000
 30
0.0000
 40
0.8128
 41
0.8128
 70
0
  0
VERTEX
  8
1
 10
28.8925
 20
3.4925
 30
0.0000
  0
VERTEX
  8
1
 10
28.8925
 20
8.5725
 30
0.0000
  0
SEQEND
  8
0
  0
POLYLINE
  8
1
 66
1
 10
0.0000
 20
0.0000
 30
0.0000
 40
0.4064
 41
0.4064
 70
0
  0
VERTEX
  8
1
 10
29.0957
 20
8.5725
 30
0.0000
 42
1.0000
  0
VERTEX
  8
1
 10
28.6893
 20
8.5725
 30
0.0000
  0
SEQEND
  8
0
  0
POLYLINE
  8
1
 66
1
 10
0.0000
 20
0.0000
 30
0.0000
 40
0.4064
 41
0.4064
 70
0
  0
VERTEX
  8
1
 10
28.6893
 20
3.4925
 30
0.0000
 42
1.0000
  0
VERTEX
  8
1
 10
29.0957
 20
3.4925
 30
0.0000
  0
SEQEND
  8
0
  0
POLYLINE
  8
16
 66
1
 10
0.0000
 20
0.0000
 30
0.0000
 40
0.8128
 41
0.8128
 70
0
  0
VERTEX
  8
16
 10
28.8925
 20
8.5725
 30
0.0000
  0
VERTEX
  8
16
 10
21.2725
 20
13.9700
 30
0.0000
  0
SEQEND
  8
0
  0
POLYLINE
  8
16
 66
1
 10
0.0000
 20
0.0000
 30
0.0000
 40
0.4064
 41
0.4064
 70
0
  0
VERTEX
  8
16
 10
21.3900
 20
14.1358
 30
0.0000
 42
1.0000
  0
VERTEX
  8
16
 10
21.1550
 20
13.8042
 30
0.0000
  0
SEQEND
  8
0
  0
POLYLINE
  8
16
 66
1
 10
0.0000
 20
0.0000
 30
0.0000
 40
0.4064
 41
0.4064
 70
0
  0
VERTEX
  8
16
 10
28.7750
 20
8.4067
 30
0.0000
 42
1.0000
  0
VERTEX
  8
16
 10
29.0100
 20
8.7383
 30
0.0000
  0
SEQEND
  8
0
  0
POLYLINE
  8
1
 66
1
 10
0.0000
 20
0.0000
 30
0.0000
 40
0.8128
 41
0.8128
 70
0
  0
VERTEX
  8
1
 10
22.8600
 20
67.6275
 30
0.0000
  0
VERTEX
  8
1
 10
14.9225
 20
75.8825
 30
0.0000
  0
SEQEND
  8
0
  0
POLYLINE
  8
1
 66
1
 10
0.0000
 20
0.0000
 30
0.0000
 40
0.4064
 41
0.4064
 70
0
  0
VERTEX
  8
1
 10
15.0690
 20
76.0233
 30
0.0000
 42
1.0000
  0
VERTEX
  8
1
 10
14.7760
 20
75.7417
 30
0.0000
  0
SEQEND
  8
0
  0
POLYLINE
  8
1
 66
1
 10
0.0000
 20
0.0000
 30
0.0000
 40
0.4064
 41
0.4064
 70
0
  0
VERTEX
  8
1
 10
22.7135
 20
67.4867
 30
0.0000
 42
1.0000
  0
VERTEX
  8
1
 10
23.0065
 20
67.7683
 30
0.0000
  0
SEQEND
  8
0
  0
POLYLINE
  8
1
 66
1
 10
0.0000
 20
0.0000
 30
0.0000
 40
0.8128
 41
0.8128
 70
0
  0
VERTEX
  8
1
 10
14.9225
 20
75.8825
 30
0.0000
  0
VERTEX
  8
1
 10
14.9225
 20
91.4400
 30
0.0000
  0
SEQEND
  8
0
  0
POLYLINE
  8
1
 66
1
 10
0.0000
 20
0.0000
 30
0.0000
 40
0.4064
 41
0.4064
 70
0
  0
VERTEX
  8
1
 10
15.1257
 20
91.4400
 30
0.0000
 42
1.0000
  0
VERTEX
  8
1
 10
14.7193
 20
91.4400
 30
0.0000
  0
SEQEND
  8
0
  0
POLYLINE
  8
1
 66
1
 10
0.0000
 20
0.0000
 30
0.0000
 40
0.4064
 41
0.4064
 70
0
  0
VERTEX
  8
1
 10
14.7193
 20
75.8825
 30
0.0000
 42
1.0000
  0
VERTEX
  8
1
 10
15.1257
 20
75.8825
 30
0.0000
  0
SEQEND
  8
0
  0
POLYLINE
  8
16
 66
1
 10
0.0000
 20
0.0000
 30
0.0000
 40
0.8128
 41
0.8128
 70
0
  0
VERTEX
  8
16
 10
14.2875
 20
94.9325
 30
0.0000
  0
VERTEX
  8
16
 10
14.2205
 20
97.1550
 30
0.0000
  0
SEQEND
  8
0
  0
POLYLINE
  8
16
 66
1
 10
0.0000
 20
0.0000
 30
0.0000
 40
0.4064
 41
0.4064
 70
0
  0
VERTEX
  8
16
 10
14.4236
 20
97.1611
 30
0.0000
 42
1.0000
  0
VERTEX
  8
16
 10
14.0174
 20
97.1489
 30
0.0000
  0
SEQEND
  8
0
  0
POLYLINE
  8
16
 66
1
 10
0.0000
 20
0.0000
 30
0.0000
 40
0.4064
 41
0.4064
 70
0
  0
VERTEX
  8
16
 10
14.0844
 20
94.9264
 30
0.0000
 42
1.0000
  0
VERTEX
  8
16
 10
14.4906
 20
94.9386
 30
0.0000
  0
SEQEND
  8
0
  0
POLYLINE
  8
16
 66
1
 10
0.0000
 20
0.0000
 30
0.0000
 40
0.8128
 41
0.8128
 70
0
  0
VERTEX
  8
16
 10
22.8600
 20
67.6275
 30
0.0000
  0
VERTEX
  8
16
 10
22.8600
 20
58.1025
 30
0.0000
  0
SEQEND
  8
0
  0
POLYLINE
  8
16
 66
1
 10
0.0000
 20
0.0000
 30
0.0000
 40
0.4064
 41
0.4064
 70
0
  0
VERTEX
  8
16
 10
22.6568
 20
58.1025
 30
0.0000
 42
1.0000
  0
VERTEX
  8
16
 10
23.0632
 20
58.1025
 30
0.0000
  0
SEQEND
  8
0
  0
POLYLINE
  8
16
 66
1
 10
0.0000
 20
0.0000
 30
0.0000
 40
0.4064
 41
0.4064
 70
0
  0
VERTEX
  8
16
 10
23.0632
 20
67.6275
 30
0.0000
 42
1.0000
  0
VERTEX
  8
16
 10
22.6568
 20
67.6275
 30
0.0000
  0
SEQEND
  8
0
  0
POLYLINE
  8
16
 66
1
 10
0.0000
 20
0.0000
 30
0.0000
 40
0.8128
 41
0.8128
 70
0
  0
VERTEX
  8
16
 10
22.8600
 20
58.1025
 30
0.0000
  0
VERTEX
  8
16
 10
21.2725
 20
56.5150
 30
0.0000
  0
SEQEND
  8
0
  0
POLYLINE
  8
16
 66
1
 10
0.0000
 20
0.0000
 30
0.0000
 40
0.4064
 41
0.4064
 70
0
  0
VERTEX
  8
16
 10
21.1288
 20
56.6587
 30
0.0000
 42
1.0000
  0
VERTEX
  8
16
 10
21.4162
 20
56.3713
 30
0.0000
  0
SEQEND
  8
0
  0
POLYLINE
  8
16
 66
1
 10
0.0000
 20
0.0000
 30
0.0000
 40
0.4064
 41
0.4064
 70
0
  0
VERTEX
  8
16
 10
23.0037
 20
57.9588
 30
0.0000
 42
1.0000
  0
VERTEX
  8
16
 10
22.7163
 20
58.2462
 30
0.0000
  0
SEQEND
  8
0
  0
POLYLINE
  8
16
 66
1
 10
0.0000
 20
0.0000
 30
0.0000
 40
0.8128
 41
0.8128
 70
0
  0
VERTEX
  8
16
 10
21.2725
 20
56.5150
 30
0.0000
  0
VERTEX
  8
16
 10
21.2725
 20
13.9700
 30
0.0000
  0
SEQEND
  8
0
  0
POLYLINE
  8
16
 66
1
 10
0.0000
 20
0.0000
 30
0.0000
 40
0.4064
 41
0.4064
 70
0
  0
VERTEX
  8
16
 10
21.0693
 20
13.9700
 30
0.0000
 42
1.0000
  0
VERTEX
  8
16
 10
21.4757
 20
13.9700
 30
0.0000
  0
SEQEND
  8
0
  0
POLYLINE
  8
16
 66
1
 10
0.0000
 20
0.0000
 30
0.0000
 40
0.4064
 41
0.4064
 70
0
  0
VERTEX
  8
16
 10
21.4757
 20
56.5150
 30
0.0000
 42
1.0000
  0
VERTEX
  8
16
 10
21.0693
 20
56.5150
 30
0.0000
  0
SEQEND
  8
0
  0
POLYLINE
  8
1
 66
1
 10
0.0000
 20
0.0000
 30
0.0000
 40
0.8128
 41
0.8128
 70
0
  0
VERTEX
  8
1
 10
14.9225
 20
91.4400
 30
0.0000
  0
VERTEX
  8
1
 10
14.9225
 20
93.9800
 30
0.0000
  0
SEQEND
  8
0
  0
POLYLINE
  8
1
 66
1
 10
0.0000
 20
0.0000
 30
0.0000
 40
0.4064
 41
0.4064
 70
0
  0
VERTEX
  8
1
 10
15.1257
 20
93.9800
 30
0.0000
 42
1.0000
  0
VERTEX
  8
1
 10
14.7193
 20
93.9800
 30
0.0000
  0
SEQEND
  8
0
  0
POLYLINE
  8
1
 66
1
 10
0.0000
 20
0.0000
 30
0.0000
 40
0.4064
 41
0.4064
 70
0
  0
VERTEX
  8
1
 10
14.7193
 20
91.4400
 30
0.0000
 42
1.0000
  0
VERTEX
  8
1
 10
15.1257
 20
91.4400
 30
0.0000
  0
SEQEND
  8
0
  0
POLYLINE
  8
1
 66
1
 10
0.0000
 20
0.0000
 30
0.0000
 40
0.8128
 41
0.8128
 70
0
  0
VERTEX
  8
1
 10
14.9225
 20
93.9800
 30
0.0000
  0
VERTEX
  8
1
 10
14.2875
 20
94.9325
 30
0.0000
  0
SEQEND
  8
0
  0
POLYLINE
  8
1
 66
1
 10
0.0000
 20
0.0000
 30
0.0000
 40
0.4064
 41
0.4064
 70
0
  0
VERTEX
  8
1
 10
14.4566
 20
95.0452
 30
0.0000
 42
1.0000
  0
VERTEX
  8
1
 10
14.1184
 20
94.8198
 30
0.0000
  0
SEQEND
  8
0
  0
POLYLINE
  8
1
 66
1
 10
0.0000
 20
0.0000
 30
0.0000
 40
0.4064
 41
0.4064
 70
0
  0
VERTEX
  8
1
 10
14.7534
 20
93.8673
 30
0.0000
 42
1.0000
  0
VERTEX
  8
1
 10
15.0916
 20
94.0927
 30
0.0000
  0
SEQEND
  8
0
  0
INSERT
  8
18
  2
ROUNDV
 10
28.8925
 20
8.5725
 30
0.0000
 41
1.6764
 42
1.6764
 43
1.0000
 50
0.0000
  0
INSERT
  8
18
  2
ROUNDV
 10
28.8925
 20
8.5725
 30
0.0000
 41
1.6764
 42
1.6764
 43
1.0000
 50
0.0000
  0
INSERT
  8
18
  2
ROUNDV
 10
22.8600
 20
67.6275
 30
0.0000
 41
1.6764
 42
1.6764
 43
1.0000
 50
0.0000
  0
INSERT
  8
18
  2
ROUNDV
 10
22.8600
 20
67.6275
 30
0.0000
 41
1.6764
 42
1.6764
 43
1.0000
 50
0.0000
  0
INSERT
  8
18
  2
ROUNDV
 10
14.2875
 20
94.9325
 30
0.0000
 41
1.6764
 42
1.6764
 43
1.0000
 50
0.0000
  0
INSERT
  8
18
  2
ROUNDV
 10
14.2875
 20
94.9325
 30
0.0000
 41
1.6764
 42
1.6764
 43
1.0000
 50
0.0000
  0
ENDSEC
  0
EOF
